<svg id="Layer_1" data-name="Layer 1" xmlns="http://www.w3.org/2000/svg" viewBox="0 0 179.11 75.33"><defs><style>.cls-1{fill:#fff;}</style></defs><title>pierre_logo</title><path class="cls-1" d="M49.78,57.89l-.72.42V57.8l-.58.05v-.36l-.58,0v-.29c-.33,0-.5.14-.5.33l.5,0v.36l.58,0a3.66,3.66,0,0,1-.58.62.85.85,0,0,0-.5.33,1,1,0,0,1-.25.17,1.5,1.5,0,0,0-.29.16.28.28,0,0,0-.11.23l1.44-.12a6.08,6.08,0,0,1-2.81,1.59,1,1,0,0,1,.22-.52.93.93,0,0,0-.65.27c-.05,0-.07,0-.07.08l-.07.14H45a.17.17,0,0,0,.15.06h.21a3.23,3.23,0,0,1-.25.41,4,4,0,0,0-.25.42.9.9,0,0,1-1.22.23.25.25,0,0,1,.07-.15,1.89,1.89,0,0,0,.14-.19.32.32,0,0,0,.07-.18c0-.15,0-.22-.07-.21l-.21-.06A6.78,6.78,0,0,1,42,62.38v.14a.32.32,0,0,1,.14,0,.26.26,0,0,0,.15,0,.77.77,0,0,0,.57-.33,1.05,1.05,0,0,1,.73-.34,3.48,3.48,0,0,0-.22.38.7.7,0,0,1-.25.27.81.81,0,0,1-.22.12l-.32.13-.51.22a.88.88,0,0,0-.29.09,2.18,2.18,0,0,1-1.58,1l-.58.47a4.46,4.46,0,0,1-1.29.59,1.53,1.53,0,0,0-.51.17,1.93,1.93,0,0,1-.43.17,15.25,15.25,0,0,1-1.51.63l-1.29.47a21,21,0,0,1-3,.29L28.82,67a.31.31,0,0,1-.35-.28,3.08,3.08,0,0,0-.8,1.55,9.58,9.58,0,0,0-.57,1.35,11.93,11.93,0,0,1-.65,1.5c-.05.14-.16.42-.33.83s-.3.74-.39,1a17.66,17.66,0,0,0-.79,1.75,3.41,3.41,0,0,1-.22.51,1.19,1.19,0,0,0-.14.44q-.15.36-.51,1.05a5.28,5.28,0,0,0-.5,1.13,1,1,0,0,1-.43.73.94.94,0,0,0-.33.62,3.1,3.1,0,0,1-.18.62,1.57,1.57,0,0,0-.5,1.09,1.54,1.54,0,0,1-.29.51,6.89,6.89,0,0,0-.65,1.17,6.26,6.26,0,0,1-.64,1.16c-.05,0-.08.05-.08.14v.22c0,.33-.07.51-.21.51a1.19,1.19,0,0,0-.36.72A10.48,10.48,0,0,1,19.18,87a1.46,1.46,0,0,0-.29.51c-.1.24-.17.41-.22.5a11.78,11.78,0,0,1-.79,1.31.61.61,0,0,1-.72.22,6.21,6.21,0,0,1-1.65-1.36l-.44-.72a4.66,4.66,0,0,0-.14-1,4.8,4.8,0,0,1-.15-1c.82-1.24,1.49-2.33,2-3.24v2.52l.07.14h.22c.43-.58.67-.92.72-1s-.1-.24,0-.29a2.19,2.19,0,0,1,.29-.8q.36,0,.57-.72a12.05,12.05,0,0,1,.61-1.52c.32-.68.52-1.16.62-1.45L20,78.1a.7.7,0,0,1,.22-.4.85.85,0,0,0,.21-.33A2.18,2.18,0,0,1,21,76.5v-.07a3.29,3.29,0,0,1,.39-.94,2.07,2.07,0,0,0,.33-.87,10.93,10.93,0,0,0,.79-2,4.35,4.35,0,0,1,.58-.94.7.7,0,0,1,.14-.3.5.5,0,0,0,.07-.21L24.86,67A2.78,2.78,0,0,0,25,65.89a4.24,4.24,0,0,0-.65-.63.48.48,0,0,0-.29-.06l-1.51-1.47c0-.15,0-.25.07-.29s.17-.15.22-.15a3.49,3.49,0,0,1,1.87,1l-.79,0c0,.19.12.28.36.28l.43,0a.44.44,0,0,0,.43.28,1.19,1.19,0,0,0,.44-.08s.14-.19.28-.41a1.8,1.8,0,0,0,.29-.62,8,8,0,0,1,.43-1.24A6.35,6.35,0,0,0,27,61.08c.95-2.82,1.46-4.33,1.51-4.52a4.14,4.14,0,0,0,.43-1c.14-.44.24-.73.29-.88s.2-.58.32-1,.2-.73.25-.87q.15-.59.54-1.68c.27-.73.44-1.3.54-1.68s.23-.77.4-1.28a11.31,11.31,0,0,0,.32-1.13c.09-.38.23-1,.4-1.71a13.72,13.72,0,0,1,.47-1.72,36,36,0,0,0,1.15-3.73,1.41,1.41,0,0,1,1.58-1.23l.36,0a2.79,2.79,0,0,1,1.23.54A1.43,1.43,0,0,1,37,40.3v.44a1.93,1.93,0,0,0-.29,1.17.73.73,0,0,1-.21.51l-.43.82c-.05.19-.14.47-.26.84s-.21.63-.25.77A17.22,17.22,0,0,1,35,46.61a4.34,4.34,0,0,0-.22.52,11.56,11.56,0,0,1-.58,2.19,1.85,1.85,0,0,0-.43,1,2.36,2.36,0,0,1-.14.76l-.33.88a5.81,5.81,0,0,0-.25.7,4.13,4.13,0,0,1-.25,1,3.56,3.56,0,0,0-.25,1,4.83,4.83,0,0,1-.33,1,2.81,2.81,0,0,0-.25.92c-.23.58-.34.88-.58,1.46-.38,1.08-.64,1.88-.79,2.41-.53,1.42-.84,2.22-.93,2.42a2.31,2.31,0,0,0-.15.51,4.36,4.36,0,0,1-.14.51.41.41,0,0,0,.07.46.64.64,0,0,0,.51,0,2.36,2.36,0,0,1,1.51-.14c.09,0,.14,0,.14.07l-.22.08-.28.3A6,6,0,0,0,33.72,64c.38-.16,1-.44,1.73-.85s1.34-.69,1.73-.85a14.85,14.85,0,0,0,1.65-.68A46.39,46.39,0,0,0,43,59.07c0-.15.05-.22.14-.23a2,2,0,0,0,1-.47,4.11,4.11,0,0,1,.65-.45,5.24,5.24,0,0,0,1.44-1.11.66.66,0,0,1,.32-.17.36.36,0,0,1,.22,0,.38.38,0,0,0,.18.06v.14L47,57c.48,0,.77-.23.86-.57.44,0,.82-.36,1.16-1l-.29,0-.15-.13-.07-.07a1,1,0,0,1,.22-.09l.29,0v.29c.09,0,.19-.11.28-.31a1.41,1.41,0,0,0,.73-.43,1.42,1.42,0,0,1,.71-.35,1.83,1.83,0,0,1-.43.55.72.72,0,0,1-.21.45c.09,0,.16.05.21.19a.81.81,0,0,0-.21.09v-.28a1.17,1.17,0,0,0-.87.57h.07l-.07.08V56c-.14.16-.21.26-.21.31v.07l.21,0a.55.55,0,0,1,.07.21l.51,0a2.09,2.09,0,0,1-.36.61l-.43.68a4,4,0,0,1,.5-.22,5.29,5.29,0,0,0,.51-.22.24.24,0,0,1,.28.12l-.07.07a1,1,0,0,1-.14.23A.65.65,0,0,1,49.78,57.89ZM67.27,34c-.38-.15-.5-.38-.36-.68A5.33,5.33,0,0,0,67,32.2l-.07-.13c-.09.1-.17.16-.21.16a5.42,5.42,0,0,0-.22.75,4.42,4.42,0,0,1-.18,1.57A4.1,4.1,0,0,0,66.12,36a2.1,2.1,0,0,0-.5,1.57.5.5,0,0,0,.28-.39c0-.2.12-.3.22-.31.24-.17.26-.47.07-.88l.43,0c.34,0,.53,0,.58.15s0,.12-.14.23a.51.51,0,0,0-.15.23q-.21.1-.21.24c-.1.11-.1.25,0,.43v.22a2,2,0,0,0-.72.84,1.61,1.61,0,0,1-.65.75v-.43a1.54,1.54,0,0,0,.29-1,1.82,1.82,0,0,0-.58.28,2.7,2.7,0,0,1,.14-1,2.15,2.15,0,0,0,.44-1.56c-.15,0-.22.07-.22.16A23.12,23.12,0,0,1,64.14,38c-.6,1.07-1,1.71-1,1.91a.94.94,0,0,1-.15.41c-.09.18-.17.32-.21.42a8.84,8.84,0,0,0-1.3,1.94,4.21,4.21,0,0,1-1.22,1.63,2.18,2.18,0,0,0-.47.56,2.16,2.16,0,0,1-.61.63,1,1,0,0,0-.07.51h.07l.07.06c-.1.16-.14.14-.14-.06l-.73.65c-.09.11,0,.2.22.27l.07.06.07.14c-.19.12-.28.22-.28.32a.28.28,0,0,0,.28-.32l.22-.09a4.28,4.28,0,0,0,.79-.8c.24-.32.51-.65.8-1s.5-.65.64-.86a24.66,24.66,0,0,0,2.16-3.61,8,8,0,0,1,1.08-1.92.81.81,0,0,0,.15-.3,1,1,0,0,1,.18-.38.75.75,0,0,1,.32-.25,1.82,1.82,0,0,1-.43,1.34,9.32,9.32,0,0,0-.69,1.19,8.21,8.21,0,0,1-.61,1.11,25.81,25.81,0,0,1-1.87,3q-3.52,4.55-5.9,7.07l-2.95,2.93a7.19,7.19,0,0,1-.73.64c-.33.27-.57.49-.72.64l-.36,0,.29-.53-.21-.2a.32.32,0,0,1,.21-.09v.29c.15,0,.22-.12.22-.31l-.22,0a.35.35,0,0,1,.11-.19.35.35,0,0,0,.11-.19c.09-.2.19-.31.29-.31v-.29l-.51,0c0-.34.31-.53.79-.57v.21l.08-.07a.48.48,0,0,0,.14-.05.13.13,0,0,0,.07-.12l-.29,0,.29-.32v.29l.58,0v.22c.09,0,.19-.09.29-.25l-.29,0v-.29l-.58.05.29-.6a1.52,1.52,0,0,0-.58.27,12.32,12.32,0,0,0-1.08.67,1.6,1.6,0,0,1,.08-.51,3.46,3.46,0,0,1,.57-.55,2.78,2.78,0,0,0,.76-.47,8.43,8.43,0,0,0,.68-.67c.24-.26.43-.49.58-.63a5.94,5.94,0,0,0,.72-.86A8.77,8.77,0,0,1,56,48.25h.07a1.33,1.33,0,0,1,.44-.83.43.43,0,0,1,.5.16.26.26,0,0,1-.18.09c-.07,0-.09.06,0,.15l.22-.24.36-.32q.29-.47.93-1.32c.44-.57.72-1.09.87-1.24a2.25,2.25,0,0,0,.61-.78,1.6,1.6,0,0,1,.54-.77,1.29,1.29,0,0,1,0-.62,1.47,1.47,0,0,1,.4-.58,2.24,2.24,0,0,0,.39-.47A17.19,17.19,0,0,0,62.09,40c1.15-2.09,2-3.85,2.52-5.1a12.81,12.81,0,0,0,1.29-5,1,1,0,0,1,.08-.52,4.64,4.64,0,0,0,.14-1.31,16.09,16.09,0,0,0-.22-3.36A6.45,6.45,0,0,0,65,22.05a.87.87,0,0,1-.18-.27,1,1,0,0,0-.18-.27c-.05-.14-.6-.94-1.66-2.41a4.6,4.6,0,0,0-1.4-1.19,13.69,13.69,0,0,0-2-.87c-.79-.28-1.35-.5-1.69-.66l-.5.05c-.39,0-.55-.21-.65-.51s-.31-.26-.65-.22c0-.2,0-.22-.14-.06.05,0,.07,0,.07,0s0,0,.07,0L56,16a4.59,4.59,0,0,0-2-.1L52.73,16,52.59,16a.69.69,0,0,0-.15-.2,1.77,1.77,0,0,0-.5.26l-1.66-.07v-.15c.19-.25.12-.37-.21-.34l-1.88.16s-.12.06-.21.16l-.08.08a16.36,16.36,0,0,0,1.88-.08l.07.21c0,.19-.07.29-.22.3-.05-.14-.29-.15-.72-.05a6.25,6.25,0,0,1-.86.18,3,3,0,0,0-1.3.4,12.7,12.7,0,0,1-1.29.39.77.77,0,0,1-.58-.25v-.21a2.65,2.65,0,0,0,.72-.13l.07-.08.15-.15-1.44.11a.54.54,0,0,1-.22.23c.24,0,.31.19.22.49-.24.25-.44.34-.58.25s-.12.07-.21.2a.45.45,0,0,1-.29.2c-.24.07-.58.15-1,.25a5.52,5.52,0,0,0-1,.32,5.74,5.74,0,0,1-2.09.72h-.07a7.63,7.63,0,0,1-1.8.91l-.58.32a10.08,10.08,0,0,1-1.62,1c-.69.38-1.2.73-1.47.87a3.58,3.58,0,0,0-1.23.86,7.59,7.59,0,0,1-1.36.92,10.85,10.85,0,0,0-1.8,1.31c-.72.6-1.23,1-1.52,1.2a.83.83,0,0,0-.25.27q-.1.18-.18.18a1.2,1.2,0,0,1-.28.44,18.71,18.71,0,0,0-1.81,1.65,2.81,2.81,0,0,1-.79.81,1.33,1.33,0,0,0-.57.81,2.45,2.45,0,0,1-.72,1.1.75.75,0,0,0-.29.4.8.8,0,0,1-.36.4.93.93,0,0,0-.33.55.89.89,0,0,1-.32.55,1.29,1.29,0,0,0-.58,1.16c-.19.2-.31.29-.35.29-.34-.13-.49,0-.36.3s.19.52,0,.72a4.6,4.6,0,0,0-.37.8.86.86,0,0,1-.43.65,1,1,0,0,0-.36.73,2.17,2.17,0,0,1-.14.68,1.93,1.93,0,0,0-.15.62c.15,0,.2.2.15.46a.93.93,0,0,0,0,.54c.05.1,0,.25-.11.47a.51.51,0,0,0,0,.54.32.32,0,0,1-.07.18l-.14.22a.92.92,0,0,0-.15.25.51.51,0,0,0,.15.51c.14.14.07.36-.22.65a.32.32,0,0,0,.07.43.66.66,0,0,1,.22.5v.72a2,2,0,0,1-.29.8,1.53,1.53,0,0,0,0,1.44V48a2.13,2.13,0,0,1-.1.58,1.78,1.78,0,0,0-.11.51l-.87.22v-.58l-.07-.07a.17.17,0,0,1-.07-.14.53.53,0,0,0-.07.22v.72l-.4.21a1,1,0,0,1-.32.15,1,1,0,0,1,.14-.58,7.52,7.52,0,0,0-.11-.75,2.71,2.71,0,0,1,0-1,2.46,2.46,0,0,0,0-1.66,2.55,2.55,0,0,0-.07-.65v-.36a3.8,3.8,0,0,0,.14-1.11,4.54,4.54,0,0,1,.07-1v-1l.07-.08.22.15c0,.33.09.55.29.64,0,.19.07.22.21.07l-.21-.07a1,1,0,0,1,0-.25.45.45,0,0,0,0-.18c.24-.34.19-.6-.15-.79-.14,0-.21-.07-.21-.22a9.77,9.77,0,0,1,.07-1.36v-.08c.14-.14.24-.21.29-.21a.22.22,0,0,1,.14.21c.19.67.29,1,.29,1.08v-.94l.07-.29c.34-.14.51-.6.51-1.37a.91.91,0,0,1,.5-.94v-.36a.48.48,0,0,1-.07-.43l.18-.19a1.26,1.26,0,0,0,.21-.32,1.29,1.29,0,0,1,.19-.29.5.5,0,0,0,0-.33c0-.16,0-.27.11-.32A1.74,1.74,0,0,1,20,34a1.11,1.11,0,0,0,.21-.8.42.42,0,0,1,.08-.29,1.08,1.08,0,0,0,.61-.84,2.19,2.19,0,0,1,.39-.9l.29-.15a4.13,4.13,0,0,1,.54-1,3.5,3.5,0,0,0,.47-.76l.58-.59c.29-.3.69-.77,1.22-1.44a12.25,12.25,0,0,1,1.3-1.44A14.26,14.26,0,0,0,27.74,24l.22-.29a.53.53,0,0,1,.25-.12l.26,0a22.93,22.93,0,0,1,3.45-2.45,2.92,2.92,0,0,1,.79-.5,3.07,3.07,0,0,0,.8-.51,2.78,2.78,0,0,1,.82-.51l.76-.37c.13-.06.9-.37,2.23-1A49.62,49.62,0,0,1,42.72,16a9.25,9.25,0,0,1,1.37-.39l1.37-.32a.57.57,0,0,1,.43.19c0,.19.07.21.21.05a.39.39,0,0,0-.21-.05c.09-.2.19-.31.29-.31a3.14,3.14,0,0,1,.86-.14,3,3,0,0,0,1-.23.58.58,0,0,1,.43.18c0,.19.07.21.22.05a.29.29,0,0,1-.22-.05c.14-.25.24-.38.29-.38l4.68-.41a1.89,1.89,0,0,0,.93.2,6,6,0,0,1,.87.06l1.65.42a7.67,7.67,0,0,1,1.77.51c.74.28,1.19.44,1.33.48a4.42,4.42,0,0,1,1.73.9,7,7,0,0,0,.79.78,3.68,3.68,0,0,1,.86,1c.1.13.27.06.51-.2a1,1,0,0,1,.79,1.06,1.27,1.27,0,0,1,.94,1.27,4.09,4.09,0,0,0,.86,1.78l.22.12c.19-.07.31-.07.36,0a.55.55,0,0,1,.07.28.34.34,0,0,0,.07.25A6,6,0,0,1,68,24.53a.65.65,0,0,1,.08.57,3.26,3.26,0,0,0,.35,2v1.59a4.65,4.65,0,0,0,.08.93,1.42,1.42,0,0,1-.15.55,1.62,1.62,0,0,0-.14.56.28.28,0,0,0,.21.05c-.14.11-.21.09-.21-.05-.19,0-.29.2-.29.54.1,0,.15,0,.15.05l.35.1q.15.34-.21.39l-.29.32-.29.25a1.42,1.42,0,0,1-.14.81,2.25,2.25,0,0,0-.22.74c.19.12.27.23.22.34-.39.33-.48.65-.29,1l-.07.08c-.15,0-.22,0-.22,0-.29-.36-.21-.7.22-1A.51.51,0,0,1,67.27,34ZM17.16,87.49l.14-.07-.14-.14Zm.29-43.41v-.15h-.07Zm.43-6.49v.07a.21.21,0,0,0-.07.15.41.41,0,0,1-.15-.29c.1,0,.15-.05.15-.14Zm-.22,48.75h.15v-.15Zm.51-.73v-.28c-.19,0-.27.09-.22.28s.05.08.15.08A.08.08,0,0,0,18.17,85.61ZM18.1,37q-.23-.21,0-.21c0,.05,0,.07.07.07Zm8.56,29.55v-.07c0-.14,0-.21-.14-.21a.45.45,0,0,0-.36,0c-.14,0-.21.13-.21.22a4.56,4.56,0,0,1-.58,1.39c-.05.14-.11.34-.18.58a3.33,3.33,0,0,1-.25.62,2.74,2.74,0,0,1-.36.48c.24.28.14.67-.22,1.16a2.45,2.45,0,0,0-.5,1.45,1.11,1.11,0,0,1-.29.8.82.82,0,0,0-.4.4,4.9,4.9,0,0,0-.21.69,3.78,3.78,0,0,1-.18.58l-.65,1.53c-1.11,2.33-1.9,4.09-2.38,5.3h-.07a.76.76,0,0,1-.29.65.61.61,0,0,0,0,.87,5.94,5.94,0,0,0-1.22,2.17h.14A3.87,3.87,0,0,0,19.39,83l.08-.08c.09-.24.25-.56.46-1s.41-.78.58-1.12.34-.66.47-.94.43-.93.79-1.6a13.8,13.8,0,0,0,.79-1.75A3.82,3.82,0,0,1,23,75.38c.18-.41.41-1.14.79-2s.65-1.39.8-1.68C25.34,69.7,26,68,26.66,66.56Zm-8-31.06H18.6v-.15h.07Zm.51-1.45s0-.07-.08-.07c0-.39.12-.58.37-.58.09,0,.14,0,.14.07C19.61,33.85,19.47,34.05,19.18,34.05Zm.43,47.44c0-.14-.05-.17-.14-.07Zm.29-48.6c-.1,0-.15,0-.15.07l-.07-.07.07-.14C19.85,32.74,19.9,32.79,19.9,32.89Zm.5-1.09-.14-.14a.4.4,0,0,1,.14-.29c0-.05.05-.08.15-.08l.14.07Zm.86-1.53a.07.07,0,0,0-.07.08V30.2Zm.22,50c.05,0,.07,0,.07-.15s-.07,0-.21,0ZM21.7,31c0,.2,0,.22.14.07C21.74,31.05,21.7,31,21.7,31Zm.07,48.67h.07l-.07-.07ZM22.13,29l-.07.15S22,29.13,22,29Zm.43,48.66.07-.14h-.07Zm1-50.35-.14.08c0-.05,0-.07-.08-.07Zm.57-.73-.07.21C24,26.78,24.05,26.71,24.14,26.61Zm.29-.3c0,.19-.05.29-.14.29A.46.46,0,0,1,24.43,26.31Zm.29-.22c0,.14-.1.22-.29.22.05,0,.1,0,.15-.11S24.67,26.09,24.72,26.09Zm-.07,47.23a.32.32,0,0,1,0-.14.28.28,0,0,0,0-.15s-.07,0-.07-.07v.14a.21.21,0,0,0-.07.15Zm.43-47.53c0,.14-.12.22-.36.22C24.72,25.87,24.84,25.79,25.08,25.79Zm0,38.73h-.36v-.28h.36l.14.21h-.07Zm-.14,7.93a.22.22,0,0,1,.14-.22l-.14-.07a.42.42,0,0,0-.08.29Zm.72-47.26v.51l-.58,0A.75.75,0,0,1,25.66,25.19Zm-.51,46.46c.05,0,.07-.05.07-.15h-.07ZM25.73,25c.14,0,.17.08.07.1s-.14.07-.14.11Zm.93-.47-.28.23-.08-.07a.23.23,0,0,1-.07-.14c0-.1.07-.15.22-.15s.12,0,.21.06ZM26.38,69v-.14h-.15ZM27,65.11,27.1,65l.14-.08s0-.07-.07-.07-.31-.13-.51,0h-.14Zm0,2.45a.59.59,0,0,1,.08-.22C26.83,67.35,26.81,67.42,27,67.56Zm.72-3.41c.15-.58.39-1.36.72-2.33s.55-1.63.65-2q.08-.15.36-1a8.25,8.25,0,0,0,.36-1.46A6.38,6.38,0,0,1,30.19,56c.24-.59.39-1,.43-1.1a1.36,1.36,0,0,0,.18-.48,1.4,1.4,0,0,1,.26-.55v-.29a.26.26,0,0,0-.07-.14l-.08-.14-.14.15c-.48,1.37-.86,2.39-1.15,3.08a4.71,4.71,0,0,1-.29.73,3.38,3.38,0,0,0-.29.66,13,13,0,0,1-.36,1.34c-.19.56-.32.94-.36,1.13A12.31,12.31,0,0,1,27.74,62c-.34.88-.51,1.31-.86,2.19,0,.19.05.29.15.28C27.36,64.45,27.58,64.35,27.67,64.15Zm-.5,3a.21.21,0,0,0-.07.15A.26.26,0,0,0,27.17,67.19ZM28,23.6l-.14.08v-.07a.21.21,0,0,0-.15-.07c.1-.1.15-.07.15.07ZM28,24.68c.1,0,.15,0,.15-.08H28Zm0,39.75.15-.08L28,64.28ZM28.61,63l-.07.07c0,.1,0,.14.07.14Zm-.07,3.67a20,20,0,0,0,2.52-.18l-.51-.26h-.29c-.09,0-.76,0-1.51.13A.31.31,0,0,0,28.54,66.71ZM29,24.65v-.08h-.15Zm0,41h-.15v.15Zm.14-4.26.15.07v-.07a1.68,1.68,0,0,0,.07-.44C29.09,61,29,61.15,29.11,61.43Zm1.95,3.16a8.67,8.67,0,0,0-1.8.22h-.15l.15.06a3.24,3.24,0,0,0,1.8-.15Zm-1.59-3.75a.21.21,0,0,0-.07.15A.21.21,0,0,0,29.47,60.84Zm0-36.5c.05,0,.08-.05.08-.15S29.42,24.29,29.47,24.34Zm.15-.22a.46.46,0,0,0,.14-.23C29.66,24,29.62,24.07,29.62,24.12Zm.29-.3c.23,0,.28-.09.14-.23a.26.26,0,0,1-.07.15Zm.21,41.82-.07-.07c0,.05-.05.07-.14.08l.14.14Zm.5-42.14.15-.22a.21.21,0,0,0-.15.07l-.07.08C30.6,23.43,30.62,23.45,30.62,23.5Zm.15-.3c.33,0,.53-.09.57-.24Q30.85,23,30.77,23.2Zm.43,42.25a.54.54,0,0,0,.36-.16l-.22-.06h-.43c0,.05,0,.08-.07.08l.07.14Zm0-43.27h-.07v.07Zm0,30.31c-.05,0-.07,0-.07.15a.28.28,0,0,0,.07.21ZM31.34,23c.2-.05.29-.16.29-.3A.27.27,0,0,0,31.34,23Zm.08,28.37v.36h.14v-.36s0-.07-.07-.07S31.42,51.28,31.42,51.33Zm.21-28.67c.34,0,.51-.12.51-.31C31.85,22.36,31.68,22.47,31.63,22.66Zm.36-1.1v.08h.15Zm.22.79q.21,0,.21-.3Q32.21,22.05,32.21,22.35Zm0,42.62a.61.61,0,0,0,.22.06,1.39,1.39,0,0,1,.28.06c.34.08.53,0,.58-.25a3.65,3.65,0,0,0-.86.12ZM32.5,22a.47.47,0,0,0,.5-.38l-.29.09A.29.29,0,0,0,32.5,22Zm.43,44.19c.58,0,.91-.14,1-.34a4.91,4.91,0,0,1-1,.12s-.07.06-.07.15ZM33,21.66c.38,0,.6-.13.65-.32C33.31,21.36,33.1,21.46,33,21.66Zm.22-.8-.08.14v.08h.08l.07-.07ZM34,64.59c-.39-.17-.63-.09-.72.25a1.3,1.3,0,0,0,.72-.18l.14-.08Zm-.36-43.25a.21.21,0,0,0,.14-.08s-.07,0-.07-.14ZM35.88,65.5c.1,0,.15-.08.15-.23h-.15a4.35,4.35,0,0,0-1.94.47v.14L35,65.83A5.61,5.61,0,0,1,35.88,65.5ZM34.44,21a1.67,1.67,0,0,0,.86-.55c-.52,0-.86.14-1,.34V21Zm.29,43.11-.22.23.44,0a.36.36,0,0,0,.07-.22Zm.29.71H34.8s.05.07.15.06Zm.43-1a.48.48,0,0,0-.43.31l.5,0a.36.36,0,0,0,.36-.31Zm-.36-44.12.21.2a.49.49,0,0,0,.22-.23Zm.21.78c.34,0,.53-.13.58-.32A.63.63,0,0,0,35.3,20.46Zm.51,44h-.07v.07A.07.07,0,0,0,35.81,64.49Zm.07-44.35c.34,0,.5-.13.5-.32A.56.56,0,0,0,35.88,20.14Zm.72,43.59q1.59-.81,2.52-1.23l.07-.08a1.14,1.14,0,0,1,.15-.23,5.77,5.77,0,0,0-.87.13L36.1,63.54l-.07.08-.15.15Zm-.07-43.92a1.69,1.69,0,0,0,1.37-.65A1.59,1.59,0,0,0,36.53,19.81Zm1.29-1.44-.14.08.18,0,.18,0c0-.05,0-.07.07-.08a.23.23,0,0,1-.14,0A.4.4,0,0,0,37.82,18.37Zm.65,46c.1,0,.15,0,.15-.08-.2-.18-.34-.27-.44-.26H38a1.29,1.29,0,0,0-.36.31s.11,0,.18.09a.28.28,0,0,0,.18.1C38.28,64.57,38.42,64.51,38.47,64.41Zm-.14-45.28a3.14,3.14,0,0,0,1-.57l-.44,0a1.52,1.52,0,0,0-1,.57ZM38,63.57h.07L38,63.43Zm.58-45.47v.08l.07-.08Zm0,45.15h.07l-.07-.14Zm.86-.42-.07-.06-.22.08c0,.1.05.14.15.14S39.43,62.93,39.48,62.83Zm-.29,1.25h.15L39.19,64Zm.58-45.54a.52.52,0,0,0,.43-.32l-.5,0a.51.51,0,0,0-.36.17A.56.56,0,0,0,39.77,18.54Zm.14,43.33c-.33,0-.53.13-.57.32A.6.6,0,0,0,39.91,61.87Zm-.43-44.11h-.07l.07.06Zm.65,46,.5-.32-.14-.14-1,.07c0,.09,0,.14-.07.15l.07.06a.75.75,0,0,1,.29.13A.35.35,0,0,0,40.13,63.73Zm.36-2.19c-.34,0-.53.14-.58.33C40.25,61.85,40.44,61.74,40.49,61.54Zm-.36,1s-.05-.07-.14-.06-.05.12,0,.22A.14.14,0,0,0,40.13,62.5Zm.57-44.31c.2,0,.29-.14.29-.38l-.5,0c-.19,0-.29.14-.29.38Zm-.21,43.35a2.41,2.41,0,0,0,1.44-1,2.48,2.48,0,0,0-1.3.74C40.54,61.32,40.49,61.4,40.49,61.54Zm.14.79v-.15h-.14Zm.29.55v-.14l.07-.08C40.8,62.67,40.78,62.75,40.92,62.88Zm.58-45.11c.14,0,.28-.11.43-.32l-.51,0a.5.5,0,0,0-.43.32Zm-.07,44.79s.07-.05.07-.15l-.07-.07c-.25,0-.36.13-.36.32A.73.73,0,0,1,41.43,62.56Zm-.15-.78-.07.15A.21.21,0,0,0,41.28,61.78Zm.15,0c.09,0,.11-.08.07-.22A.29.29,0,0,0,41.43,61.77ZM42.72,17.4a.28.28,0,0,0,.29-.31l-.94.07a.46.46,0,0,1-.14.29ZM44.3,59.33a.22.22,0,0,0,.08-.15.75.75,0,0,0,.07-.22,6.94,6.94,0,0,0-1.59.62,1.44,1.44,0,0,0-.93,1l.32,0a.47.47,0,0,0,.33-.1l.79-.56A7.12,7.12,0,0,1,44.3,59.33Zm-2.3,2v.14l.07-.15Zm.51-.33a.06.06,0,0,1,.07.07l.07-.08-.07-.06A.07.07,0,0,1,42.51,61Zm.79-44.62h-.22l.07.14Zm.5.68a.37.37,0,0,0,.36-.31,4.25,4.25,0,0,0-.86.13.21.21,0,0,0-.22.23Zm-.14,43.36h.14v-.15ZM44,60a.21.21,0,0,0-.07.15A.26.26,0,0,0,44,60Zm.28.63.08-.08c0-.1,0-.14-.08-.14ZM46.75,58c.34,0,.51-.16.51-.4l-.51,0A1.65,1.65,0,0,0,47,57a1.21,1.21,0,0,0-.86.36s-.3.25-.76.6a3.83,3.83,0,0,0-1,1c.29,0,.45-.08.5-.18a2.9,2.9,0,0,1,.65-.2q.21-.73.87-.57v.15c.19,0,.28-.07.28-.17l-.28,0c0-.24.09-.36.28-.38Zm-2.16,1.75s.07-.08.07-.22C44.57,59.62,44.54,59.7,44.59,59.74Zm.22-43.65s.07-.05.07-.15l-.07-.06-.22.09A.21.21,0,0,0,44.81,16.09Zm0,43.42c.19,0,.22-.09.07-.22a.21.21,0,0,1-.07.15Zm.36.48v-.08H45.1Zm.29-.82.07-.08V59C45.38,59,45.36,59,45.46,59.17Zm.14-.51v.21a.13.13,0,0,0,.14-.15A.14.14,0,0,0,45.6,58.66Zm.07,1,.07.06h.15l-.29.6c.48.11.84-.14,1.08-.73a.29.29,0,0,1,.07-.22l-.57,0-.29.31v-.28A.49.49,0,0,0,45.67,59.66ZM46.9,16.22c0-.1,0-.15.07-.15L46.9,16a3,3,0,0,0-.94.15l-.07.15Zm-1,43.21.29,0a.26.26,0,0,1-.08-.21Zm.5-.91v-.21l-.14.08Zm.79-2c0,.14,0,.21-.14.22l.07-.07A.25.25,0,0,0,47.18,56.52Zm.58-40.37a.53.53,0,0,1,.07-.22C47.64,15.94,47.62,16,47.76,16.15Zm-.07,40.11.07-.08.07.07a.17.17,0,0,1,.07.14C47.81,56.3,47.74,56.25,47.69,56.26Zm.07,1.79a.06.06,0,0,1,.07-.07h-.14Zm.72-.56c.14,0,.24-.12.29-.31l-.29,0v-.29s0-.09-.11-.13-.12,0-.18.09a1.41,1.41,0,0,0-.29.38l.58,0Zm-.29,1.75a.68.68,0,0,1,.58-.62A1,1,0,0,1,48.19,59.24Zm.58-2.06c.14,0,.22-.12.22-.31C48.84,57,48.77,57.13,48.77,57.18Zm0,1.44c0-.15.09-.23.29-.24C48.91,58.53,48.82,58.61,48.77,58.62Zm.29-2v-.22h-.22c0,.14.07.21.22.2v.29c.14,0,.21-.12.21-.31Zm.21-1.75v.36l-.21,0C49.06,55,49.13,54.84,49.27,54.83Zm.07,1.22.15.06-.15.16v-.22h-.07l.07-.08Zm0,.22v.07h-.07v-.07Zm.15-1.6c.09.09,0,.14-.15.16C49.34,54.78,49.39,54.73,49.49,54.67Zm.65,1.24-.07-.07L50,55.78a.3.3,0,0,1,.15-.09v.22a2.08,2.08,0,0,0,.64,0,.93.93,0,0,1-.93.58Zm.43-2-.22,0-.07-.07.07-.08a.22.22,0,0,1,.15-.08l.21,0Zm.21.55s.1-.15.29-.31A.27.27,0,0,1,50.78,54.41Zm.36,2.06c.1,0,.15,0,.15.13s-.15,0-.15.09l-.07-.07ZM51.36,55c.15,0,.22-.14.22-.38l-.22,0Zm.43-39.49a.49.49,0,0,0,.29-.17.2.2,0,0,1-.14-.06h-.08l-.28,0-.15.09c0,.09.07.13.22.12Zm-.14,38.53a.21.21,0,0,0,.21-.23A.21.21,0,0,0,51.65,54.05Zm0,.58.07-.08a.25.25,0,0,1-.07-.21Zm.43,1.4c-.14-.13-.12-.21.07-.22A.29.29,0,0,0,52.08,56Zm.07-.3a2.91,2.91,0,0,1,1-1.09,6,6,0,0,1,1-.67.8.8,0,0,1-.22.59c-.09.11-.29.29-.57.56a4.35,4.35,0,0,1-.72.57Zm.22-1.53a.08.08,0,0,1,.07-.08Zm1-38.68a.32.32,0,0,1,.21-.09l.29-.1a.3.3,0,0,1-.18-.09q-.11-.11-.18-.09l-.65.06c-.19,0-.33.19-.43.54A2,2,0,0,0,53.38,15.52ZM53,53.42a.89.89,0,0,0,.36-.32.65.65,0,0,0,.5-.62l-1.15.11V52.3a.28.28,0,0,0-.29.31l.29,0v.57l.29,0Zm-.58.56c.19,0,.29-.1.29-.24C52.54,53.76,52.44,53.84,52.44,54ZM53,51.91c-.2.21-.29.34-.29.39S52.92,52.16,53,51.91Zm.21-.16c-.14,0-.21.07-.21.16S53.23,51.85,53.23,51.75Zm.15,1.35-.36,0c0-.15,0-.22.14-.23A.38.38,0,0,0,53.38,53.1Zm.14-1.67a.14.14,0,0,0-.14.16A.14.14,0,0,0,53.52,51.43Zm.14-.15a.22.22,0,0,0,.22-.24A.22.22,0,0,0,53.66,51.28Zm.22,1.2a.28.28,0,0,0,.29-.31l-.29,0c0-.24-.07-.28-.22-.12.05,0,.12,0,.22.12Zm0-1.44c.19-.11.29-.22.29-.31S54,50.84,53.88,51Zm.65-35.48.14-.16-.14-.06-.58.05C54,15.53,54.19,15.59,54.53,15.56Zm-.07,34.85c-.1,0-.2.12-.29.32A.29.29,0,0,0,54.46,50.41Zm-.29,1.76c.19,0,.29-.15.29-.39C54.26,51.94,54.17,52.07,54.17,52.17Zm0,1.65c0-.14.09-.22.29-.24C54.46,53.72,54.36,53.81,54.17,53.82Zm.57-3.72-.28.31A.28.28,0,0,0,54.74,50.1Zm-.28,1.68c.19,0,.28-.07.28-.17C54.55,51.63,54.46,51.68,54.46,51.78Zm.07,1.5c.09.14.07.21-.07.23C54.5,53.5,54.53,53.43,54.53,53.28Zm.21-3.18c.24,0,.39-.06.44-.12a1.36,1.36,0,0,0,.14-.44C55,49.67,54.79,49.85,54.74,50.1Zm0,1.36c.34,0,.51-.09.51-.19C54.91,51.31,54.74,51.37,54.74,51.46Zm.73-2.22-.15.23C55.47,49.45,55.51,49.38,55.47,49.24Zm-.15,1.88a.49.49,0,0,0,.22-.23A.21.21,0,0,0,55.32,51.12Zm.29-.24a.32.32,0,0,0,.21-.31C55.68,50.58,55.61,50.69,55.61,50.88Zm0,1.44a.94.94,0,0,1,.86-.73l-.5.91-.22,0ZM56,50.56a.23.23,0,0,0,.07-.15S56,50.46,56,50.56Zm.29-2.33c0,.14,0,.19.07.13S56.26,48.32,56.26,48.23Zm1.8,1.33a.59.59,0,0,1,.36-.11,10.65,10.65,0,0,1-1.3,1.72c0,.14-.26.29-.65.42a.59.59,0,0,1,.08-.37Zm-1.3.13.29-.32a1,1,0,0,0-.5.12v.22C56.59,49.8,56.66,49.79,56.76,49.69Zm.29-.39c.05,0,.12-.06.21-.16h-.14Zm.57-33.18s.08-.07.22-.09l-.22-.12a.3.3,0,0,0-.28.17A.41.41,0,0,1,57.62,16.12Zm-.28,32.36c0,.1.07.11.21.05a.15.15,0,0,1-.14-.06Zm.28-.75a.29.29,0,0,1,.22.05v-.21Zm.51,0a.28.28,0,0,0,.29-.31l-.29,0a.63.63,0,0,0-.07-.21.26.26,0,0,1-.07.15l-.08.08.22,0Zm-.07.23a.37.37,0,0,0,.07-.23l-.22,0a.19.19,0,0,0,.08.13Zm.36,1.47c0-.33.09-.51.28-.53C58.7,49.21,58.61,49.39,58.42,49.45Zm.21-33.21v-.07h-.07Zm.51,32.35.07.06-.07.16-.44,0A.56.56,0,0,1,59.14,48.59Zm0-32.11.07-.08h-.07Zm.36,31.64-.08-.06.08-.16Zm.14-.23c0-.19.07-.29.22-.31C59.86,47.77,59.78,47.88,59.64,47.89Zm.29-.32a.85.85,0,0,1,.21-.31C60.14,47.46,60.07,47.56,59.93,47.57Zm.29-.31a.44.44,0,0,1,.14-.24C60.41,47.16,60.36,47.24,60.22,47.26Zm1.22-1.43c.05,0,.07,0,.07.14l-.07.08a.17.17,0,0,0-.14.09c.24.16.19.41-.15.73-.19.12-.33,0-.43-.24a1.16,1.16,0,0,1,.5-.85A.91.91,0,0,1,61.44,45.83Zm.22-.52.07-.08c.05,0,.07,0,.07.06Zm.64-.86c0-.05,0-.07-.07-.07l.22-.16A.27.27,0,0,1,62.3,44.45Zm.15-.31c0-.48.19-.76.58-.85C63,43.77,62.83,44.06,62.45,44.14Zm1.44-1.88.14.13v.07l-1,.83a2.58,2.58,0,0,1,.28-.79A.81.81,0,0,1,63.89,42.26Zm0-23.9s-.07,0-.07-.07a.44.44,0,0,1-.22-.05c.14-.11.22-.09.22.05A.06.06,0,0,1,63.89,18.36Zm0,23.25v-.28a1,1,0,0,0,.5-.2l-.29.46Zm.29-22.27a.19.19,0,0,1,.21.12Q64.39,19.1,64.18,19.34Zm.43.24a.25.25,0,0,0,.07-.16l-.14,0C64.54,19.54,64.56,19.58,64.61,19.58Zm-.07,21.17c0-.09,0-.14.07-.15l.07.21c-.1.11-.14.18-.14.23Zm.28-.68c.15-.11.18,0,.22.12s.1.06.14.06l-.07.15a.28.28,0,0,0-.07-.21.16.16,0,0,1-.14,0Zm.36-.83-.07-.06h.07a.3.3,0,0,1,.15-.09C65.23,39.14,65.18,39.19,65.18,39.24Zm.44-4q.36-.1.21-.6c0-.09,0-.13-.14-.12v.14A1.53,1.53,0,0,0,65.62,35.23Zm1.65-9v1.8a.43.43,0,0,0,.07.17.38.38,0,0,1,.08.24l.28,0s.08-.06.08-.15a6,6,0,0,1-.15-1.86.57.57,0,0,1-.36-.17,4.2,4.2,0,0,0-.36-2.12c-.09-.09-.17-.13-.21-.12v-.36l-.08-.14a.14.14,0,0,0-.14.16c0,.19.07.31.22.34a8.72,8.72,0,0,0,.5,2.17Zm-.36-4.14c-.09,0-.14,0-.14-.06Zm.36,8.17c0,.24.12.27.36.1l.15-.09a2,2,0,0,1,.07-.36,2,2,0,0,0,.07-.44,1.77,1.77,0,0,0-.07-.43l-.15-.27-.21,0-.07.16C67.61,29.21,67.56,29.64,67.27,30.3Zm.8,1.57a2,2,0,0,0-.15-.56c-.19.07-.33.29-.29.39a.68.68,0,0,0,.22.12l.14.05Zm-.08.94.08.06L68,33S67.94,32.86,68,32.81Z" transform="translate(-14.78 -14.22)"/><path class="cls-1" d="M90.89,47.82a12,12,0,0,1-2.38,3.27v-.43a1,1,0,0,0-.86.54,1.22,1.22,0,0,0-.58.22,2.27,2.27,0,0,0-1.15,1,.64.64,0,0,1-.22.13,1,1,0,0,1-.25.07.31.31,0,0,0-.18.09c0,.06-.1.15-.14.17a2,2,0,0,0-1.08.93l.72-.09V54c-.19.17-.51.42-.94.74s-.8.6-1.11.86-.57.63-.76.78-.66.32-1,.55-.69.55-1.12.94-.72.64-.86.75c-.39.24-1.37.94-3,2.09-3.27,2.18-5.1,3.37-5.48,3.53s-1.31.63-2.73,1.33a9.46,9.46,0,0,1-5.69.76.71.71,0,0,1-.58-.16,9.78,9.78,0,0,0-.68-.93,5.5,5.5,0,0,1-.83-1.43,6.62,6.62,0,0,1-.65-3.68c.12-.76.41-1.91.8-3.39A31.38,31.38,0,0,1,64.61,49c.19-.26.53-.66,1-1.19s.81-.93,1-1.19a2,2,0,0,1,2.31-.69,17.37,17.37,0,0,1,1.8,1.23.75.75,0,0,1,0,.61c-.07.22-.18.34-.32.36l-.22,0a2.09,2.09,0,0,0-2.16,1.47,19.14,19.14,0,0,1-1,1.73c-.46.7-.78,1.23-1,1.59a22.69,22.69,0,0,0-2.88,5.42,14,14,0,0,1-.87,2A3.82,3.82,0,0,0,62.16,63c.25.38,1.51.44,2.66,0a19.58,19.58,0,0,0,2.74-1.24,19.29,19.29,0,0,0,2.66-1.31,8.1,8.1,0,0,1,1.23-.76,11,11,0,0,0,1.37-.91c.26-.2,2-1.35,5.11-3.5.38-.24,1-.69,1.91-1.36s1.62-1.17,2.19-1.53a2.66,2.66,0,0,0,1.23-.81,21.56,21.56,0,0,1,2.88-2.24c.48-.3,1.25-.87,2.3-1.67A5.23,5.23,0,0,1,91,46.3c.1,0,.12.13.07.28l-.18.57A.92.92,0,0,0,90.89,47.82Zm-19.15-9a1.24,1.24,0,0,1-1-1.14,1.69,1.69,0,0,1,.72-1.64,4.21,4.21,0,0,1,2.37-1,.45.45,0,0,1,.22.08.4.4,0,0,0,.22.09l.39.38a4.43,4.43,0,0,1,.43.49.82.82,0,0,1,.18.52,5.13,5.13,0,0,1-.07,1.23,8.35,8.35,0,0,1-1.73,1l-.64.08-.47,0A5,5,0,0,1,71.74,38.86Zm16.2,11.37.5-.57a15.5,15.5,0,0,0-3.1,1.7c-.52.4-1.29,1-2.3,1.66s-1.76,1.26-2.23,1.58-.72.52-.72.67a4.78,4.78,0,0,0,1.94-.9c.43-.29,1.33-.93,2.7-1.93S87.17,50.71,87.94,50.23Z" transform="translate(-14.78 -14.22)"/><path class="cls-1" d="M116.88,44.77a.9.9,0,0,1,.5.61.75.75,0,0,1-.14.78c0,.14-.16.22-.43.27a21.13,21.13,0,0,0-3.46,1.69c-.67.37-1.62.89-2.84,1.53S108.46,50.74,108,51a.75.75,0,0,1-.29.19.67.67,0,0,0-.28.18A14.12,14.12,0,0,1,105,52.92a17.25,17.25,0,0,0-2.26,1.31C101.3,55,99.64,55.88,98,57A24.92,24.92,0,0,1,91,60.34,4.09,4.09,0,0,0,90,61a6,6,0,0,1-3.89.15,4.11,4.11,0,0,1-1.87-.84A4.3,4.3,0,0,1,82.68,58a7.53,7.53,0,0,1,0-3.17l.5-1a23.27,23.27,0,0,1,5-7.06,44.29,44.29,0,0,1,6.55-5.69,6.14,6.14,0,0,1,2.6-1.43,9.06,9.06,0,0,1,1.08-.47,11.08,11.08,0,0,0,1.08-.47c1-.8,1.82-1,2.59-.57a.38.38,0,0,0,.29,0,.45.45,0,0,1,.36.09,3.28,3.28,0,0,1,.79.18,5.26,5.26,0,0,1,1.15,1.43,2.23,2.23,0,0,1-.14,2.83l-.76,1.18a9,9,0,0,1-1.08,1.41,5.74,5.74,0,0,1-1.11.83c-.41.31-.61.47-1,.79a16.21,16.21,0,0,1-6.7,3.56,6.84,6.84,0,0,1-2.09.49c-.28,0-.8.07-1.55.1s-1.3.06-1.69.11a1,1,0,0,0-.64.38c-.2.24-.57.8-1.12,1.62s-1,1.51-1.33,2.08a7.44,7.44,0,0,0-.79,1.76c-.21.68,0,1.13.57,1.29a5.74,5.74,0,0,0,2.45-.1c.55-.21,2.3-.59,4.61-1.47a12.7,12.7,0,0,0,2-1c.84-.47,1.4-.78,1.69-.91.86-.5,2.09-1.29,3.67-2.37q.28.26.36.24s.17-.12.36-.33a7,7,0,0,1,1.87-1.41,3.66,3.66,0,0,1,.94-.56c.75-.39,1.94-1.12,3.53-2.06l3.53-2.06a4.85,4.85,0,0,1,1.18-.66,7.69,7.69,0,0,0,.9-.41,17.06,17.06,0,0,0,1.8-1.18,1.56,1.56,0,0,1,2.09.3A4.3,4.3,0,0,0,116.88,44.77ZM89.52,49.3c-.34.38-.48.64-.43.78L90,50a2.37,2.37,0,0,1,.94-.26v.14c.19-.07.54-.18,1-.32s.85-.24,1-.32c1-.47,1.82-.89,2.44-1.26a18.51,18.51,0,0,0,5-3.27,5.18,5.18,0,0,0,1.8-2.4c.15-.17.13-.64.22-1a.82.82,0,0,0-.36-.74c-.24-.21-.43-.09-.58.36-.05.25-.36.39-.86.48a10.32,10.32,0,0,0-4.54,2.05,37.73,37.73,0,0,0-4.68,3.79Z" transform="translate(-14.78 -14.22)"/><path class="cls-1" d="M140.64,39c.09,0,.14.18.14.42a5,5,0,0,1-.57,1.22,26.47,26.47,0,0,1-3.1,2.94A26.89,26.89,0,0,0,134,46.47a4.71,4.71,0,0,1-3.46,1.72,1.15,1.15,0,0,1-1.08-.44,5.59,5.59,0,0,0-.22-.52,1.28,1.28,0,0,1-.14-.45,4.44,4.44,0,0,1-.65-3.44c0-.1-.07-.18-.22-.26a.34.34,0,0,0-.36,0l-1.08.57a9.61,9.61,0,0,0-1.08.64c-.48.35-1.42,1.06-2.84,2.13s-2.57,2-3.46,2.72-1.74,1.52-2.55,2.35l-1.3,1c-.14.16-.36.38-.65.66s-.5.5-.64.66a16.9,16.9,0,0,0-2.45,3s-.53.68-1.44,1.88a29,29,0,0,0-2,2.82,5.56,5.56,0,0,1-.68,1.06,6.12,6.12,0,0,0-.61.91c-.24.47-.55.63-.94.49a1,1,0,0,0-.25-.07.51.51,0,0,1-.18-.09l-.14,0a3.25,3.25,0,0,0-.54-.65,2.49,2.49,0,0,1-.54-.64V60.89a4.77,4.77,0,0,1,.57-1.08q3.31-6.5,3.53-6.89,1.67-3.11,4.1-8.25c1-2.1,1.52-3.35,1.66-3.75a1.69,1.69,0,0,1,1-1,1.31,1.31,0,0,1,1.33,0l1.16.5c.33.48.38.83.14,1.06a8.37,8.37,0,0,0-1,1.94c-.36.86-.62,1.42-.76,1.68-.78,1.51-1.17,2.27-1.94,3.79-.05,0-.08.06-.08.15a.26.26,0,0,0,.08.21l.21,0a67.34,67.34,0,0,1,9.43-7.51c.58-.36,1.46-.87,2.63-1.52s2.08-1.16,2.7-1.53a2.94,2.94,0,0,1,1.91-.41,2.74,2.74,0,0,1,1.62.77l1.15,1.08c.39.44.31,1-.21,1.54a4.26,4.26,0,0,0-.94,1.27,3.28,3.28,0,0,1-.58,1.18,3.51,3.51,0,0,0-.57,1.19,26.09,26.09,0,0,0,4.68-3.15C138.77,40.29,140.21,39.24,140.64,39Z" transform="translate(-14.78 -14.22)"/><path class="cls-1" d="M166.77,36.57q.15.06.15.42a4.55,4.55,0,0,1-.58,1.19A22.5,22.5,0,0,1,163.25,41a23.75,23.75,0,0,0-3.1,2.77,4.5,4.5,0,0,1-3.46,1.59,1.18,1.18,0,0,1-1.08-.48,5.14,5.14,0,0,0-.21-.52,1.26,1.26,0,0,1-.15-.45,4.52,4.52,0,0,1-.64-3.47c0-.1-.08-.19-.22-.27a.37.37,0,0,0-.36,0l-1.08.54a9,9,0,0,0-1.08.6c-.48.34-1.43,1-2.84,2s-2.57,1.91-3.46,2.63-1.74,1.48-2.56,2.29l-1.29,1c-.15.16-.36.38-.65.65s-.5.49-.65.65A17,17,0,0,0,138,53.49l-1.44,1.86a27.14,27.14,0,0,0-1.94,2.79,5.52,5.52,0,0,1-.68,1,5.22,5.22,0,0,0-.62.91c-.24.46-.55.61-.93.47l-.25-.08a.3.3,0,0,1-.18-.08h-.15a2.68,2.68,0,0,0-.54-.65,3.25,3.25,0,0,1-.54-.65V57.46a4.31,4.31,0,0,1,.58-1.08c2.21-4.3,3.38-6.58,3.53-6.84q1.65-3.07,4.1-8.18c1-2.08,1.51-3.32,1.66-3.72a1.66,1.66,0,0,1,1-.94,1.33,1.33,0,0,1,1.33,0l1.15.52c.34.49.39.85.15,1.06a8.13,8.13,0,0,0-1,1.92c-.36.85-.61,1.41-.75,1.66l-2,3.75s-.07.06-.07.15a.25.25,0,0,0,.07.21l.22,0a61.89,61.89,0,0,1,9.43-7.27c.58-.35,1.45-.83,2.63-1.45l2.7-1.44a2.83,2.83,0,0,1,1.91-.35,2.94,2.94,0,0,1,1.62.83l1.15,1.13c.38.45.31,1-.22,1.53a3.72,3.72,0,0,0-.93,1.23,3.32,3.32,0,0,1-.58,1.16,3.25,3.25,0,0,0-.58,1.17,23.94,23.94,0,0,0,4.68-3C164.9,37.77,166.34,36.79,166.77,36.57Z" transform="translate(-14.78 -14.22)"/><path class="cls-1" d="M193.34,38.38a1.06,1.06,0,0,1,.5.68.71.71,0,0,1-.14.76c0,.14-.16.2-.43.21a18.4,18.4,0,0,0-3.46,1.25c-.67.3-1.62.69-2.84,1.2s-2.05.86-2.49,1.06a.68.68,0,0,1-.28.16.75.75,0,0,0-.29.15,12,12,0,0,1-2.49,1.3,14.83,14.83,0,0,0-2.26,1.1c-1.4.63-3.06,1.37-4.68,2.3a24.38,24.38,0,0,1-7.06,2.88,3.39,3.39,0,0,0-1,.57,6.13,6.13,0,0,1-3.89-.07,4.46,4.46,0,0,1-1.87-.93,4.57,4.57,0,0,1-1.51-2.32,7.53,7.53,0,0,1,0-3.17l.5-1a21.47,21.47,0,0,1,5-6.81,38.82,38.82,0,0,1,6.56-5.26,5.53,5.53,0,0,1,2.59-1.23c.24-.1.6-.23,1.08-.38a10.61,10.61,0,0,0,1.08-.37,2.14,2.14,0,0,1,2.59-.34.37.37,0,0,0,.29.06.52.52,0,0,1,.36.13,3.36,3.36,0,0,1,.79.26,6,6,0,0,1,1.15,1.54,2.19,2.19,0,0,1-.14,2.81l-.76,1.11a7.35,7.35,0,0,1-1.08,1.3,4.75,4.75,0,0,1-1.11.73l-1,.7a15.11,15.11,0,0,1-6.7,3,6.45,6.45,0,0,1-2.09.35c-.28,0-.8,0-1.54,0s-1.31,0-1.7,0a.91.91,0,0,0-.64.34c-.2.23-.57.77-1.12,1.56s-1,1.46-1.33,2a7.18,7.18,0,0,0-.79,1.72c-.21.67,0,1.13.57,1.32a5.94,5.94,0,0,0,2.45,0c.55-.19,2.3-.46,4.61-1.19a12.15,12.15,0,0,0,2-.81c.84-.41,1.4-.67,1.69-.78.86-.43,2.09-1.13,3.67-2.07q.28.28.36.27s.17-.1.36-.3A6.07,6.07,0,0,1,178.72,43a3.44,3.44,0,0,1,.94-.47c.75-.31,1.94-.94,3.53-1.7s2.76-1.33,3.53-1.68a4.1,4.1,0,0,1,1.18-.52,8.15,8.15,0,0,0,.9-.31,14.09,14.09,0,0,0,1.8-1,1.68,1.68,0,0,1,2.09.57A4.79,4.79,0,0,0,193.34,38.38ZM166,40.29c-.34.36-.48.61-.43.76l.86-.07a2.2,2.2,0,0,1,.94-.2v.14c.19-.06.54-.15,1-.25s.85-.19,1.05-.25c1-.4,1.82-.76,2.44-1.08a17.43,17.43,0,0,0,5-2.86,4.57,4.57,0,0,0,1.8-2.24c.15-.15.13-.62.22-1a.87.87,0,0,0-.36-.77c-.24-.23-.43-.13-.58.31,0,.24-.35.35-.86.4a9.29,9.29,0,0,0-4.54,1.67,31.69,31.69,0,0,0-4.68,3.46Z" transform="translate(-14.78 -14.22)"/></svg>