<?xml version="1.0" encoding="utf-8"?>
<!-- Generator: Adobe Illustrator 16.0.0, SVG Export Plug-In . SVG Version: 6.00 Build 0)  -->
<!DOCTYPE svg PUBLIC "-//W3C//DTD SVG 1.1//EN" "http://www.w3.org/Graphics/SVG/1.1/DTD/svg11.dtd">
<svg version="1.1" id="圖層_1" xmlns="http://www.w3.org/2000/svg" xmlns:xlink="http://www.w3.org/1999/xlink" x="0px" y="0px"
	 width="200px" height="140px" viewBox="0 0 200 140" enable-background="new 0 0 200 140" xml:space="preserve">
<g>
	<g>
		<path fill="#FFFFFF" d="M63,81.261c0-0.224,0-0.336,0-0.56c0,0.051,0,0.076,0,0.126c0-0.16,0-0.241,0-0.401
			c-1,0.05-1,0.076-1,0.125c0-0.128,0-0.193,0-0.321c0,0.046-0.455,0.027-0.455,0.429C61.727,80.615,62,80.594,62,80.551
			c0,0.16,0,0.238,0,0.398c0-0.049,0.382-0.072,0.59-0.122c-0.13,0.353-0.228,0.539-0.486,0.765
			c-0.151,0.132-0.373,0.334-0.438,0.43c-0.194,0.285-0.579,0.377-0.579,0.699c0.521-0.122,0.787-0.183,1.307-0.309
			c-0.911,1.101-2.479,2.166-2.535,2.129c-0.023-0.016,0.196-0.609,0.196-0.609c-0.012-0.016-0.405,0.254-0.584,0.377
			c-0.035,0.024-0.129,0.271-0.129,0.271c0.002,0.004,0.129,0.049,0.259,0.019c0.078-0.018,0.117-0.026,0.195-0.045
			c-0.195,0.449-0.349,0.743-0.454,0.997c-0.212,0.512-1.041,0.571-1.106,0.414c-0.041-0.1,0.231-0.396,0.26-0.626
			c0.009-0.07-0.019-0.225-0.066-0.229c-0.098-0.008-0.098-0.036-0.098-0.036C57.878,85.742,57,86.247,57,86.688
			c0,0.064,0,0.098,0,0.162c0-0.015,0.099,0.038,0.164,0.023c0.195-0.043,0.332-0.197,0.471-0.439c0.16-0.279,0.627-0.47,0.627-0.47
			c0.071,0.088-0.558,1.091-1.378,1.44c-0.05,0.021-0.182,0.03-0.266,0.137c-0.357,0.449-0.786,1.068-1.436,1.289
			c-0.208,0.24-0.313,0.358-0.521,0.599c-0.39,0.328-0.651,0.71-1.171,0.816c-0.26,0.054-0.63,0.357-0.848,0.502
			c-0.754,0.5-1.669,1.124-2.536,1.562c-0.726,0.366-1.757,0.486-2.732,0.649c-0.988,0.166-1.481,0.243-2.47,0.391
			c-0.195,0.029-0.326-0.285-0.326-0.285c-0.077-0.016-0.543,1.242-0.715,1.864c-0.276,1.003-0.731,2.317-1.106,3.438
			c-0.219,0.655-0.425,1.469-0.65,2.203c-0.209,0.687-0.573,1.457-0.716,2.128c-0.085,0.4-0.25,0.813-0.325,1.145
			c-0.213,0.938-0.821,1.793-0.91,2.67c-0.038,0.379-0.247,0.786-0.39,0.905c-0.32,0.268-0.252,1.17-0.456,1.505
			c-0.224,0.368-0.455,0.828-0.455,1.339c0,0.255-0.13,0.362-0.261,0.632c-0.443,0.91-0.688,2.071-1.17,2.889
			c-0.054,0.092-0.041,0.358-0.065,0.435c-0.054,0.171-0.122,0.585-0.197,0.625c-0.226,0.12-0.247,0.563-0.323,0.896
			c-0.158,0.688-0.197,1.397-0.652,2.058c-0.195,0.284-0.296,0.905-0.454,1.261c-0.216,0.488-0.466,1.178-0.717,1.638
			c-0.197,0.361-0.473,0.41-0.651,0.342c-0.563-0.216-1.041-0.819-1.496-1.46c-0.156-0.328-0.233-0.493-0.389-0.822
			c0-0.863-0.43-1.738-0.281-2.394c0.26-1.143,0.8-2.623,1.8-4.06c0,1.204,0,1.807,0,3.011c0,0.065,0.061,0.099,0.087,0.164
			c0.078-0.009,0.128-0.011,0.206-0.02c0.195-0.364,0.459-0.741,0.655-1.278c0,0-0.051-0.251,0.003-0.34
			c0.12-0.195,0.127-0.869,0.262-0.976c0.122-0.096,0.451-0.571,0.52-0.917c0.242-1.219,0.847-2.496,1.107-3.637
			c0.052-0.45,0.077-0.679,0.129-1.129c0-0.256,0.455-0.66,0.483-0.896c0.045-0.373,0.548-0.714,0.548-1.078
			c0-0.034,0-0.052,0-0.086c0-0.86,0.44-1.688,0.558-2.203c0.156-0.684,0.462-1.618,0.67-2.384c0.117-0.434,0.366-0.827,0.496-1.165
			c0.085-0.22,0.183-0.532,0.183-0.617c0.572-2.036,0.854-3.054,1.426-5.083c0.325-1.392,0.115-1.374-0.459-1.978
			c-0.065-0.069-0.196-0.064-0.261-0.058c-0.546-0.651-0.822-0.976-1.368-1.638c0-0.171,0.002-0.255,0.067-0.346
			c0,0,0.129-0.185,0.194-0.19c0.26-0.024,1.364,0.71,1.689,1.012c-0.286,0.032-0.429,0.049-0.715,0.079
			c0,0.254,0.131,0.323,0.326,0.302c0.156-0.017,0.233-0.025,0.39-0.043c0.13,0.323,0.196,0.316,0.391,0.294
			c0.065-0.008,0.32-0.034,0.39-0.13c0.161-0.219,0.409-0.733,0.52-1.242c0.219-0.999,0.589-2.104,0.781-3.124
			c0.31-1.643,0.856-3.956,1.364-5.367c0.2-0.556,0.391-1.468,0.65-2.168c0.26-0.7,0.359-1.564,0.521-2.236
			c0.296-1.225,0.723-2.676,0.975-3.949c0.2-1.015,0.451-1.892,0.651-2.821c0.312-1.442,0.448-2.723,0.78-3.993
			c0.378-1.446,0.831-2.85,1.042-4.339c0.118-0.833,0.323-1.437,1.429-1.475c0.13-0.014,0.197-0.022,0.328-0.037
			c1.105,0.29,1.361,0.634,1.299,1.823c-0.004,0.078,0.073,0.341,0,0.494c-0.203,0.425-0.258,0.938-0.258,1.349
			c0,0.247-0.14,0.513-0.196,0.601c-0.203,0.322-0.315,0.642-0.391,0.957c-0.12,0.502-0.365,1.224-0.455,1.871
			c-0.099,0.708-0.475,1.379-0.585,2.057c-0.033,0.205-0.167,0.453-0.194,0.603c-0.133,0.734-0.211,1.806-0.522,2.551
			c-0.141,0.337-0.377,0.893-0.389,1.212c-0.032,0.889-0.524,1.932-0.65,2.739c-0.109,0.697-0.431,1.581-0.456,2.22
			c-0.031,0.809-0.456,1.474-0.521,2.231c-0.208,0.694-0.312,1.045-0.52,1.74c-0.26,0.953-0.497,1.939-0.715,2.85
			c-0.223,0.931-0.448,1.917-0.846,2.877c-0.139,0.334-0.183,0.884-0.259,1.206c-0.121,0.512,0.199,0.678,0.52,0.511
			c0.429-0.223,0.909-0.388,1.364-0.293c0,0,0.147,0.043,0.131,0.063c-0.03,0.035-0.195,0.114-0.195,0.114
			c-0.104,0.149-0.157,0.224-0.261,0.373c0.846,0.034,1.692-0.444,2.407-0.895c1.098-0.691,2.096-1.689,3.122-2.303
			c0.583-0.349,1.042-0.543,1.497-0.946c1.199-1.065,3.366-2.275,3.772-3.385c0.037-0.101,0.064-0.258,0.13-0.271
			c0.65-0.14,1.064-0.869,1.497-1.214c0.517-0.411,0.958-0.966,1.3-1.421c0.301-0.399,0.63-0.165,0.651-0.148
			c0.014,0.011,0.056,0.3,0.064,0.307c0.068,0.055,0.607-0.571,0.78-0.741c0.184-0.18,0.781-0.583,1.041-1.204
			c-0.104,0.024-0.158,0.036-0.262,0.061c-0.065-0.145-0.194-0.115-0.194-0.195c0,0,0.04-0.108,0.104-0.123
			C62.932,77.862,63,77.849,63,77.824c0,0.128,0,0.192,0,0.32c0-0.03,0.278-0.316,0.35-0.38c0.079-0.07,0.496-0.306,0.696-0.554
			c0.164-0.203,0.672-0.475,0.672-0.475c0.018,0.022-0.316,0.55-0.379,0.65c-0.097,0.155-0.19,0.525-0.19,0.525
			c0.005,0.008,0.13,0.172,0.12,0.193C64.262,78.119,64,78.12,64,78.231c0-0.128,0-0.191,0-0.319c0,0.078-0.508,0.381-0.703,0.746
			c0.026-0.006-0.11-0.01-0.084-0.016C63.188,78.681,63,78.699,63,78.737c0-0.032,0-0.047,0-0.079c0,0.096,0,0.204,0,0.364
			c0,0.032,0,0.049,0,0.081c0-0.019,0.208-0.028,0.286-0.047c0,0,0.109,0.146,0.109,0.225c0.183-0.044,0.294-0.066,0.477-0.11
			c-0.065,0.255-0.182,0.528-0.312,0.719c-0.156,0.325-0.229,0.486-0.386,0.812c0.26-0.223,0.68-0.5,0.914-0.62
			c0.045-0.023,0.268,0.02,0.261,0.097c-0.005,0.059-0.095,0.254-0.194,0.365c-0.067,0.075-0.22,0.113-0.415,0.161
			C63.479,80.928,63,81.038,63,81.261z M79.309,52.034c0.08-0.297,0.064-0.782,0.064-1.165c-0.026-0.055-0.039-0.082-0.064-0.137
			c0,0-0.173,0.177-0.195,0.199c-0.088,0.086-0.207,0.597-0.194,0.813c0.062,1.059-0.136,2.638-0.325,3.298
			c-0.124,0.434-0.473,1.714-0.457,1.724c0.047,0.029,0.25-0.652,0.457-0.803c0.315-0.23,0.194-0.585,0.064-0.937
			c0.156-0.039,0.234-0.058,0.391-0.097c0.13-0.032,0.492-0.162,0.521,0.101c0.015,0.135-0.182,0.415-0.261,0.525
			c-0.074,0.104-0.215,0.19-0.251,0.278C78.992,55.997,79,56.158,79,56.294c0,0.092,0,0.136,0,0.228c-1,0.471-1,1.468-1,1.847
			c0-0.185,0-0.276,0-0.46c0-0.373,0.229-1.118,0.199-1.142c-0.034-0.026-0.549,0.361-0.549,0.361
			c-0.026-0.012-0.04-0.844,0.114-1.109c0.261-0.451,0.437-1.667,0.383-1.709c-0.022-0.018-0.18,0.072-0.199,0.202
			c-0.225,1.537-1.629,3.45-2.083,4.979c-0.086,0.289-0.227,0.679-0.327,0.933c-0.261,0.659-0.91,1.387-1.17,2.228
			s-0.6,1.313-1.106,1.91c-0.326,0.384-0.612,0.99-0.976,1.412c-0.067,0.078-0.088,0.544-0.065,0.562
			c0.011,0.009,0.13,0.045,0.13,0.045c0.018,0.021-0.13,0.033-0.13-0.045c-0.26,0.315-0.39,0.474-0.65,0.789
			c-0.195,0.283,0.098,0.259,0.195,0.263c0.048,0.002,0.132,0.185,0.131,0.202c-0.001,0.044-0.284,0.361-0.261,0.379
			c0.034,0.026,0.211-0.314,0.261-0.379c0.032-0.041,0.194-0.127,0.194-0.127c0.846-0.995,1.43-2.157,2.015-3.16
			c0.738-1.265,1.447-2.696,1.951-4.132c0.264-0.752,0.579-1.533,0.976-2.173c0.203-0.327,0.587-1.069,0.587-1.069
			c0.06,0.023-0.17,1.119-0.39,1.483c-0.479,0.796-0.813,1.825-1.173,2.608c-0.538,1.168-1.103,2.455-1.69,3.449
			c-1.729,2.925-3.447,5.711-5.333,8.393c-1.067,1.436-1.599,2.155-2.666,3.594c-0.39,0.573-0.912,1.021-1.302,1.594
			c-0.065,0.096-0.259,0.063-0.324,0.078c0.104-0.248,0.154-0.372,0.258-0.62c-0.13-0.127-0.194-0.112-0.194-0.191
			c0,0,0.065-0.096,0.195-0.127c0,0.127-0.001,0.191-0.001,0.318c0.065-0.016,0.198-0.206,0.198-0.365
			c-0.078,0.02-0.119,0.027-0.197,0.047c0.065-0.175-0.054-0.316-0.031-0.445C64.996,76.792,65,76.595,65,76.563
			c0-0.127,0-0.191,0-0.318c0,0.044,0.096,0.068-0.086,0.112C64.979,75.943,65,75.72,66,75.625c0,0.095,0,0.144,0,0.238
			c0-0.095,0.054-0.126,0.119-0.301c-0.104,0.025-0.217,0.037-0.321,0.063C65.902,75.473,66,75.397,66,75.245
			c0,0.127,0,0.19,0,0.317c0-0.051,0-0.076,0-0.128c0,0.095,0,0.143,0,0.237c1-0.049,0.192-0.127,0.258-0.302
			C66.153,75.396,67,75.409,66,75.435c0-0.127,0-0.189,0-0.316c0,0.051-0.063,0.076-0.271,0.127
			c0.104-0.279,0.279-0.419,0.383-0.698c-0.195,0.048-0.265,0.205-0.457,0.365c-0.315,0.262-0.946,0.869-0.946,0.869
			c-0.009-0.004-0.008-0.376,0.081-0.573c0.118-0.26,0.4-0.587,0.528-0.68c0.743-0.538,1.175-1.41,1.827-2.183
			c0.253-0.3,0.449-0.693,0.652-1.026c0.226-0.371,1.301-1.657,1.691-1.989c0.026-0.006,0.039-0.009,0.065-0.015
			c0-0.393,0.193-0.768,0.391-0.961c0.135-0.131,0.456,0.021,0.455,0.123c-0.001,0.103-0.246,0.256-0.195,0.285
			c0.018,0.01,0.065-0.096,0.195-0.285c0.13-0.158,0.197-0.237,0.327-0.395c0.455-1.053,1.112-2.34,1.624-2.982
			c0.355-0.446,0.933-1.46,1.042-1.818c0.119-0.39,0.389-1.263,0.714-1.886s0.584-1.079,0.846-1.681
			c0.83-1.905,1.594-3.791,2.278-5.724c0.59-1.667,1.169-3.506,1.169-5.424c0-0.153,0.019-0.465,0.065-0.552
			c0.224-0.417,0.116-0.888,0.13-1.409c0.032-1.134-0.03-2.567-0.196-3.564c-0.147-0.887-0.259-2.016-0.78-2.833
			c-0.13-0.204-0.253-0.431-0.326-0.549c-0.424-0.689-0.967-1.699-1.496-2.488c-1.086-1.619-3.058-1.848-4.619-2.692
			c-0.182,0.029-0.271,0.043-0.453,0.072c-0.26,0.042-0.477-0.15-0.587-0.536c-0.076-0.266-0.561-0.204-0.586-0.225
			c-0.014-0.012-0.13-0.059-0.13-0.059c0.004,0.006,0.13,0.059,0.13,0.059c0.004,0.007-0.13,0.334-0.13,0.334
			c-0.585-0.304-1.17-0.14-1.821-0.047c-0.442,0.063-0.662,0.094-1.104,0.155c-0.065,0.009-0.185-0.282-0.261-0.28
			c-0.121,0.003-0.468,0.123-0.598,0.299C65.04,34.238,65,34.23,64,34.21c0-0.064,0-0.096,0-0.16c0-0.343,0.142-0.398-0.053-0.374
			c-0.676,0.084-0.943,0.124-1.619,0.202c-0.13,0.015-0.225,0.271-0.225,0.271c0,0.001,1.059-0.042,1.709-0.122
			c0.025,0.092,0.047,0.14,0.073,0.232c0,0.08-0.11,0.363-0.191,0.343c-0.296-0.073-0.883,0.146-1.428,0.172
			c-0.426,0.021-0.806,0.167-1.171,0.455c-0.323,0.254-1.012,0.376-1.373,0.451C59.608,35.704,60,35.633,59,35.411
			c0-0.097,0-0.146,0-0.243c1-0.026,0.682-0.096,0.854-0.147c0.051-0.015,0.298-0.263,0.298-0.263
			c-0.006-0.014-0.86,0.013-1.25,0.133l-0.17,0.261c0.005,0.022,0.298,0.359,0.208,0.546c-0.114,0.238-0.359,0.297-0.514,0.296
			c-0.118,0-0.296,0.405-0.452,0.448c-0.575,0.158-1.28,0.345-1.819,0.653c-0.573,0.327-1.171,0.753-1.886,0.808
			c-0.026,0.002-0.039,0.004-0.064,0.006c-0.456,0.607-1.104,0.736-1.625,1.019c-0.208,0.146-0.312,0.219-0.52,0.364
			c-0.91,0.964-1.986,1.593-2.796,2.145c-0.303,0.206-0.824,0.557-1.106,0.967c-0.287,0.417-0.804,0.777-1.236,1.051
			c-1.157,0.733-2.06,2.073-2.992,2.855c-0.195,0.164-0.332,0.432-0.39,0.513c-0.097,0.137-0.129,0.36-0.261,0.511
			c-0.45,0.513-1.223,1.159-1.625,1.881c-0.152,0.272-0.455,0.682-0.715,0.938c-0.26,0.257-0.451,0.434-0.521,0.936
			c-0.059,0.42-0.386,0.978-0.649,1.276c-0.225,0.255-0.327,0.82-0.585,0.936c-0.357,0.16-0.198,0.955-0.586,1.277
			c-0.31,0.257-0.39,0.979-0.519,1.361c-0.023,0.069-0.283,0.354-0.327,0.34c-0.319-0.096-0.426,0.069-0.326,0.341
			c0.114,0.309,0.136,0.612,0.001,0.853c-0.152,0.273-0.326,0.51-0.326,0.937c0,0.342-0.2,0.593-0.389,0.769
			c-0.13,0.122-0.326,0.512-0.326,0.854c0,0.599-0.378,1.241-0.26,1.539c0.11,0.277-0.041,0.773,0.13,1.198
			c0.127,0.316-0.213,0.757-0.132,1.199c0.025,0.138-0.27,0.477-0.324,0.771c-0.025,0.138,0.049,0.511,0.13,0.598
			c0.207,0.22-0.062,0.531-0.196,0.773c-0.076,0.138-0.063,0.343,0.066,0.514s0.23,0.301,0.193,0.599
			c-0.029,0.231,0.022,0.624,0,0.856c-0.029,0.315-0.116,0.697-0.26,0.944c-0.291,0.501-0.083,1.19,0.001,1.712
			c0.023,0.143,0.05,0.436,0.001,0.769c-0.085,0.574,0.007,1.136-0.076,1.292C35.581,72.943,35,72.975,35,73.064
			c0-0.274,0-0.413,0-0.688c0-0.086-0.031-0.084-0.031-0.256c0,0,0.031,0.174,0.031,0.26c0,0.344,0,0.516,0,0.859
			c-1,0.089-0.861,0.438-0.87,0.434c-0.035-0.022-0.03-0.471,0.021-0.688c0.107-0.451-0.358-1.357-0.185-2.064
			c0.14-0.57,0.032-1.431-0.027-1.98c-0.024-0.229-0.051-0.542-0.08-0.775c-0.009-0.075-0.068-0.351-0.028-0.43
			C34.169,67.082,34,66.103,34,65.244c0-0.481,0-0.723,0-1.204c0-0.034,0.062-0.052,0.088-0.086c0.078,0.07,0.127,0.106,0.205,0.176
			c0,0.258,0.175,0.628,0.264,0.776c0.021,0.036,0.197,0.088,0.197,0.088c-0.006-0.012-0.193-0.088-0.193-0.088
			c0-0.257,0.035-0.392,0.067-0.515c0.075-0.283,0.132-0.852-0.131-0.947c-0.083-0.03-0.377-0.087-0.377-0.259
			c0-0.602-0.12-1.034-0.12-1.634c0-0.034,0-0.051,0-0.085c0-0.169,0.379-0.256,0.444-0.255c0,0,0.197,0.106,0.211,0.261
			C34.686,61.789,35,62.246,35,62.763c0-0.446,0-0.669,0-1.115c0-0.085,0.074-0.342,0.074-0.342c0.65-0.335,0.462-1.024,0.462-1.624
			c0-0.514,0.463-0.857,0.463-1.108c0-0.171,0-0.256,0-0.428c0-0.172-0.21-0.333-0.067-0.515c0.128-0.164,0.335-0.599,0.517-0.935
			c0.133-0.245,0.05-0.622,0.131-0.768c0.136-0.247,0.101-0.854,0.325-1.106c0.197-0.222,0.193-0.594,0.193-0.936
			c0-0.086,0.001-0.288,0.065-0.341c0.438-0.365,0.456-1.446,0.911-2.037c0.104-0.067,0.157-0.1,0.261-0.167
			c0.195-0.85,0.606-1.491,0.91-2.033c0.134-0.239,0.383-0.458,0.521-0.677c0.675-1.065,1.425-2.411,2.275-3.303
			c0.567-0.595,1.366-1.194,1.887-2.042c0.078-0.136,0.116-0.203,0.194-0.339c0.065-0.085,0.354-0.085,0.456-0.174
			c0.967-0.843,2.261-1.964,3.122-2.762c0.454-0.421,0.975-0.626,1.431-1.137c0.385-0.431,1.002-0.733,1.432-0.979
			c0.574-0.329,1.365-0.732,2.016-1.102c1.626-0.924,3.127-1.701,4.878-2.41c0.775-0.314,1.771-0.623,2.472-0.798
			c0.163-0.041,0.347,0.083,0.391,0.201c0.019,0.049-0.001,0.322,0.194,0.061c0,0-0.193-0.06-0.194-0.061
			c-0.016-0.021,0.205-0.335,0.259-0.349c0.467-0.118,1.247-0.251,1.692-0.424c0.091-0.035,0.345,0.08,0.389,0.196
			c0.019,0.048,0.195,0.058,0.195,0.058c-0.005-0.009-0.188-0.014-0.195-0.058c-0.015-0.084,0.195-0.423,0.26-0.43
			c1.691-0.195,2.538-0.302,4.229-0.532c0.521,0.325,1.105,0.084,1.626,0.246c0.598,0.166,0.896,0.247,1.495,0.407
			c1.041,0.155,1.981,0.762,2.797,0.959c0.612,0.148,1.202,0.512,1.562,0.897c0.463,0.495,1.067,1.226,1.495,1.817
			c0.09,0.125,0.308-0.197,0.456-0.239c0.156-0.044,0.558,0.879,0.714,1.096c0.15,0.208,0.846,0.525,0.846,1.293
			c0,0.845,0.657,1.387,0.78,1.835c0.03,0.108,0.194,0.112,0.194,0.112c0.521-0.262,0.263,0.351,0.456,0.518
			c0.351,0.303,0.511,0.978,0.715,1.45c0.059,0.136,0.29,0.372,0.227,0.596C80.326,43.896,80,44.684,81,45.373
			c0,0.305,0,0.458,0,0.763c0,0.595-0.129,1.25-0.098,1.891c0.018,0.363-0.278,0.732-0.343,1.206l0.155,0.03
			c0.005,0.009-0.208-0.024-0.216-0.03c-0.045-0.036-0.292,0.578-0.27,0.596c0.011,0.009,0.116,0.039,0.124,0.044
			c0.022,0.018,0.323,0.076,0.323,0.076c0.065,0.137-0.056,0.359-0.195,0.429c-0.117,0.059-0.197,0.276-0.262,0.368
			c-0.13,0.184-0.26,0.292-0.26,0.292c0.065,0.596-0.432,1.56-0.326,1.683c0.044,0.052,0.348,0.207,0.196,0.336
			c-0.257,0.219-0.52,0.663-0.26,1.058c-0.026,0.037-0.041,0.056-0.066,0.093c-0.13,0.032-0.179,0.024-0.194-0.028
			c-0.097-0.323,0.065-0.799,0.195-1.119c0.018-0.044,0.133-0.328,0.13-0.339C79.617,52.667,79.16,52.591,79.309,52.034z
			 M34.497,118.525c-0.052-0.063-0.077-0.095-0.129-0.157c0,0.103,0,0.155,0,0.258C34.368,118.541,34.497,118.525,34.497,118.525z
			 M34.628,66.624c-0.026,0-0.041,0.001-0.066,0.001c0.026,0.069,0.04,0.102,0.065,0.171C34.627,66.727,34.628,66.692,34.628,66.624
			z M34.953,59.329c-0.01,0.003-0.13-0.26-0.13-0.346l0.129-0.169c0.003,0,0.065,0.259,0.065,0.259
			C35.018,59.158,34.953,59.329,34.953,59.329z M34.953,117.183c0-0.068,0-0.104,0-0.173c-0.052,0.075-0.078,0.114-0.13,0.189
			C34.875,117.193,34.901,117.189,34.953,117.183z M35.278,115.939c-0.195,0.023-0.224,0.146-0.195,0.369
			c0.01,0.074,0.001,0.085,0.131,0.069c0,0,0.064-0.007,0.064-0.093C35.279,116.147,35.278,116.077,35.278,115.939z M35.215,58.133
			l0.064,0.087l-0.064,0.169C35.085,58.216,35.085,58.131,35.215,58.133z M42.953,92.952c-0.016-0.014-0.042-0.22-0.132-0.235
			c-0.101-0.018-0.506,0.081-0.52,0.32c-0.031,0.568-0.354,1.235-0.52,1.669c-0.284,0.742-0.707,1.769-0.716,2.034
			c-0.008,0.227-0.011,1.019-0.194,1.378c-0.266,0.522-0.457,0.988-0.457,1.75c0,0.34-0.059,0.734-0.259,0.967
			c-0.418,0.485-0.521,1.337-0.716,2.041c-0.234,0.743-0.35,1.115-0.584,1.859c-0.781,2.226-1.497,4.275-2.147,6.491
			c-0.026,0.003-0.04,0.006-0.066,0.009c0,0.343-0.098,0.608-0.259,0.801c-0.267,0.318,0.001,0.859,0,1.027
			c-0.003,0.518-0.91,1.911-1.105,2.706c0.052-0.006,0.078-0.01,0.13-0.017c0.521-0.749,0.914-1.705,0.975-2.689
			c0.005-0.079,0.065-0.093,0.065-0.093c0.455-1.256,1.004-2.534,1.366-3.764c0.204-0.691,0.474-1.344,0.715-1.965
			c0.27-0.693,0.627-1.423,0.714-2.132c0.045-0.371,0.243-0.981,0.391-1.41c0.465-1.347,0.998-2.939,1.43-4.425
			c0.603-2.075,1.11-5.599,1.888-6.238C42.977,93.018,42.961,92.96,42.953,92.952z M35.667,56.598c0-0.068,0-0.103,0-0.171
			c0.026,0,0.042,0,0.067,0.001c0,0.068-0.002,0.103-0.002,0.171C35.708,56.599,35.693,56.599,35.667,56.598z M36.123,54.809
			c-0.072-0.074,0.13-0.682,0.326-0.679c0.13,0.002,0.13,0.003,0.13,0.089c0,0.256-0.196,0.68-0.391,0.677
			C36.188,54.896,36.134,54.82,36.123,54.809z M36.449,111.174c0.052,0.027,0.078,0.042,0.13,0.069
			C36.579,111.158,36.579,110.987,36.449,111.174z M36.709,53.623l-0.066-0.087c0-0.171,0.066-0.169,0.066-0.169
			s0.131,0.002,0.131,0.173L36.709,53.623z M37.164,52.092c0-0.085,0.083-0.203,0.129-0.339c0.019-0.055,0.065-0.084,0.131-0.083
			c0.052,0.035,0.078,0.054,0.13,0.088c-0.104,0.203-0.157,0.305-0.261,0.508C37.164,52.264,37.164,52.092,37.164,52.092z
			 M38.011,50.571c0-0.068-0.001-0.103-0.001-0.171c0.065,0.001,0.065,0.086,0.065,0.086S38.011,50.485,38.011,50.571z
			 M38.335,109.484c0-0.085-0.066-0.078-0.196,0.024c0.052,0.061,0.078,0.093,0.13,0.153
			C38.27,109.662,38.335,109.654,38.335,109.484z M38.595,51.426c-0.005-0.008-0.13-0.085-0.13-0.085S38.599,51.433,38.595,51.426z
			 M38.595,108.852c0-0.085-0.065-0.076-0.065-0.076c-0.065,0.009-0.065,0.093,0,0.084
			C38.556,108.855,38.569,108.855,38.595,108.852z M38.792,49.217c0,0-0.066-0.001-0.066-0.171c0.052,0,0.079,0.001,0.131,0.002
			C38.856,49.218,38.792,49.217,38.792,49.217z M39.311,106.29c-0.026,0.004-0.04,0.004-0.065,0.008c0,0.067,0,0.104,0,0.171
			C39.271,106.397,39.285,106.361,39.311,106.29z M40.026,47.19c0,0,0-0.084-0.065-0.085c0.078,0,0.117,0,0.195,0
			C40.156,47.19,40.026,47.19,40.026,47.19z M40.611,46.514c-0.195-0.254,0.064-0.253,0.064-0.253
			C40.68,46.262,40.611,46.514,40.611,46.514z M40.807,46.261c-0.053-0.053,0.13-0.339,0.13-0.339
			C40.949,45.927,40.817,46.272,40.807,46.261z M40.937,45.922c-0.002-0.006,0.238-0.276,0.26-0.254
			C41.231,45.703,40.937,45.922,40.937,45.922z M41.196,100.781l-0.064-0.076c0,0-0.066,0.18-0.066,0.347
			c0,0.085,0.066,0.075,0.066,0.075C41.132,101.042,41.196,100.866,41.196,100.781z M41.196,45.584
			c-0.035-0.035,0.293-0.287,0.326-0.254C41.539,45.348,41.228,45.617,41.196,45.584z M41.196,90.806c0-0.136,0-0.202,0-0.338
			c0.13-0.015,0.195-0.022,0.325-0.037c0.052,0.096,0.08,0.145,0.132,0.239c-0.065,0.008-0.065,0.092-0.131,0.1
			C41.392,90.784,41.326,90.791,41.196,90.806z M41.521,99.807c-0.052-0.026-0.078-0.043-0.13-0.069
			c-0.065,0.094-0.063,0.178-0.063,0.348c0.026-0.004,0.037-0.003,0.063-0.007C41.391,99.908,41.392,99.909,41.521,99.807z
			 M42.042,45.242c-0.208,0.001-0.312,0.003-0.52,0.003c0.065-0.422,0.26-0.507,0.52-0.592
			C42.042,44.89,42.042,45.006,42.042,45.242z M41.652,98.945c-0.026,0.004-0.039,0.005-0.064,0.009c0,0.067,0,0.101,0,0.168
			C41.653,99.113,41.652,99.113,41.652,98.945z M42.042,44.653c-0.003,0,0.066-0.254,0.066-0.254
			C42.303,44.652,42.042,44.653,42.042,44.653z M42.692,44.143c0-0.084-0.129-0.083-0.129-0.251c0-0.084,0.173-0.154,0.195-0.169
			c0.065-0.045,0.195-0.002,0.195,0.082c0,0.034,0,0.051,0,0.084C42.849,43.99,42.796,44.041,42.692,44.143z M42.692,95.766
			c-0.052,0.007-0.076,0.012-0.128,0.019c0,0.169,0.128,0.149,0.128,0.149C42.692,95.866,42.692,95.833,42.692,95.766z
			 M43.473,91.118c0.019-0.021-0.032-0.065-0.063-0.077c-0.098-0.037-0.262-0.133-0.457,0.061c-0.052,0.007-0.078,0.01-0.13,0.017
			c0.13,0.066,0.194,0.228,0.389,0.202C43.277,91.312,43.46,91.133,43.473,91.118z M43.279,93.918
			c-0.006-0.008-0.067,0.261-0.067,0.261C43.217,94.177,43.281,93.92,43.279,93.918z M45.099,85.032
			c0.202-0.936,0.516-1.829,0.65-2.926c0.125-1.015,0.481-1.975,0.78-2.938c0.105-0.337,0.197-0.859,0.392-1.218
			c0-0.134-0.001-0.199-0.001-0.333c0-0.167-0.13-0.233-0.13-0.317c-0.052,0.073-0.078,0.11-0.13,0.184
			c-0.325,1.208-0.726,2.459-1.041,3.636c-0.151,0.565-0.477,1.243-0.521,1.653c-0.11,1.042-0.542,2.007-0.65,2.93
			c-0.078,0.663-0.325,1.299-0.52,1.911c-0.312,1.047-0.47,1.572-0.782,2.621c0,0.337,0.065,0.328,0.13,0.319
			c0.26-0.033,0.495-0.082,0.585-0.413C44.302,88.525,44.729,86.742,45.099,85.032z M43.343,93.91
			c0.005,0.002,0.13-0.019,0.065-0.177L43.343,93.91z M43.993,42.948c0-0.034,0-0.049,0-0.083l-0.129-0.081
			c-0.01-0.019,0.129-0.002,0.129,0.081c0.052-0.001,0.078-0.001,0.13-0.002C44.07,42.897,44.045,42.914,43.993,42.948z
			 M44.318,44.035c-0.078,0.001-0.117,0.001-0.195,0.003c0,0.083,0.064,0.083,0.064,0.083S44.318,44.119,44.318,44.035z
			 M44.318,90.333c-0.052-0.026-0.078-0.042-0.13-0.068c0,0.067,0,0.101,0,0.168C44.241,90.392,44.266,90.374,44.318,90.333z
			 M44.644,88.862c0,0,0,0.169,0.065,0.16c0-0.101,0-0.152,0-0.253C44.709,88.854,44.644,88.862,44.644,88.862z M46.919,92.617
			c-0.182-0.104-0.271-0.155-0.453-0.26c-0.13,0.021-0.183-0.076-0.263,0.042c-0.258,0.38-1.051,0.155-1.364,0.29
			c-0.113,0.049-0.207,0.354-0.196,0.363C44.777,93.168,46.074,93.006,46.919,92.617z M45.034,44.018
			c-0.052,0.001-0.078,0.001-0.13,0.002c0.052,0.032,0.078,0.048,0.13,0.08C45.034,44.067,45.034,44.051,45.034,44.018z
			 M44.904,91.842c0,0.067,0,0.1,0,0.167c0.052-0.075,0.078-0.11,0.13-0.186C44.982,91.831,44.956,91.834,44.904,91.842z
			 M45.294,86.935c0-0.033,0-0.052,0-0.085c0.065-0.261,0.086-0.495,0.065-0.514c-0.037-0.032-0.26,0.288-0.194,0.531
			C45.217,86.894,45.243,86.908,45.294,86.935z M45.294,90.781c-0.052,0.008-0.078,0.012-0.13,0.02c0,0.083,0.129,0.064,0.129,0.064
			c0.521,0.091,1.042,0.01,1.627-0.331c0-0.067-0.001-0.101-0.001-0.168C46.333,90.458,45.814,90.537,45.294,90.781z M45.424,86.329
			c0.005,0.002,0.13-0.016,0.065-0.175L45.424,86.329z M45.554,43.583c-0.005-0.002-0.167,0.122-0.064,0.169
			C45.522,43.768,45.554,43.583,45.554,43.583z M45.749,43.243c-0.005-0.002-0.129,0.256-0.129,0.256
			C45.625,43.501,45.749,43.243,45.749,43.243z M46.01,42.9c-0.009,0.003-0.143,0.244-0.13,0.256
			C45.906,43.182,46.01,42.9,46.01,42.9z M46.01,91.593c0,0,0.001,0.085-0.129,0.104c0.052,0.06,0.077,0.089,0.129,0.147
			c0.026-0.071,0.039-0.106,0.064-0.178C46.048,91.638,46.036,91.622,46.01,91.593z M46.66,42.547
			c-0.13,0.004-0.13,0.17-0.195,0.172l0.065,0.082L46.66,42.547z M47.18,42.192c-0.019-0.026-0.537,0.25-0.52,0.271
			C46.692,42.503,47.191,42.208,47.18,42.192z M47.374,91.127c-0.005-0.009-0.194-0.049-0.194-0.049
			c-0.156,0.025-0.234,0.036-0.391,0.061c0,0,0,0.082-0.065,0.092c0.026,0.063,0.04,0.094,0.065,0.156
			c0.13-0.021,0.203-0.005,0.26-0.041C47.117,91.303,47.374,91.127,47.374,91.127z M46.985,41.285c0,0.033,0,0.05,0,0.083
			c0.026-0.034,0.038-0.052,0.064-0.086C47.023,41.283,47.011,41.284,46.985,41.285z M46.985,76.527c0,0,0,0.167,0.064,0.242
			c0-0.167,0-0.251,0-0.418C46.985,76.359,46.985,76.443,46.985,76.527z M47.44,41.851c-0.04-0.038-0.269,0.336-0.261,0.341
			C47.208,42.21,47.479,41.889,47.44,41.851z M47.244,75.412c0.052-0.007,0.079-0.009,0.131-0.016c0-0.167-0.001-0.25-0.001-0.417
			c0-0.083-0.117-0.054-0.129,0.014C47.218,75.144,47.244,75.245,47.244,75.412z M47.896,41.499
			c-0.039-0.038-0.484,0.318-0.455,0.352C47.468,41.883,47.947,41.548,47.896,41.499z M47.765,40.672
			c0.052-0.002,0.079-0.001,0.131-0.003c-0.052-0.031-0.079-0.048-0.131-0.08C47.765,40.622,47.765,40.639,47.765,40.672z
			 M48.156,41.156c-0.013-0.012-0.233,0.304-0.194,0.341C47.988,41.522,48.182,41.181,48.156,41.156z M48.157,90.748
			c0.26-0.044,0.806-0.271,0.78-0.299c-0.031-0.032-0.521,0.09-0.781,0.217c-0.078,0.013-0.116,0.019-0.194,0.031
			C48.091,90.759,48.092,90.759,48.157,90.748z M48.675,40.718c-0.006-0.002-0.519,0.375-0.455,0.437
			C48.26,41.192,48.675,40.718,48.675,40.718z M49.521,91.59c-0.023-0.023-0.65,0.199-0.91,0.244c0,0-0.066,0.01-0.066,0.177
			c0.026,0.028,0.041,0.045,0.066,0.073C48.872,92.038,49.521,91.59,49.521,91.59z M49.262,40.359
			c-0.024-0.029-0.597,0.344-0.587,0.358C48.7,40.752,49.294,40.399,49.262,40.359z M48.807,39.966c0,0.033,0,0.05,0,0.083
			c0.065-0.003,0.13-0.089,0.13-0.089l-0.066-0.163C48.806,39.799,48.807,39.966,48.807,39.966z M48.937,90.449
			c0.022,0.023,0.456-0.081,0.65-0.28c0.052-0.042,0.077-0.063,0.129-0.104c-0.052,0.009-0.076,0.015-0.128,0.023
			C49.328,89.968,48.92,90.432,48.937,90.449z M49.392,40.27l-0.065-0.163l-0.064,0.252C49.328,40.356,49.327,40.356,49.392,40.27z
			 M51.409,90.658c-0.052,0.01-0.08,0.015-0.132,0.024c-0.586,0.029-1.17,0.305-1.755,0.741c0,0.066,0,0.1,0,0.166
			c0.39-0.07,0.584-0.106,0.975-0.18c0.26-0.213,0.543-0.396,0.78-0.478C51.384,90.896,51.409,90.741,51.409,90.658z M50.757,39.37
			c-0.021-0.034-0.649-0.047-0.91,0.38c0,0.099-0.001,0.149-0.001,0.248c0.052-0.003,0.078-0.005,0.13-0.008
			C50.237,39.894,50.757,39.37,50.757,39.37z M50.042,89.759c0.156-0.028,0.234-0.042,0.39-0.07c0,0,0.063-0.096,0.063-0.261
			c-0.104,0.019-0.155,0.028-0.259,0.047C50.237,89.64,50.107,89.664,50.042,89.759z M50.301,90.289c0,0,0.001,0.082,0.131,0.059
			c0.026-0.038,0.039-0.056,0.064-0.094C50.419,90.269,50.379,90.274,50.301,90.289z M50.496,89.428
			c0.182-0.033,0.274-0.051,0.456-0.085c0.195-0.036,0.259-0.133,0.325-0.392c-0.156,0.029-0.233,0.047-0.389,0.075
			C50.692,89.063,50.561,89.251,50.496,89.428z M50.757,38.709c0.13-0.089,0.129-0.088,0.194-0.257
			c-0.156,0.009-0.233,0.013-0.389,0.021C50.641,38.568,50.679,38.614,50.757,38.709z M51.277,39.01
			c-0.036-0.041-0.54,0.334-0.52,0.36C50.779,39.397,51.304,39.041,51.277,39.01z M51.147,89.805c-0.13,0.024-0.129,0.104,0,0.08
			c0.065-0.012,0.066-0.012,0.066-0.094C51.188,89.796,51.173,89.8,51.147,89.805z M51.733,38.653
			c-0.026-0.024-0.466,0.345-0.457,0.357C51.295,39.035,51.783,38.7,51.733,38.653z M54.204,87.152
			c0.066-0.066,0.195-0.367,0.195-0.367c-0.004-0.009-0.527,0.075-0.781,0.239c-0.681,0.439-1.515,1.363-2.146,1.644
			c-0.047,0.021-0.195,0.283-0.195,0.283c0.002,0.006,0.457,0.054,0.651-0.119C52.549,88.277,53.616,87.743,54.204,87.152z
			 M53.099,37.905c-0.035-0.054-1.243,0.729-1.235,0.739C51.901,38.699,53.099,37.905,53.099,37.905z M52.903,37.099
			c0.13-0.009,0.195,0.069,0.325,0.061l0.064-0.087c0,0-0.194-0.068-0.259-0.064C52.981,37.044,52.956,37.063,52.903,37.099z
			 M53.75,89.294c-0.092-0.029-0.352-0.229-0.391-0.249c-0.054-0.028-0.131,0.024-0.131,0.024c-0.195,0.121-0.333,0.362-0.324,0.395
			c0.009,0.031,0.194,0.204,0.324,0.178s0.319-0.18,0.39-0.24C53.696,89.335,53.782,89.304,53.75,89.294z M54.399,37.237
			c-0.01-0.015-0.317-0.036-0.39,0.03c-0.166,0.151-0.923,0.621-0.911,0.638s0.263,0.055,0.391-0.026
			C53.791,37.687,54.401,37.24,54.399,37.237z M53.293,88.482c-0.026-0.061-0.039-0.093-0.064-0.153c0,0.065,0,0.101,0,0.166
			C53.255,88.49,53.267,88.487,53.293,88.482z M53.749,36.795c0.026-0.035,0.04-0.051,0.065-0.086
			c-0.026,0.002-0.04,0.003-0.065,0.005C53.749,36.747,53.749,36.762,53.749,36.795z M53.814,88.051
			c-0.026-0.061-0.039-0.088-0.064-0.148c0,0.065-0.002,0.098-0.002,0.163C53.774,88.061,53.789,88.056,53.814,88.051z
			 M54.399,88.914c-0.052-0.022-0.077-0.035-0.129-0.058c-0.065,0.014-0.066,0.098-0.001,0.084
			C54.321,88.93,54.347,88.925,54.399,88.914z M54.465,87.428c-0.065,0.095-0.196,0.119-0.196,0.119
			c0,0.164-0.001,0.165,0.129,0.139c0,0,0.066-0.015,0.131-0.192C54.503,87.466,54.491,87.455,54.465,87.428z M55.18,36.851
			c-0.182,0.015-0.273,0.021-0.455,0.035c-0.195,0.015-0.326,0.153-0.325,0.189c0.002,0.076,0.325,0.138,0.391,0.133
			C54.985,37.193,55.114,37.019,55.18,36.851z M54.399,86.785c0.032,0.031,0.525-0.427,0.521-0.431
			C54.901,86.334,54.384,86.771,54.399,86.785z M54.465,36.334c0.026,0.031,0.038,0.046,0.064,0.077c0-0.033,0-0.049,0-0.082
			C54.503,36.332,54.491,36.332,54.465,36.334z M55.57,88.013c-0.052-0.055-0.078-0.082-0.13-0.137
			c-0.364,0.077-0.547,0.115-0.912,0.19c0,0,0.002,0.165-0.063,0.179c0.026,0.027,0.037,0.039,0.063,0.066
			c0.195-0.04,0.392,0.246,0.586,0.123C55.297,88.266,55.388,88.182,55.57,88.013z M54.92,86.354
			c0.024,0.023,0.544-0.415,0.521-0.437C55.407,85.886,54.906,86.341,54.92,86.354z M54.984,86.993c-0.06,0.04-0.065,0.096,0,0.245
			c0,0,0.131-0.027,0.131-0.19C55.116,87.048,55.053,86.947,54.984,86.993z M55.896,36.386c-0.182,0.015-0.273,0.022-0.455,0.037
			c-0.195,0.016-0.261,0.184-0.261,0.428c0.182-0.015,0.273-0.021,0.456-0.036C55.83,36.798,55.896,36.63,55.896,36.386z
			 M56.741,84.67c-0.027-0.036-0.881,0.805-1.171,0.979c-0.076,0.046-0.131,0.267-0.128,0.269
			C55.514,85.962,56.741,84.67,56.741,84.67z M55.569,86.625c-0.052,0.011-0.077,0.017-0.128,0.027
			c0.052,0.055,0.077,0.082,0.128,0.137C55.569,86.724,55.569,86.69,55.569,86.625z M55.896,87.129
			c-0.012-0.01-0.066,0.259-0.066,0.259C55.841,87.383,55.905,87.136,55.896,87.129z M56.741,35.988
			c-0.182,0.016-0.273,0.023-0.455,0.039c-0.195,0.017-0.325,0.19-0.39,0.358c0.182-0.015,0.272-0.023,0.455-0.039
			C56.546,36.331,56.611,36.243,56.741,35.988z M56.35,86.787c-0.026-0.027-0.039-0.041-0.065-0.068
			c-0.195,0.042-0.324,0.396-0.324,0.396c0.014,0.007,0.195-0.124,0.325-0.152C56.351,86.949,56.35,86.949,56.35,86.787z
			 M56.091,86.271l0.064-0.176C56.15,86.093,55.961,86.135,56.091,86.271z M56.351,85.811c-0.011-0.002-0.082,0.244-0.064,0.259
			C56.298,86.078,56.351,85.811,56.351,85.811z M57.717,35.575c-0.338,0.031-0.507,0.045-0.846,0.075c0,0.081-0.065,0.25-0.13,0.338
			c0.286-0.025,0.429-0.037,0.715-0.063C57.586,35.913,57.717,35.818,57.717,35.575z M59.018,82.553
			c-0.036-0.035-0.985,0.588-1.431,0.881c-0.41,0.27-0.846,1.236-0.846,1.236c0.007,0.004,0.411-0.082,0.585-0.209
			c0.512-0.374,1.132-1.02,1.56-1.475C58.953,82.915,59.018,82.553,59.018,82.553z M56.806,85.631
			c0.026-0.07,0.04-0.105,0.065-0.176c-0.026,0.006-0.04,0.008-0.065,0.014C56.806,85.533,56.806,85.566,56.806,85.631z
			 M57.327,85.107c0.026-0.038,0.04-0.054,0.066-0.092c-0.026-0.026-0.041-0.039-0.066-0.065l-0.065,0.093
			C57.261,85.043,57.327,85.026,57.327,85.107z M57.781,34.759c0.026,0.063,0.04,0.094,0.065,0.156
			c0.052-0.07,0.078-0.104,0.13-0.174C57.898,34.749,57.859,34.751,57.781,34.759z M58.757,35.151
			c-0.03-0.036-0.547,0.099-0.78,0.156c-0.108,0.026-0.195,0.179-0.195,0.26c0.26-0.024,0.39-0.035,0.65-0.06
			C58.627,35.488,58.77,35.166,58.757,35.151z M58.432,84.219c0-0.064,0-0.096,0-0.16c0,0.081-0.065,0.096-0.131,0.19
			C58.353,84.237,58.379,84.23,58.432,84.219z M58.563,83.95c0.005,0.002,0.129-0.031,0.064-0.179L58.563,83.95z M58.952,84.346
			c0,0,0.001-0.162-0.064-0.147c0,0.098,0,0.147,0,0.245C58.953,84.429,58.952,84.346,58.952,84.346z M61.505,80.688
			c-0.182,0.042-0.25,0.065-0.432,0.107c0.13-0.191,0.293-0.678,0.273-0.705c-0.042-0.056-0.602,0.299-0.775,0.502
			c-0.526,0.616-1.556,1.961-1.556,1.961c0.014,0.017,0.376-0.165,0.456-0.265c0.099-0.123,0.601-0.227,0.667-0.291
			C60.318,81.82,60,81.198,61,81.254c0,0.064,0,0.099,0,0.163c0-0.045,0.178-0.062,0.178-0.223c-0.104,0.024-0.244,0.035-0.349,0.06
			c0-0.24,0.171-0.429,0.171-0.459c0,0.16,0,0.239,0,0.399C61,81.149,61.505,81.088,61.505,80.688z M59.211,83.156
			c-0.005-0.002-0.154,0.219-0.065,0.256C59.172,83.423,59.211,83.156,59.211,83.156z M59.407,34.28
			c-0.026-0.03-0.038-0.044-0.064-0.074c-0.13,0.013-0.197,0.1-0.197,0.1c0.065,0.155,0.067,0.156,0.197,0.143
			C59.408,34.442,59.407,34.442,59.407,34.28z M59.407,82.869c-0.011,0.005-0.073,0.252-0.064,0.259
			C59.354,83.137,59.407,82.869,59.407,82.869z M59.668,83.538c-0.026,0.006-0.041,0.009-0.066,0.015
			c0.026,0.026,0.04,0.04,0.066,0.066C59.667,83.587,59.668,83.57,59.668,83.538z M59.993,82.416
			c-0.023-0.019-0.065,0.256-0.065,0.256C59.931,82.671,60.001,82.423,59.993,82.416z M60.058,82.32
			c0.065-0.015,0.13-0.029,0.13-0.191c0,0-0.065-0.067-0.13-0.053C60.058,82.173,60.058,82.224,60.058,82.32z M60.318,83.225
			c-0.104,0.282-0.157,0.425-0.261,0.707c0.521,0.041,0.78-0.346,0.976-0.955c0,0-0.001-0.161,0.063-0.256
			c-0.208,0.049-0.311,0.074-0.519,0.123C60.474,82.996,60.422,83.072,60.318,83.225c0-0.129,0-0.192,0-0.321
			c-0.13,0.109-0.196,0.287-0.196,0.287C60.127,83.196,60.188,83.255,60.318,83.225z M61.294,34.404l-0.066-0.074
			c-0.26,0.029-0.681,0.097-0.846,0.172c-0.041,0.019-0.064,0.169-0.064,0.169c0.364-0.039,0.545-0.06,0.91-0.1L61.294,34.404z
			 M60.578,82.844c-0.065-0.065-0.064-0.063-0.064-0.225c-0.078,0.115-0.117,0.169-0.195,0.284
			C60.422,82.879,60.474,82.868,60.578,82.844z M60.772,81.593c0,0.08-0.128,0.107-0.128,0.107c0.052,0.052,0.076,0.08,0.128,0.132
			C60.772,81.736,60.772,81.688,60.772,81.593z M61.358,79.77c-0.014-0.011,0.13-0.272,0.13-0.272
			C61.491,79.497,61.372,79.78,61.358,79.77z M62.073,34.236c-0.025-0.022-0.064,0.248-0.064,0.248
			C62.014,34.482,62.083,34.246,62.073,34.236z M62.009,79.059c0,0.08,0.13,0.209,0.13,0.209c-0.013,0.005-0.195-0.115-0.195-0.115
			L62.009,79.059z M62.073,81.047c-0.052,0.013-0.078,0.02-0.13,0.032c0.026,0.026,0.04,0.038,0.065,0.064
			C62.009,81.144,62.008,81.063,62.073,81.047z M62.918,80.044c-0.104,0.024-0.155,0.037-0.259,0.062c0-0.128,0-0.19,0-0.318
			c0-0.08-0.115-0.208-0.26-0.02c-0.083,0.107-0.196,0.287-0.261,0.462c0.208-0.049,0.313-0.074,0.521-0.124c0,0.128,0,0.192,0,0.32
			C62.854,80.379,62.853,80.299,62.918,80.044z M62.919,81.645c0.031,0.025-0.52,0.768-0.52,0.768
			C62.346,82.376,62.919,81.645,62.919,81.645z M63.114,79.68c-0.01-0.003-0.212,0.352-0.196,0.364
			C62.929,80.053,63.114,79.68,63.114,79.68z M63.179,81.342c0.004,0.006-0.24,0.318-0.26,0.303
			C62.878,81.612,63.179,81.342,63.179,81.342z M63.179,79.104c-0.026,0.006-0.039,0.01-0.064,0.016
			c-0.052,0.013-0.078,0.019-0.13,0.031c0,0.16,0.129,0.209,0.194,0.193c0,0.128,0.001,0.19,0.001,0.318
			c0.13-0.031,0.195-0.127,0.195-0.366c-0.078,0.019-0.118,0.029-0.196,0.048C63.179,79.248,63.179,79.199,63.179,79.104z
			 M63.375,77.78c-0.078,0.019-0.117,0.025-0.195,0.044c0-0.239,0.13-0.431,0.195-0.446C63.375,77.538,63.375,77.62,63.375,77.78z
			 M63.57,78.77c0,0.16-0.131,0.19-0.131,0.19c0-0.096,0.001-0.143,0.001-0.238c-0.026,0.006-0.04,0.01-0.065,0.016
			c0.026-0.038,0.039-0.057,0.064-0.095c0,0.032,0.001,0.047,0.001,0.079C63.493,78.741,63.518,78.75,63.57,78.77z M63.439,79.041
			c-0.026,0.006-0.039,0.01-0.064,0.016c0-0.032,0.001-0.049,0.001-0.081c0.026-0.006,0.038-0.01,0.063-0.016
			C63.439,78.992,63.439,79.009,63.439,79.041z M63.439,77.364c-0.014-0.011,0.084-0.192,0.131-0.19
			C63.63,77.176,63.453,77.375,63.439,77.364z M64.024,78.342c-0.004-0.007,0.066-0.095,0.131-0.11c0,0.096-0.001,0.145-0.001,0.24
			c0.195,0.033,0.587-0.064,0.587-0.064c0.043,0.049-0.393,0.733-0.848,0.764c0.104-0.28,0.157-0.419,0.261-0.699
			C64.089,78.487,64.024,78.342,64.024,78.342z M64.35,76.19c-0.065,0.016-0.064-0.061-0.064-0.061
			c0.065-0.016,0.064-0.176,0.194-0.207c0.078-0.019,0.117-0.027,0.195-0.046c-0.052,0.107-0.076,0.162-0.128,0.27
			C64.468,76.165,64.428,76.172,64.35,76.19z M65,76.356c0.016,0.006-0.252,0.385-0.259,0.38C64.728,76.726,65,76.356,65,76.356z
			 M65.197,79.089l-0.131,0.114L65,79.139c0.026-0.07,0.039-0.104,0.065-0.175C65.065,78.964,65.197,78.931,65.197,79.089z
			 M65.455,76.88c-0.078,0.02-0.116,0.028-0.194,0.048c0,0.159,0,0.239,0,0.398C65.327,77.311,65.455,77.118,65.455,76.88z
			 M65.911,33.521c-0.005-0.009-0.13-0.061-0.195-0.052c-0.104,0.014-0.156,0.019-0.26,0.033c-0.052,0.039-0.079,0.058-0.131,0.097
			c0,0.159,0.132,0.143,0.197,0.135c0.052-0.007,0.076-0.011,0.128-0.018C65.716,33.706,65.911,33.521,65.911,33.521z
			 M65.717,75.941c-0.011-0.009-0.203,0.281-0.195,0.287C65.545,76.246,65.733,75.954,65.717,75.941z M65.585,76.768
			c0,0-0.063-0.062-0.063-0.221c0,0.127,0,0.19,0,0.317C65.548,76.826,65.559,76.806,65.585,76.768z M65.977,78.101l-0.065,0.255
			C65.891,78.364,65.911,78.117,65.977,78.101z M66.887,76.684c0.267-0.332,0.911-0.864,0.911-0.864
			c0.013,0.006,0.004,0.432-0.196,0.682c-0.329,0.41-0.808,0.979-1.171,1.405c-0.067,0.079-0.454,0.115-0.454,0.115
			C65.923,77.963,66.558,77.093,66.887,76.684z M66.236,76.21c0,0-0.259,0.065-0.064,0.097L66.236,76.21z M67.537,33.457
			c0-0.002-0.195-0.209-0.325-0.191c-0.234,0.033-0.352,0.048-0.586,0.08c-0.26,0.036-0.418,0.577-0.39,0.608
			c0.032,0.035,0.584,0.008,0.845-0.274C67.148,33.608,67.537,33.457,67.537,33.457z M67.083,74.973
			c0.143-0.151,0.455-0.43,0.455-0.746c-0.417,0.104-0.623,0.154-1.04,0.256c0-0.127,0-0.189,0-0.316
			c-0.13,0.031-0.262,0.144-0.262,0.381c0.104-0.025,0.157-0.039,0.261-0.064c0,0.254,0,0.382,0,0.636
			c0.104-0.025,0.155-0.04,0.259-0.065c0,0.127-0.001,0.19-0.001,0.317C66.885,75.259,66.94,75.124,67.083,74.973z M66.498,75.751
			c-0.022-0.018-0.269,0.296-0.261,0.302C66.271,76.079,66.513,75.763,66.498,75.751z M66.498,74.166
			c0.034,0.026,0.257-0.458,0.257-0.458C66.752,73.707,66.475,74.147,66.498,74.166z M66.755,73.708
			c0.022,0.018,0.205-0.201,0.197-0.207C66.941,73.492,66.74,73.695,66.755,73.708z M66.757,75.053c0-0.079,0-0.234,0.13-0.267
			c0,0,0.066,0.14,0.196,0.187C66.953,75.005,66.887,75.021,66.757,75.053z M67.082,73.312c0.011,0.009,0.138-0.186,0.13-0.191
			C67.201,73.111,67.074,73.306,67.082,73.312z M67.537,72.646c-0.022-0.018-0.203,0.28-0.195,0.286
			C67.353,72.941,67.56,72.664,67.537,72.646z M67.798,73.847c-0.104,0.026-0.157,0.038-0.261,0.063c0-0.158-0.195-0.11-0.195-0.11
			c0.002,0.004,0.065-0.016,0.195,0.11c0,0.126,0,0.19,0,0.316C67.667,74.194,67.798,74.005,67.798,73.847z M67.798,72.268
			c-0.022-0.018-0.261,0.379-0.261,0.379C67.542,72.649,67.821,72.285,67.798,72.268z M68.251,33.513
			c-0.052-0.024-0.076-0.036-0.128-0.06c-0.208,0.03-0.314,0.043-0.522,0.073c0.065,0.307,0.327,0.192,0.522,0.164
			C68.176,33.618,68.199,33.583,68.251,33.513z M67.798,72.268c0.01,0.012,0.284-0.362,0.26-0.381
			C68.036,71.869,67.798,72.268,67.798,72.268z M68.056,73.388c-0.019-0.008-0.281,0.441-0.258,0.459
			C67.82,73.864,68.056,73.388,68.056,73.388z M68.058,75.358c0.026,0.021-0.247,0.314-0.259,0.305
			C67.786,75.653,68.039,75.344,68.058,75.358z M68.059,71.887c0.195-0.048,0.259-0.142,0.259-0.379
			C68.213,71.659,68.163,71.735,68.059,71.887z M68.317,73.164c-0.034-0.026-0.269,0.218-0.261,0.224
			C68.09,73.414,68.325,73.17,68.317,73.164z M68.057,75.28l0.065-0.252C68.132,75.025,68.057,75.28,68.057,75.28z M68.838,70.828
			c-0.027-0.019-0.53,0.671-0.521,0.68C68.371,71.559,68.838,70.828,68.838,70.828z M68.774,72.733
			c-0.034-0.026-0.465,0.264-0.456,0.272C68.341,73.027,68.805,72.757,68.774,72.733z M68.838,70.749
			c0.13-0.032,0.13-0.268,0.13-0.268C68.967,70.48,68.838,70.749,68.838,70.749z M69.033,72.274
			c-0.005-0.006-0.195,0.287-0.195,0.287C68.852,72.568,69.033,72.274,69.033,72.274z M69.293,71.895
			c-0.011-0.009-0.194,0.363-0.194,0.363C69.113,72.265,69.308,71.906,69.293,71.895z M69.88,72.925
			c-0.182,0.424-0.275,0.635-0.458,1.06c0,0.078-0.196,0.052-0.196,0.052c-0.13-0.124-0.128-0.204-0.128-0.204
			C69.229,73.326,69.49,73.025,69.88,72.925z M69.488,71.689c-0.034-0.009-0.066,0.172-0.066,0.172
			C69.427,71.863,69.532,71.701,69.488,71.689z M69.75,69.424l-0.068-0.142C69.682,69.282,69.685,69.518,69.75,69.424z
			 M71.633,70.356c0.049,0.059-0.893,1.416-1.169,2.024c-0.089,0.196-0.583,0.545-0.584,0.544c-0.009-0.006-0.001-0.314,0.063-0.409
			c0.546-0.8,0.82-1.2,1.366-1.998C71.375,70.422,71.633,70.356,71.633,70.356z M70.398,70.438
			c-0.002-0.005-0.388,0.098-0.453,0.192c0,0.094-0.001,0.142-0.001,0.236c0,0,0.064,0.139,0.194-0.05
			C70.203,70.721,70.398,70.438,70.398,70.438z M70.594,70.153c-0.052,0.013-0.078,0.02-0.13,0.033c0,0.078-0.066,0.173-0.066,0.173
			C70.463,70.343,70.464,70.343,70.594,70.153z M70.594,69.291c0,0-0.082-0.2-0.13-0.046C70.448,69.298,70.594,69.291,70.594,69.291
			z M71.114,34.098c0.016-0.029-0.194-0.125-0.194-0.125c-0.065,0.01-0.261,0.197-0.261,0.197c0.005,0.007,0.261,0.039,0.261,0.039
			C70.925,34.206,71.11,34.104,71.114,34.098z M70.854,69.46c-0.001-0.001-0.181-0.048-0.195-0.03
			C70.64,69.455,70.854,69.46,70.854,69.46z M71.114,68.611c0-0.094,0-0.141,0-0.234c-0.078,0.082-0.116,0.125-0.194,0.207
			C70.985,68.567,71.048,68.55,71.114,68.611z M71.635,68.168c-0.104,0.026-0.157,0.04-0.261,0.066c0-0.078-0.064-0.219-0.064-0.219
			c-0.003,0.001-0.131,0.19-0.131,0.269c0.078-0.02,0.118-0.03,0.196-0.05c0,0.125,0,0.188,0,0.313
			C71.569,68.498,71.635,68.403,71.635,68.168z M71.374,68.547c-0.078,0.02-0.118,0.029-0.196,0.049c0,0.157,0.131,0.2,0.131,0.2
			C71.314,68.797,71.374,68.703,71.374,68.547z M71.894,69.741c0.039,0.03-0.261,0.615-0.261,0.615
			C71.609,70.343,71.869,69.722,71.894,69.741z M71.829,34.217c-0.026,0.004-0.039,0.007-0.064,0.012
			c0.026,0.027,0.039,0.04,0.064,0.066C71.829,34.264,71.829,34.248,71.829,34.217z M72.35,69.39
			c-0.026,0.069-0.039,0.103-0.064,0.172c-0.156,0.041-0.233,0.062-0.39,0.102c0.13-0.268,0.195-0.286,0.39-0.336
			C72.311,69.352,72.324,69.366,72.35,69.39z M72.35,34.444c-0.026,0.004-0.039,0.006-0.064,0.01c0,0.031,0,0.047,0,0.079
			C72.311,34.498,72.324,34.479,72.35,34.444z M72.545,68.715c0.026-0.069,0.039-0.103,0.065-0.171c0,0.093,0,0.14,0,0.233
			C72.545,68.793,72.545,68.715,72.545,68.715z M72.935,68.147c0.039,0.03-0.188,0.367-0.194,0.362
			C72.714,68.489,72.922,68.137,72.935,68.147z M73.196,67.769c0.01,0.003-0.188,0.366-0.195,0.361
			C72.975,68.11,73.196,67.769,73.196,67.769z M73.391,67.484c0.022,0.003-0.117,0.277-0.13,0.268S73.391,67.484,73.391,67.484z
			 M74.43,66.203c-0.016,0.021-0.195,0.187-0.194,0.208c0.004,0.083,0.129,0.549-0.131,0.809c-0.113,0.112-0.361-0.018-0.389-0.209
			c-0.039-0.262,0.196-0.673,0.457-0.973c0,0,0.064-0.016,0.194,0.028C74.366,66.066,74.464,66.16,74.43,66.203z M74.627,65.378
			c0,0,0.064-0.016,0.064,0.062c-0.052,0.014-0.078,0.019-0.13,0.033C74.561,65.395,74.627,65.378,74.627,65.378z M75.081,64.408
			c-0.014-0.015,0.197-0.206,0.197-0.206l-0.131,0.265C75.141,64.464,75.081,64.408,75.081,64.408z M75.797,63.139
			c0.052,0.033-0.498,0.999-0.519,0.985C75.214,64.082,75.782,63.129,75.797,63.139z M76.707,62.055c0,0.031,0,0.047,0,0.078
			c-0.364,0.402-0.546,0.604-0.91,1.006c0.195-0.823,0.731-1.244,0.782-1.205C76.604,61.955,76.707,62.055,76.707,62.055z
			 M76.512,36.266c0,0-0.193-0.034-0.195-0.041C76.309,36.182,76.512,36.189,76.512,36.266c0,0,0.083,0.047,0.066,0.066
			C76.563,36.351,76.512,36.344,76.512,36.266z M76.579,60.933c0.195-0.05,0.258-0.066,0.453-0.27
			c-0.104,0.211-0.154,0.316-0.258,0.528c-0.078,0.02-0.117,0.031-0.195,0.051C76.579,61.118,76.579,61.056,76.579,60.933z
			 M77.032,37.478c0.003-0.001-0.194-0.117-0.194-0.117C76.842,37.369,77.032,37.478,77.032,37.478z M77.293,37.428
			c-0.052,0.01-0.077,0.015-0.129,0.025c0,0.077,0,0.155,0.065,0.142C77.229,37.595,77.293,37.505,77.293,37.428z M77.229,60.072
			c0.025,0.02,0.064,0.214,0.064,0.214c-0.065,0.094-0.131,0.188-0.131,0.266c0-0.123,0.001-0.186,0.001-0.309
			C77.163,60.09,77.223,60.067,77.229,60.072z M77.619,59.589c0.021,0.049,0.124,0.038,0.13,0.043
			c0.025,0.02-0.067,0.171-0.067,0.171S77.663,59.601,77.619,59.589c-0.068-0.017-0.196-0.104-0.196-0.104
			C77.417,59.476,77.582,59.506,77.619,59.589z M77.682,58.496c0.065-0.017,0.196-0.127,0.196-0.127
			c0.002,0.004-0.13,0.109-0.13,0.186C77.722,58.531,77.708,58.52,77.682,58.496z M78.333,53.572
			c-0.015-0.136,0.001-0.153-0.129-0.122c0,0.062,0,0.092,0,0.153c-0.065,0.169-0.068,0.63-0.065,0.631
			C78.174,54.256,78.362,53.836,78.333,53.572z M79.113,39.979c-0.078,0.016-0.116,0.024-0.194,0.041
			C79.114,39.827,79.113,39.979,79.113,39.979z M80,46.448c0,0.153-0.053,0.201-0.053,0.43c0.104-0.024,0.064-0.037,0.167-0.061
			c0,0,0.047-0.052,0.021-0.168c-0.104-0.465-0.074-1.892-0.154-1.957c-0.023-0.018-0.306-0.067-0.337-0.156
			c-0.154-0.448-0.192-1.577-0.387-2.225c0,0-0.258-0.126-0.258-0.112c0-0.153,0-0.229,0-0.382s-0.007-0.141-0.007-0.141
			s-0.103,0.028-0.103,0.182c0,0.23,0.168,0.293,0.208,0.341c0.194,0.231,0.452,1.553,0.646,2.275C79.771,44.5,80,44.512,80,44.537
			C80,45.302,80,45.684,80,46.448z M79.179,40.12c0.052,0.02,0.078,0.029,0.13,0.049C79.113,40.439,79.179,40.196,79.179,40.12z
			 M79.959,48.897c0.042-0.023,0.13-0.107,0.13-0.107c0-0.229,0.13-0.565,0.13-0.871c0-0.229-0.131-0.428-0.196-0.719
			c-0.078,0.018-0.116,0.027-0.194,0.045c-0.065,0.015-0.064,0.168-0.064,0.168c0.26,0.323-0.048,0.898-0.131,1.406
			C79.624,48.882,79.785,48.995,79.959,48.897z M80.219,49.828c-0.063-0.026-0.286,0.327-0.26,0.443
			c0.026,0.116,0.26,0.09,0.325,0.151c0.026-0.006,0.038-0.008,0.064-0.015C80.348,50.179,80.249,49.841,80.219,49.828z
			 M80.348,51.476c-0.026,0.037-0.038,0.055-0.064,0.092c-0.065-0.061-0.065-0.061,0-0.153
			C80.31,51.439,80.322,51.452,80.348,51.476z"/>
		<path fill="#FFFFFF" d="M92.438,79.81c0.141-0.483,0.297-1.294,0.521-1.512c0.028-0.028,0.065-0.17,0.195-0.29
			c0.26-0.239,0.45-0.637,0.65-0.893c0.166-0.212,0.519-0.402,0.713-0.617c0.39-0.431,0.666-0.309,0.976-0.197
			c0.572,0.206,1.153,0.974,1.17,1.556c0.007,0.248,0.145,0.675-0.064,0.971c-0.148,0.21-0.229,0.443-0.391,0.725
			c-0.138,0.239-0.157,0.461-0.13,0.632c0.039,0.242-0.317,0.638-0.389,0.875c-0.03,0.099-0.066,0.243-0.066,0.243
			c-0.715,0.628-1.381,1.028-2.016,1.106c-0.335,0.041-0.762-0.137-0.974-0.529c-0.155-0.286-0.261-0.719-0.261-1.162
			C92.372,80.348,92.354,80.098,92.438,79.81z"/>
		<path fill="#FFFFFF" d="M143.285,48.064c-0.021-0.023-0.455,0.024-0.455,0.341c-0.026,0.005-0.039,0.008-0.065,0.013
			c-0.13,0.025-0.327,0.093-0.39,0.139c-0.178,0.132-0.618,0.414-0.91,0.498c-0.675,0.195-1.042,0.659-1.302,1.289
			c0.078,0.035,0.036,0.051,0.114,0.086C140.213,50.444,140,50.444,140,50.6c0-0.102,0-0.153,0-0.255
			c0,0.028-0.309,0.084-0.373,0.354c0.182-0.04,0.313-0.06,0.495-0.099c-0.065,0.333-0.61,0.499-0.694,0.603
			c-0.06,0.074-0.423,0.309-0.444,0.292c-0.044-0.035,0.32-0.241,0.46-0.355c0.064-0.053,0.462-0.44,0.462-0.44
			c-0.013-0.022-0.905,0.361-0.905,0.69c0,0.051,0,0.077,0,0.128c0-0.015-0.133,0.05-0.068,0.036
			c0.105-0.023,0.057-0.036,0.161-0.059c-0.131,0.157-0.341,0.377-0.442,0.472c-0.195,0.182-0.391,0.057-0.542,0.054
			c-0.103-0.002-0.363,0.185-0.337,0.267c0.011,0.033,0.252,0.068,0.252,0.133c0,0.128-0.196,0.238-0.262,0.317
			c-0.078,0.018-0.119,0.027-0.197,0.045c0-0.129,0.195-0.495,0.195-0.495c-0.018-0.021-0.525,0.189-0.588,0.328
			c-0.031,0.069-0.064,0.144-0.064,0.144c-0.002,0.008,0.187-0.013,0.26,0.003c0.045,0.01,0.195,0.02,0.195,0.02
			c0.011,0.013-0.209,0.281-0.326,0.397c-0.136,0.134-0.544,0.492-0.748,0.687c-0.195,0.187-0.488,0.142-0.488-0.15
			c0-0.026,0-0.038,0-0.064c0,0.127-0.62,0.546-0.62,0.546c0.006,0.006,0.214,0.081,0.344,0.049c0.026,0.02,0.05,0.03,0.075,0.05
			c-0.195,0.307-0.388,0.744-0.907,0.809c0.104-0.182,0.159-0.274,0.264-0.456c0.064-0.146,0.257-0.453,0.257-0.453
			c-0.042-0.037-0.648,0.354-0.778,0.972c0.104-0.026,0.157-0.038,0.262-0.064c-0.065,0.081-0.065,0.209-0.065,0.209
			c-0.004,0.001-0.065-0.113-0.195-0.146c-0.13,0.033-0.194,0.049-0.324,0.082c-0.065,0.082-0.06,0.286-0.066,0.343
			c-0.028,0.25,0.001,0.455,0.066,0.633c0.286,0.447,0.429,0.669,0.715,1.115c0.455,0.921,1.045,1.937,1.313,2.982
			c0.15,0.581,0.662,1.288,0.662,1.847c0,0.567,0,0.852,0,1.419c0,0.322-0.154,0.688-0.076,0.903
			c0.098,0.272,0.097,0.762,0.089,0.93c-0.007,0.144,0.029,0.384-0.017,0.518c-0.057,0.163-0.082,0.472-0.14,0.615
			c-0.274,0.685-0.459,1.551-0.655,2.253c0.026-0.007,0.036-0.012,0.063-0.02c0.065-0.019,0.341-0.062,0.259,0.185
			c-0.187,0.557-0.322,1.139-0.586,1.657c-0.311,0.609-0.511,1.309-0.911,1.894c-0.344,0.501-0.641,1.093-1.041,1.559
			c-0.264,0.307-0.392,0.71-0.587,1.032c-0.13,0.172-0.193,0.258-0.323,0.431c-0.195,0.259-0.326,0.313-0.392,0.389
			c-0.167,0.193,0.13,0.218,0,0.391c-0.234,0.286-0.352,0.43-0.586,0.717c-0.39,0.391-0.718,0.631-1.039,1.004
			c-0.391,0.454-0.65,0.813-1.171,0.991c-0.26,0.09-0.512,0.415-0.715,0.709c-0.436,0.63-1.131,1.306-1.884,1.662
			c-0.449,0.213-0.996,0.788-1.303,1.069c-0.324,0.298-1.056,0.958-1.366,1.104c-0.23,0.108-0.517,0.197-0.583,0.283
			c-0.596,0.773-1.695,0.836-2.083,1.39c-0.076,0.109-0.276,0.096-0.327,0.125c-0.427,0.249-0.722,0.039-1.104,0.357
			c-0.32,0.268-0.862,0.479-1.168,0.657c-0.562,0.325-1.333,0.279-2.019,0.442c-0.607,0.145-1.314-0.021-1.82-0.181
			c-0.845-0.266-1.349-0.954-1.95-1.728c-0.275-0.354-0.196-1.034-0.455-1.351c-0.131-0.159-0.059-0.487-0.13-0.575
			c-0.381-0.469,0.118-1.775,0.52-2.56c0.072-0.142,0.183-0.371,0.325-0.538c0.12-0.141,0.047-0.352,0-0.417
			c-0.033-0.047,0.066-0.218,0.13-0.323c0.199-0.332,0.483-1.036,0.586-1.462c0.024-0.104,0.196-0.28,0.196-0.28
			c0.009,0.003-0.037,0.369-0.064,0.508c-0.011,0.055-0.064,0.162-0.064,0.231c0,0.139,0.063,0.187,0.129,0.23
			c0,0,0.184-0.085,0.193-0.141c0.109-0.622,0.744-1.34,0.976-1.875c0.142-0.327,0.447-0.593,0.585-0.968
			c0.174-0.473,0.555-0.815,0.78-1.307c0.207-0.449,0.573-0.952,0.782-1.369c0.071-0.142,0.403-0.276,0.505-0.389
			c0.066-0.073-0.559-0.297,0.441-0.364c0,0.109,0,0.168,0,0.277c0-0.045,0.014-0.136,0.014-0.341
			c-0.078,0.026-0.208,0.036-0.286,0.063c0-0.067,0.063-0.248,0.104-0.338c0.016-0.036,0.168-0.18,0.168-0.361
			c0-0.136,0-0.205,0-0.341c1-0.564,0.995-1.269,1.455-1.936c0.062-0.089,0.545-0.134,0.545-0.198c0,0.082,0,0.124,0,0.206
			c0-0.021,0.084-0.202,0.084-0.202l-0.246-0.003c-0.029-0.026,0.194-0.731,0.298-0.921c0.097-0.179,0.481-0.296,0.571-0.395
			c0.102-0.111,0.318-0.58,0.253-0.829c-0.13,0.042-0.201,0.062-0.331,0.104c-0.182,0.249-0.271,0.375-0.453,0.624
			c-0.325,0.445-0.648,0.851-0.914,1.25c-0.294,0.441-0.579,0.956-0.907,1.463c-0.565,0.875-1.219,1.64-1.692,2.56
			c-0.402,0.781-1.118,1.63-1.496,2.588c-0.143,0.361-0.91,1.224-0.91,1.224c-0.005-0.003,0.094-0.309,0.195-0.551
			c0.147-0.353,0.48-0.862,0.715-1.291c0.605-1.106,1.301-2.314,2.016-3.381c0.546-0.817,0.819-1.223,1.365-2.032
			c0.391-0.744,0.978-1.347,1.496-2.126c0.976-1.467,2.271-2.867,3.316-4.221c0.752-0.974,1.744-1.853,2.534-2.698
			c0.392-0.419,0.772-0.937,1.109-1.25c1.232-1.15,2.542-2.811,3.835-3.95c0.114-0.101,0.263-0.329,0.067-0.541
			c-0.677-0.899-1.016-1.352-1.692-2.258c-0.651-0.755-1.324-1.513-2.019-2.257c-0.391-0.418-0.942-0.793-0.974-1.412
			c-0.003-0.063-0.18-0.133-0.26-0.268c-0.24-0.403-0.912-0.775-1.304-1.27c-0.701-0.886-1.119-2.303-1.688-2.993
			c-0.124-0.15-0.226-0.753-0.327-0.861c-0.044-0.047-0.18-0.234-0.191-0.355c-0.029-0.293-0.247-0.924-0.262-1.015
			c-0.025-0.154,0-0.672,0-1.009c0-0.539,0.258-2.148,0.453-2.597c0.156-0.466,0.238-0.699,0.395-1.164
			c0.195-0.447,0.307-0.819,0.452-1.178c0.154-0.38,0.392-0.823,0.716-1.228c0.26-0.324,0.377-0.67,0.781-1.037
			c0.324-0.294,0.505-0.767,0.845-1.176c0.463-0.557,0.977-1.262,1.496-1.827c0.416-0.452,0.625-0.678,1.041-1.126
			c1.69-1.705,3.72-3.223,5.463-4.469c0.383-0.274,0.976-0.571,1.366-0.786c0.686-0.377,1.572-0.927,2.34-1.353
			c0.582-0.323,1.042-0.646,1.758-0.732c0.195-0.023,0.481-0.171,0.716-0.275c0.438-0.194,0.975-0.323,1.235-0.519
			c0.499-0.374,1.39-0.318,1.886-0.759c0.064-0.058,0.266-0.066,0.327-0.029c0.395,0.24,0.974,0.1,1.559,0.051
			c0.131-0.011,0.181,0.022,0.195,0.047c0.146,0.241,1.141,0.017,1.692,0.179c1.007,0.296,2.076,0.84,2.73,1.611
			c0.543,0.639,1.216,1.388,1.561,2.18c0.229,0.524,0.455,1.137,0.455,1.81c0,0.306,0.141,0.68,0.065,1.098
			c-0.055,0.303,0.036,0.7,0.065,0.974c0.07,0.652-0.413,2.144-0.65,2.805c-0.159,0.443-0.321,1.016-0.391,1.445
			c-0.12,0.741-0.142,0.725-0.846,0.508c-0.63-0.194-1.29-0.872-1.365-1.162c-0.057-0.219-0.138-0.832,0.17-1.415
			c0.066-0.126,0.301-0.377,0.301-0.625c0-1.905,0-2.858,0-4.763c0-0.68-0.408-1.243-0.626-1.765c-0.07-0.167-0.345-0.393-0.378-0.6
			c-0.084-0.53-0.767-0.848-1.296-0.963c-0.306-0.066-0.809-0.177-1.068-0.227c-0.094-0.018-0.34,0.028-0.405,0.222
			c-0.104,0.159-0.163,0.238-0.268,0.397c-0.26,0.274-0.566,0.429-0.851,0.393c-0.765-0.098-1.759,0.436-2.472,0.825
			c-1.03,0.563-2.069,0.916-3.058,1.391c-0.64,0.308-1.254,0.858-1.888,1.16c-0.663,0.315-1.237,0.792-1.884,1.122
			c-0.567,0.289-1.058,0.795-1.563,1.226c-0.386,0.329-0.977,0.854-1.496,1.17c-0.821,0.501-1.882,1.416-2.275,1.992
			c-0.189,0.278-0.613,0.836-0.978,1.179c-0.325,0.306-0.7,0.86-0.909,1.175c-0.563,0.848-1.429,1.693-1.951,2.604
			c-0.403,0.703-0.851,1.524-1.169,2.398c-0.263,0.723-0.464,1.621-0.523,2.332c-0.025,0.306,0.043,0.991,0.133,1.174
			c0.257,0.521,0.45,2.05,0.91,2.854c0.563,0.984,1.301,1.744,1.886,2.659c0.521,0.586,0.78,0.878,1.301,1.461
			c0.325,0.314,0.525,0.725,0.91,0.959c0.063,0.038,0.118,0.053,0.131,0.1c0.272,0.992,1.724,2.182,2.343,3.215
			c0.162,0.27,0.453,0.21,0.778-0.132c0.442-0.398,0.663-0.596,1.105-0.99c0.416-0.362,0.625-0.542,1.041-0.899
			c0.13-0.031,0.197-0.046,0.327-0.077c0.13-0.16,0.185-0.355,0.259-0.45c0.35-0.446,1.479-0.983,1.884-1.459
			c0.074-0.087,0.313-0.083,0.327-0.072c0.011,0.009-0.13,0.158-0.194,0.3c-0.469,0.386-0.703,0.581-1.172,0.972
			c-0.324,0.268-0.585,0.587-0.976,0.679c-0.104,0.102-0.156,0.152-0.261,0.254c-1.015,0.914-1.521,1.377-2.535,2.313
			c-0.131,0.099-0.245,0.244-0.231,0.262c0.031,0.041,0.092,0.128,0.092,0.112c0,0.078,0,0.117,0,0.195
			c0,0.13,0.363,0.162,0.363,0.162c0.326-0.278,0.961-0.798,0.961-0.798c-0.018-0.019-0.217,0.105-0.397,0.179
			c-0.106,0.043-0.475,0.277-0.494,0.262c-0.021-0.017,0.147-0.228,0.213-0.31c0.26-0.326,0.593-0.604,0.918-0.943
			c0.13-0.032,0.198-0.047,0.328-0.079c-0.065,0.21-0.259,0.583-0.259,0.583c0.012,0.018,0.715-0.305,0.779-0.709
			c-0.208,0.05-0.309,0.076-0.517,0.126c0.52-0.711,1.951-1.63,1.951-1.63c0.007,0.007-0.199,0.451-0.325,0.529
			c-0.401,0.249-1.108,0.974-1.108,0.974c0.008,0.012,0.655-0.137,0.783-0.317c0.088-0.123,0.227-0.341,0.39-0.352
			c0.278-0.019,0.581-0.42,0.781-0.695c0.114-0.156,0.325-0.397,0.65-0.471c0.065-0.015,0.172-0.093,0.26-0.187
			c0.338-0.36,1.123-0.79,1.236-1.102c0.028-0.079,0.194-0.235,0.26-0.249c0.521-0.11,0.91-0.828,0.91-0.828
			c-0.023-0.036-0.912,0.507-1.433,0.875c-0.131,0.092-0.481,0.219-0.519,0.177c-0.028-0.032,0.213-0.358,0.391-0.468
			c0.383-0.238,0.963-0.495,1.235-0.834c0.074-0.092,0.325-0.513,0.325-0.513c-0.006-0.009-0.318,0.13-0.39,0.206
			c-0.309,0.328-1.219,0.67-1.626,1.047c-0.065,0.061-0.391,0.276-0.391,0.276c-0.015-0.005,0.165-0.466,0.391-0.597
			c1.629-0.941,3.436-2.344,5.008-3.344c1.42-0.903,2.896-1.657,4.292-2.273c0.244-0.108,0.763-0.231,0.847-0.185
			c0.111,0.062,0.324,0.2,0.584,0.102c0.026-0.003,0.039-0.005,0.065-0.009c0-0.124-0.065-0.115-0.065-0.115
			c-0.195,0.027-0.584,0.022-0.584,0.022c-0.017-0.028,0.746-0.427,0.975-0.508c0.394-0.14,0.979-0.324,1.432-0.433
			c0.479-0.115,1.145-0.217,1.692-0.202c0.789,0.021,1.632-0.038,2.47,0.286c0.255,0.098,0.483,0.346,0.586,0.549
			c0.101,0.199,0.324,0.452,0.455,0.682c0,0,0.029,0.103,0,0.121c-0.176,0.11-0.326,0.576-0.586,0.905
			c-0.104,0.011-0.154,0.015-0.259,0.025c-0.521-0.249-1.236,0.005-1.627-0.429c-0.132-0.146-0.453-0.118-0.651-0.229
			c-0.303-0.17-0.929-0.18-1.235-0.035c-0.299,0.141-0.671,0.364-1.104,0.451c-0.301,0.061-0.652,0.213-0.978,0.382
			s-0.949,0.332-1.105,0.47c-0.068,0.061-0.261,0.181-0.325,0.235c-0.509,0.427-1.729,0.818-2.297,1.081
			c-0.221,0.102-0.257,0.186-1.257,0.368c0-0.05,0-0.077,0-0.127c0-0.188,0.204-0.252,0.085-0.165
			c-0.192,0.142-0.403,0.353-0.476,0.417c-0.121,0.105-0.546,0.374-0.792,0.532c-0.198,0.127-0.529,0.261-0.56,0.236
			c-0.011-0.009-0.324-0.027-0.324-0.027c0.004,0.006,0.066-0.024,0.066,0.027c0,0.101,0,0.151,0,0.252
			c0-0.02,0.46-0.029,0.564-0.049c0.065-0.012,0.436,0.039,0.436,0.039c0,0.05,0,0.076,0,0.126c-1,0.376-0.813,0.565-1.203,0.642
			c0.078-0.167,0.036-0.25,0.114-0.417C143.106,48.304,143.293,48.073,143.285,48.064z M114.737,77.424
			c-0.042-0.024,0.488-0.892,0.519-0.878C115.313,76.571,114.741,77.427,114.737,77.424z M133.334,56.677
			c-0.041-0.047-0.194-0.211-0.325-0.242c-0.078,0.021-0.115,0.03-0.193,0.051c0,0.065-0.069,0.185,0,0.262
			c0.043,0.048,0.14,0.215,0,0.393c-0.139,0.176-0.327,0.412-0.522,0.661c-0.13,0.166-0.379,0.204-0.455,0.255
			c-0.12,0.08-0.129,0.231-0.129,0.231c-0.196,0.118-0.524,0.299-0.651,0.441c-0.31,0.347-0.775,1.118-1.235,1.595
			c-0.522,0.542-1.193,1.119-1.628,1.662c-0.4,0.5-0.785,1.092-1.301,1.583c-0.91,0.866-1.689,1.989-2.534,2.927
			c-0.234,0.289-0.352,0.434-0.586,0.724c-0.715,0.768-1.3,1.635-1.885,2.64c-0.313,0.402-0.468,0.604-0.78,1.008
			c-0.13,0.152-0.195,0.228-0.325,0.38c-0.91,1.531-1.923,3.145-2.729,4.562c-0.642,1.126-1.422,2.37-1.888,3.503
			c-0.146,0.354-0.268,1.043-0.39,1.385c-0.114,0.321-0.341,0.935-0.586,1.256c-0.261,0.343-0.383,1.399-0.325,1.918
			c0.041,0.366,0.26,0.798,0.65,0.785c0.585-0.02,1.122,0.012,1.691-0.24c0.121-0.054,0.395-0.153,0.584-0.154
			c0.824-0.004,1.749-0.755,2.602-0.923c0.159-0.031,0.598-0.227,0.716-0.199c0.183,0.042,0.345,0.149,0.518,0.006
			c0.579-0.481,1.309-0.801,1.888-1.306c0.815-0.71,1.886-1.494,2.861-2.239c0.026,0.018,0.039,0.025,0.065,0.043
			c0.131-0.046,0.041,0.111,0,0.202c-0.016,0.035-0.131,0.375-0.13,0.378c0.008,0.019,0.323-0.115,0.52-0.385
			c0.963-0.9,1.446-1.347,2.409-2.229c0.052-0.176,0.076-0.264,0.128-0.439c-0.13,0.176-0.553,0.265-0.619,0.328
			c-0.141,0.137,0.252,0.177-0.748,0.244c0-0.026,0-0.04,0-0.066c1-0.576,1.334-1.302,1.984-1.716
			c0.053-0.018,0.191-0.026,0.243-0.044c0,0.197-0.139,0.593-0.139,0.593c0.006,0.006,0.291-0.085,0.355-0.172
			c0.325-0.436,1.119-1.548,1.119-1.548c-0.011-0.013-0.317-0.092-0.188-0.265c0.26-0.348,0.752-0.937,0.849-1.126
			c0.113-0.222,0.383-0.823,0.589-1.036c1.12-1.161,1.964-3.202,2.081-4.341c0.028-0.272,0.263-0.791,0.263-1.245
			c0-0.389-0.146-0.859-0.016-1.285c0.13-0.426-0.142-0.86-0.142-1.249c0-0.466,0-0.702,0-1.168c0-0.194,0.17-0.349,0.143-0.501
			c-0.029-0.159-0.066-0.361-0.024-0.483c0.047-0.134-0.013-0.372-0.013-0.566c0-0.13-0.013-0.411-0.04-0.564
			c-0.019-0.106-0.114-0.247-0.183-0.338c-0.081-0.108-0.078-0.443-0.124-0.549c-0.156-0.357-0.242-0.797-0.322-1.147
			C134.236,58.056,133.758,57.169,133.334,56.677z M117.336,85.466c0-0.027,0-0.042,0-0.069c-0.025,0.037-0.039,0.058-0.064,0.095
			C117.297,85.481,117.311,85.476,117.336,85.466z M118.442,72.324c0,0.067,0,0.138,0.065,0.115c0,0,0.129-0.113,0.129-0.181
			C118.559,72.286,118.521,72.297,118.442,72.324z M119,85.118c0,0.024,0,0.095,0,0.07C119,85.161,119,85.146,119,85.118z
			 M118.832,71.713c0,0.081,0,0.124,0,0.205c0.195-0.067,0.26-0.158,0.26-0.294C118.987,71.66,118.937,71.677,118.832,71.713z
			 M119.092,71.555c0.065-0.022,0.131-0.043,0.131-0.111c0,0-0.065-0.047-0.131-0.024C119.092,71.474,119.092,71.5,119.092,71.555z
			 M121.953,83.43c0,0-0.203,0.007-0.26,0.034c-0.312,0.147-0.678,0.434-0.975,0.567c-0.44,0.199-0.781,0.365-1.172,0.515
			c-0.13,0.05-0.169,0.271-0.192,0.348c-0.015,0.045,0.207,0.067,0.256,0.037c0.365-0.225,0.881-0.593,1.365-0.725
			c0.288-0.078,0.588-0.426,0.913-0.616L121.953,83.43z M119.61,70.763c0.026,0.019,0.041,0.027,0.067,0.046
			c0-0.027,0-0.042,0-0.069C119.651,70.749,119.637,70.754,119.61,70.763z M120.133,70.043c0,0.137,0.035,0.141,0.063,0.114
			c0.072-0.068,0-0.136,0-0.136C120.17,70.03,120.159,70.034,120.133,70.043z M120.458,69.594c0.01-0.007,0.063-0.159,0.063-0.159
			C120.456,69.457,120.445,69.604,120.458,69.594z M120.522,69.299c0.031,0.022,0.266-0.217,0.261-0.221
			C120.752,69.056,120.518,69.295,120.522,69.299z M121.758,67.538c0,0,0.195,0.02,0.195,0.002
			C121.953,67.525,121.758,67.538,121.758,67.538z M129.239,58.575c0.147-0.524,0.857-1.129,1.442-1.748
			c0.572-0.549,1.318-0.823,1.318-1.365c0-0.105,0-0.157,0-0.262c0-0.065,0.048-0.036-0.018,0.034
			c-0.874,0.926-1.961,2.022-2.998,2.935c-0.563,0.496-1.011,1.154-1.597,1.855c-0.286,0.27-0.414,0.404-0.7,0.675
			c-1.171,1.344-2.38,2.66-3.376,3.976c-0.343,0.454-0.654,0.854-1.039,1.207c-0.259,0.238-0.321,0.781-0.321,0.781
			c0.02,0.008,0.415-0.377,0.521-0.505c0.076-0.093,0.439-0.291,0.455-0.28c0.011,0.008,0.197,0.004,0.197,0.004
			c-0.001-0.001-0.188,0.012-0.197-0.004c-0.071-0.134,0.843-1.128,1.109-1.561c0.075-0.121,0.354-0.193,0.384-0.235
			c0.097-0.132-0.42-0.403,0.58-0.563c0,0.054,0,0.08,0,0.133c0-0.02,0.137-0.126,0.137-0.126c-0.002-0.002-0.123-0.007-0.123-0.007
			c-0.04-0.042-0.014-0.923,0.986-1.081c0,0.107,0,0.161,0,0.268c0-0.059,0.156-0.146,0.156-0.347
			c-0.104,0.031-0.235,0.047-0.34,0.079c0-0.133,0.184-0.153,0.184-0.345c0,0.107,0,0.16,0,0.267c0-0.059,0.414,0.015,0.545-0.423
			c-0.209,0.062-0.298,0.094-0.506,0.157c0.195-0.458,0.523-0.757,0.848-1.185c0.13-0.038,0.201-0.057,0.331-0.095
			c-0.065,0.218-0.194,0.523-0.194,0.523c0.016,0.027,0.586-0.306,0.717-0.676c-0.208,0.061-0.312,0.091-0.52,0.152
			c0.195-0.456,0.614-0.839,0.91-1.195c0.065-0.079,0.273-0.11,0.325-0.16c0.153-0.145,0.716-0.666,0.716-0.666
			c0.017,0.025-0.225,0.491-0.195,0.518c0.063,0.059,0.585-0.231,0.65-0.645c-0.182,0.051-0.273,0.076-0.455,0.127
			C129.237,58.708,129.227,58.621,129.239,58.575z M122.604,82.984c0,0-0.065-0.112-0.131-0.088
			c-0.13,0.048-0.196,0.211-0.196,0.211c-0.001,0.009,0.066,0.044,0.196-0.005C122.538,83.078,122.604,83.052,122.604,82.984z
			 M122.276,83.58c0,0,0.196,0.063,0.262,0.038l0.065-0.161c0,0-0.065-0.042-0.131-0.018L122.276,83.58z M122.538,66.675
			c0.026-0.036,0.039-0.052,0.065-0.087c-0.026,0.008-0.039,0.012-0.065,0.021C122.538,66.635,122.538,66.647,122.538,66.675z
			 M122.604,84.266c0-0.027,0-0.038,0-0.065c-0.026,0.037-0.039,0.054-0.065,0.091C122.564,84.281,122.577,84.275,122.604,84.266z
			 M123.642,82.33c-0.001-0.002-0.191-0.061-0.256-0.037l-0.197,0.206c0,0.004,0.197-0.005,0.197-0.005
			C123.45,82.471,123.642,82.33,123.642,82.33z M123.773,65.205l0.131-0.176C123.89,65.022,123.644,65.111,123.773,65.205z
			 M123.904,65.029c0.012,0.011,0.195-0.329,0.195-0.329C124.085,64.693,123.904,65.029,123.904,65.029z M124.359,81.732
			c-0.004-0.004-0.258,0.094-0.323,0.186c-0.026,0.01-0.041,0.015-0.067,0.024c0,0.067,0.011,0.054,0.067,0.043
			C124.196,81.955,124.359,81.732,124.359,81.732z M124.1,64.7c0.032,0.023,0.271-0.276,0.26-0.284
			C124.338,64.4,124.095,64.696,124.1,64.7z M124.359,64.349c0.195-0.061,0.26-0.147,0.26-0.215
			c-0.104,0.032-0.155,0.049-0.26,0.081C124.359,64.269,124.359,64.295,124.359,64.349z M125.528,80.77
			c-0.13,0.047-0.194,0.071-0.324,0.118c-0.324,0.185-0.845,0.845-0.845,0.845C124.392,81.767,125.269,81.265,125.528,80.77z
			 M124.814,35.926c-0.052-0.015-0.079-0.023-0.131-0.038c0,0.067-0.051,0.063-0.064,0.081c-0.031,0.039,0.064,0.121,0.064,0.121
			S124.814,36.061,124.814,35.926z M124.619,64c0.032,0.023,0.259-0.215,0.259-0.215C124.872,63.777,124.614,63.997,124.619,64z
			 M125.27,82.471l-0.065-0.04c-0.104,0.038-0.157,0.056-0.262,0.094c0,0.067,0.133,0.152,0.133,0.152
			C125.078,82.678,125.27,82.471,125.27,82.471z M125.204,35.17c0.026-0.033,0.039-0.047,0.065-0.08
			C125.204,35.104,125.139,35.117,125.204,35.17z M125.401,34.994c0.012,0.009,0.134-0.223,0.127-0.229
			C125.517,34.756,125.387,34.982,125.401,34.994z M125.466,63.271c0.002,0,0.067-0.216,0.063-0.22
			C125.518,63.043,125.466,63.271,125.466,63.271z M126.311,80.225c-0.017-0.016-0.352,0.22-0.455,0.229
			c-0.099,0.01-0.197,0.069-0.327,0.315c0.182-0.065,0.275-0.097,0.457-0.162C126.115,80.561,126.311,80.225,126.311,80.225z
			 M125.725,34.457c-0.065,0.014-0.067,0.079-0.132,0.16C125.645,34.552,125.673,34.521,125.725,34.457z M125.657,63.012
			c0.005,0.002,0.133-0.306,0.133-0.306C125.785,62.704,125.657,63.012,125.657,63.012z M125.855,34.361
			c0.052-0.038,0.078-0.057,0.13-0.094c-0.052-0.042-0.078-0.063-0.13-0.106C125.855,34.241,125.855,34.281,125.855,34.361z
			 M125.855,63.954c0,0.053,0,0.081,0,0.134c0.052-0.016,0.078-0.023,0.13-0.04C125.934,64.011,125.907,63.991,125.855,63.954z
			 M126.57,61.936c0.011,0.008,0.138-0.168,0.132-0.172C126.691,61.755,126.564,61.931,126.57,61.936z M126.635,33.13
			c0.037,0.009,0.067-0.08,0.067-0.08C126.637,33.064,126.59,33.119,126.635,33.13z M126.83,32.956
			c0.012,0.009,0.063-0.214,0.063-0.214C126.892,32.742,126.822,32.95,126.83,32.956z M126.83,61.658
			c0.011,0.008,0.137-0.232,0.131-0.237C126.95,61.413,126.819,61.65,126.83,61.658z M126.961,81.126
			c-0.026,0.01-0.041,0.013-0.067,0.022c0,0.026,0,0.04,0,0.066C126.92,81.179,126.935,81.162,126.961,81.126z M127.48,80.675
			c-0.026,0.009-0.038,0.013-0.064,0.022c-0.052,0.045-0.076,0.067-0.128,0.112C127.366,80.755,127.402,80.729,127.48,80.675z
			 M127.416,32.304c0.006-0.003,0.072-0.141,0.064-0.147C127.469,32.147,127.416,32.304,127.416,32.304z M127.416,62.416
			l0.064-0.217C127.476,62.196,127.286,62.255,127.416,62.416z M127.48,62.198c0.009,0.01,0.261-0.343,0.261-0.343
			C127.722,61.847,127.48,62.198,127.48,62.198z M127.741,78.524c0.002,0.003-0.133,0.245-0.133,0.245
			C127.479,78.614,127.741,78.524,127.741,78.524z M127.741,31.707c-0.002,0.008,0.195,0.093,0.065-0.081L127.741,31.707z
			 M127.741,60.66c0.021,0.016,0.278-0.329,0.262-0.341C127.971,60.294,127.729,60.652,127.741,60.66z M127.807,61.702
			c-0.01,0.006-0.065,0.153-0.065,0.153C127.743,61.858,127.818,61.694,127.807,61.702z M128.194,78.101
			c0.027,0.024-0.453,0.424-0.453,0.424C127.714,78.5,128.194,78.101,128.194,78.101z M128.131,80.178
			c-0.002-0.003-0.064-0.043-0.064-0.043c-0.065,0.089-0.26,0.157-0.26,0.157c-0.001,0.009,0.065,0.043,0.196-0.003L128.131,80.178z
			 M128.003,60.319c0.455-0.132,0.909-0.989,0.909-0.989c-0.013-0.015-0.261,0.138-0.456,0.194
			c-0.104,0.162-0.157,0.245-0.262,0.407C128.116,60.085,128.081,60.164,128.003,60.319z M128.456,77.743
			c0.003,0.002-0.252,0.364-0.262,0.357C128.174,78.086,128.456,77.743,128.456,77.743z M128.326,30.993c0,0.053,0,0.08,0,0.133
			c0.026-0.058,0.039-0.087,0.065-0.145C128.365,30.986,128.353,30.988,128.326,30.993z M128.586,79.489
			c-0.052,0.07-0.078,0.106-0.13,0.177c0.052-0.019,0.078-0.027,0.13-0.046C128.586,79.567,128.586,79.542,128.586,79.489z
			 M128.586,61.143c0.023-0.003,0.073-0.212,0.067-0.216C128.643,60.918,128.582,61.144,128.586,61.143z M128.78,60.623
			c-0.004,0.001-0.063,0.219-0.063,0.219C128.782,60.823,128.78,60.623,128.78,60.623z M129.302,60.408
			c0.004-0.001,0.065-0.218,0.065-0.218C129.363,60.186,129.302,60.408,129.302,60.408z M129.367,60.19
			c0.025,0.014,0.277-0.324,0.26-0.337C129.605,59.836,129.367,60.19,129.367,60.19z M130.146,76.51
			c-0.043-0.037-0.797,0.635-0.778,0.661C129.409,77.229,130.147,76.512,130.146,76.51z M129.627,58.665
			c0.025,0.014,0.271-0.263,0.26-0.272C129.865,58.376,129.627,58.665,129.627,58.665z M129.758,59.685l-0.131,0.168
			C129.628,59.855,129.888,59.779,129.758,59.685z M129.758,29.662c0.025-0.005,0.039-0.008,0.064-0.013c0-0.053,0-0.078,0-0.131
			C129.797,29.575,129.783,29.604,129.758,29.662z M129.887,58.393c0.021,0.02,0.479-0.371,0.455-0.389
			C130.309,57.979,129.885,58.391,129.887,58.393z M130.407,57.986c0.011,0.008,0.142-0.29,0.13-0.299
			C130.526,57.679,130.39,57.973,130.407,57.986z M130.407,75.896c-0.01-0.007,0.065-0.152,0.065-0.152
			C130.537,75.854,130.412,75.899,130.407,75.896z M130.668,57.651c0.011,0.008,0.146-0.285,0.128-0.298
			C130.785,57.345,130.65,57.638,130.668,57.651z M130.796,57.353c0.018,0.02,0.525-0.401,0.522-0.404
			C131.298,56.929,130.796,57.353,130.796,57.353z M131.058,76.471c0,0-0.079,0.165-0.064,0.154
			C131.003,76.618,131.058,76.471,131.058,76.471z M130.928,58.699c0.002,0.003,0.115,0.049,0.13,0.03
			C131.073,58.708,130.928,58.699,130.928,58.699z M131.318,76.122c-0.031-0.022-0.261,0.284-0.261,0.284
			C131.07,76.42,131.323,76.126,131.318,76.122z M131.254,28.335l0.064-0.079C131.318,28.257,131.123,28.293,131.254,28.335z
			 M131.318,28.191l0.064-0.208C131.377,27.985,131.318,28.191,131.318,28.191z M131.318,56.949c0.033,0.025,0.266-0.197,0.26-0.201
			C131.545,56.723,131.313,56.945,131.318,56.949z M132.229,74.841c-0.039-0.031-0.91,1.216-0.91,1.216
			C131.335,76.067,132.229,74.841,132.229,74.841z M131.578,56.617c0.053,0.073,0.659-0.558,0.65-0.566
			C132.19,56.016,131.535,56.557,131.578,56.617z M131.838,74.508c-0.002-0.003-0.27,0.275-0.26,0.282
			C131.6,74.806,131.838,74.508,131.838,74.508z M131.838,57.859c-0.13,0.035-0.194,0.117-0.194,0.117
			c0,0.066,0.064,0.049,0.194,0.014C131.838,57.938,131.838,57.912,131.838,57.859z M132,76.258c0,0,0,0.041,0,0.13
			C132,76.335,132,76.311,132,76.258z M131.838,27.774c0.026,0.021,0.041,0.03,0.067,0.052c0.026-0.031,0.037-0.045,0.063-0.076
			C131.917,27.759,131.89,27.765,131.838,27.774z M131.905,57.645l-0.067,0.214C131.841,57.86,131.971,57.693,131.905,57.645z
			 M132.097,74.162c-0.006-0.008-0.264,0.275-0.259,0.279C131.859,74.457,132.097,74.162,132.097,74.162z M132.097,75.866
			c-0.002-0.003-0.269,0.274-0.259,0.281C131.849,76.155,132.097,75.866,132.097,75.866z M132.229,73.858
			c-0.011-0.008-0.132,0.304-0.132,0.304C132.102,74.164,132.238,73.866,132.229,73.858z M132.164,75.648
			c-0.026,0.062-0.041,0.091-0.067,0.152C132.162,75.779,132.294,75.803,132.164,75.648z M132.293,56.034
			c0.022,0.017,0.214-0.297,0.195-0.312C132.478,55.714,132.274,56.02,132.293,56.034z M132.293,57.017
			c0.052,0.039,0.079,0.058,0.131,0.096c0-0.052,0-0.078,0-0.13C132.372,56.997,132.345,57.003,132.293,57.017z M132.293,73.838
			c0.195-0.127,0.195-0.389,0.195-0.52c-0.078,0.024-0.117,0.038-0.195,0.063C132.293,73.564,132.293,73.654,132.293,73.838z
			 M132.488,74.495c-0.005-0.002-0.21,0.314-0.195,0.325C132.314,74.836,132.488,74.495,132.488,74.495z M132.748,74.215
			c-0.032-0.023-0.27,0.273-0.26,0.28C132.521,74.519,132.753,74.219,132.748,74.215z M132.556,27.126
			c0.052,0.017,0.075,0.025,0.127,0.042c0-0.026,0-0.039,0-0.065C132.631,27.112,132.607,27.117,132.556,27.126z M132.556,55.705
			c0.016,0.008,0.174-0.206,0.127-0.23C132.644,55.454,132.556,55.705,132.556,55.705z M132.748,72.975
			c-0.005-0.002-0.207,0.312-0.192,0.322C132.577,73.313,132.748,72.975,132.748,72.975z M132.748,74.868
			c-0.003-0.001-0.262,0.086-0.065,0.22L132.748,74.868z M134.635,70.307c-0.011-0.008-0.15,0.109-0.195,0.189
			c-0.301,0.533-0.685,1.38-0.978,1.993c-0.082,0.172-0.152,0.748-0.191,0.845c-0.053,0.132-0.528,0.813-0.522,0.815
			c0.046,0.027,0.66-0.49,0.66-0.815C133.59,73.276,134,73.247,134,73.19c0,0.078,0,0.116,0,0.194c0-0.105,0.058-0.125,0.058-0.256
			c-0.078,0.024-0.187,0.037-0.265,0.062c0-0.456,0.316-0.885,0.421-1.12c0.078-0.177,0.19-0.646,0.311-0.88
			C134.693,70.862,134.656,70.323,134.635,70.307z M133.009,74.59c-0.024-0.014-0.261,0.278-0.261,0.278
			C132.752,74.873,133.009,74.59,133.009,74.59z M132.879,72.737c-0.024,0.004-0.068,0.212-0.063,0.216
			C132.826,72.961,132.884,72.736,132.879,72.737z M133.271,74.245c-0.024-0.014-0.276,0.334-0.262,0.345
			C133.03,74.605,133.271,74.245,133.271,74.245z M133.074,26.777c0.026,0.021,0.039,0.034,0.065,0.055c0-0.026,0-0.04,0-0.066
			C133.113,26.771,133.101,26.773,133.074,26.777z M133.397,74.01c-0.052,0.095-0.075,0.141-0.127,0.235
			c0.065-0.021,0.062-0.02,0.127-0.171C133.397,74.049,133.397,74.035,133.397,74.01z M133.66,73.406
			c-0.011-0.008-0.093,0.216-0.065,0.215C133.618,73.62,133.67,73.414,133.66,73.406z M133.855,26.258
			c0.026-0.004,0.038-0.005,0.064-0.01c-0.026-0.048-0.038-0.073-0.064-0.121C133.855,26.18,133.855,26.206,133.855,26.258z
			 M134.048,72.894c0,0-0.063,0.084-0.063,0.215c0.026-0.061,0.037-0.091,0.063-0.151C134.179,72.916,134.048,72.894,134.048,72.894
			z M134.439,71.993c-0.078,0.023-0.117,0.033-0.195,0.058c0,0-0.019,0.159,0,0.195c0.017,0.031,0.001,0.196,0.066,0.176
			c0,0,0.129-0.169,0.129-0.234C134.439,72.109,134.439,72.071,134.439,71.993z M134.635,53.742
			c-0.022-0.018-0.208,0.234-0.195,0.244C134.462,54.003,134.642,53.747,134.635,53.742z M134.57,71.757
			c-0.019-0.001-0.063,0.15-0.063,0.15C134.572,71.888,134.578,71.758,134.57,71.757z M135,68.085c0-0.077,0-0.118,0-0.195
			c0,0.067,0.1,0.1,0.047,0.167c-0.129,0.362-0.093,0.703-0.238,1.005c-0.149,0.312-0.218,1.115-0.218,1.115
			c0.025,0.014,0.479-0.33,0.479-0.46c0-0.454,0.129-0.946,0.158-1.325C135.241,68.212,135,68.15,135,68.085z M134.83,71.288
			c0-0.026,0-0.041,0-0.067c-0.026,0.034-0.038,0.054-0.064,0.088C134.792,71.301,134.804,71.296,134.83,71.288z M135.349,70.094
			c-0.052,0.042-0.075,0.061-0.127,0.103c0.052-0.016,0.075-0.022,0.127-0.038C135.349,70.132,135.349,70.12,135.349,70.094z
			 M135.413,66.835c0,0.155,0,0.234,0,0.389c0,0.195,0.002,0.26,0.067,0.241c0,0,0.109-0.131,0.131-0.232
			c0.026-0.126,0-0.325,0-0.454c-0.052-0.037-0.079-0.057-0.131-0.094C135.48,66.815,135.413,66.835,135.413,66.835z M135.74,69.524
			c0-0.065,0-0.063-0.065-0.043c0,0-0.164,0.081-0.194,0.121c-0.031,0.042,0,0.13,0.131,0.092
			C135.676,69.674,135.74,69.524,135.74,69.524z M135.808,65.751c0.13-0.037,0.177-0.077,0.191-0.118
			c0.023-0.067-0.063-0.5-0.259-0.445c-0.026,0.059-0.039,0.088-0.065,0.147C135.61,65.483,135.677,65.788,135.808,65.751z
			 M135.675,64.753c0.026,0.019,0.039,0.028,0.065,0.046c0-0.065,0.002-0.194,0.067-0.276c-0.026,0.007-0.041,0.011-0.067,0.018
			C135.74,64.542,135.675,64.624,135.675,64.753z M135.74,68.553c-0.026,0.034-0.039,0.052-0.065,0.086
			c0.052-0.015,0.081-0.024,0.133-0.04C135.808,68.534,135.74,68.553,135.74,68.553z M135.74,61.693
			c0.026-0.007,0.041-0.01,0.067-0.017c-0.026-0.019-0.041-0.03-0.067-0.049C135.74,61.653,135.74,61.667,135.74,61.693z
			 M136.066,68.849c-0.011-0.008-0.263,0.074-0.067,0.212C135.999,69.061,136.077,68.857,136.066,68.849z M135.936,62.611
			c0,0.065,0.063,0.177,0.063,0.177c0.006,0.002,0.067-0.148,0.067-0.148c0-0.181,0-0.27,0-0.451l-0.067-0.112
			c0,0-0.063,0.082-0.063,0.147C135.936,62.378,135.936,62.456,135.936,62.611z M136.066,66.392
			c-0.026-0.044-0.041-0.066-0.067-0.11c-0.026,0.059-0.037,0.088-0.063,0.147c0,0,0.063-0.02,0.063,0.044
			C136.025,66.44,136.04,66.425,136.066,66.392z M135.999,67.702c-0.026,0.059-0.037,0.09-0.063,0.149
			c0.026-0.007,0.037-0.011,0.063-0.018C135.999,67.781,135.999,67.754,135.999,67.702z M136.262,53.346
			c-0.014-0.002-0.065,0.209-0.065,0.209C136.262,53.54,136.262,53.346,136.262,53.346z M136.198,63.705
			c0.026,0.019,0.037,0.027,0.063,0.046c0-0.026,0-0.039,0-0.064C136.235,63.694,136.225,63.697,136.198,63.705z M136.783,53.093
			c0-0.128-0.134-0.097-0.134,0.032c0,0.026,0,0.038,0,0.063C136.78,53.158,136.783,53.093,136.783,53.093z M138.018,50.555
			c0.042,0.043-1.171,0.974-1.171,0.974C136.824,51.502,138.018,50.555,138.018,50.555z M138.732,49.885
			c0.029,0.034-0.715,0.67-0.715,0.67C137.987,50.521,138.732,49.885,138.732,49.885z M145.172,45.833
			c-0.01-0.025-0.605,0.275-0.781,0.389c-0.068,0.044-0.194-0.028-0.26-0.017c-0.131,0.023,0-0.188,0.065-0.263
			c0.208-0.087,0.313-0.131,0.521-0.218c0.064-0.137,0.144-0.189,0.259-0.234c0.049-0.02,0.129-0.212,0.129-0.274
			c-0.104,0.018-0.154,0.028-0.259,0.046c-0.325,0.119-0.655,0.4-0.975,0.612c-0.997,0.664-2.082,1.334-3.122,2.054
			c0,0-0.078,0.125-0.065,0.141c0.076,0.092,0.66-0.247,0.976-0.45c0.336-0.217,0.976-0.518,1.171-0.669
			c0.132-0.103,0.455-0.339,0.715-0.576c0.052,0.041,0.079,0.063,0.131,0.104c0,0.063-0.043,0.078-0.065,0.138
			c-0.015,0.039-0.065,0.201-0.065,0.201L145.172,45.833z M140.684,48.833c0.006,0.011,0.486-0.063,0.65-0.196
			c0.319-0.258,0.901-0.705,1.173-0.992c0.085-0.09,0.133-0.211,0.128-0.215C142.519,47.354,140.684,48.833,140.684,48.833z
			 M141.594,49.536c0.04,0.04-0.324,0.577-0.649,0.645c-0.065,0.014-0.195-0.086-0.195-0.086c0-0.063,0.117-0.176,0.13-0.219
			C140.951,49.634,141.583,49.525,141.594,49.536z M142.049,49.382c0,0,0.001,0.063-0.129,0.089
			c-0.104,0.021-0.156,0.032-0.261,0.053c0-0.063,0.18-0.213,0.193-0.23C141.867,49.276,142.049,49.255,142.049,49.382z
			 M142.571,48.962c-0.052,0.061-0.08,0.091-0.132,0.152C142.374,49.064,142.441,48.987,142.571,48.962z M143.545,46.88
			c-0.286,0.053-0.429,0.079-0.715,0.133c-0.078,0.167-0.117,0.25-0.195,0.417C142.96,47.368,143.285,47.244,143.545,46.88z
			 M144.196,47.831c-0.026,0.005-0.039,0.006-0.065,0.011c-0.052-0.041-0.079-0.061-0.131-0.102c0.052-0.01,0.079-0.015,0.131-0.024
			C144.196,47.704,144.196,47.705,144.196,47.831z M144.781,47.033c0.261-0.046,0.39-0.069,0.65-0.115
			c-0.065,0.388-0.509,0.535-0.586,0.542c-0.025,0.002-0.034-0.113-0.064-0.176C144.761,47.242,144.781,47.158,144.781,47.033z
			 M146.797,44.937c-0.011-0.014-0.39,0.027-0.52,0.146c-0.269,0.246-1.105,0.75-1.105,0.75c0.013,0.02,0.562-0.08,0.714-0.185
			C146.197,45.432,146.797,44.937,146.797,44.937z M145.562,45.015c0.052,0.017,0.077,0.024,0.129,0.041
			c0.078-0.088,0.117-0.132,0.195-0.22c-0.104,0.017-0.154,0.024-0.259,0.042C145.562,44.888,145.562,45.015,145.562,45.015z
			 M145.951,44.761c0.156-0.026,0.234-0.039,0.391-0.064c0.195-0.032,0.261-0.104,0.261-0.229c-0.156,0.025-0.234,0.037-0.391,0.063
			C146.147,44.541,145.951,44.698,145.951,44.761z M146.342,46.134c-0.13,0.022-0.195,0.034-0.325,0.056c0,0-0.063,0.07-0.065,0.075
			c-0.01,0.021,0.196,0.091,0.261,0.08C146.277,46.333,146.276,46.208,146.342,46.134z M146.863,45.924l-0.066-0.114
			c-0.26,0.042-0.324,0.303-0.324,0.303c0.006,0.002,0.129-0.084,0.324-0.116L146.863,45.924z M146.732,44.385
			c0.078-0.012,0.116-0.018,0.194-0.03c0.131-0.021,0.133-0.085,0.133-0.085c0-0.062-0.133-0.041-0.133-0.041
			C146.797,44.249,146.732,44.323,146.732,44.385z M149,43.904c0,0.022-0.197,0.035-0.354,0.058
			c-0.585,0.21-1.208,0.663-1.738,0.829c-0.054,0.017-0.092,0.073-0.092,0.073c0.846-0.073,1.184-0.484,2.184-0.897
			C149,43.942,149,43.929,149,43.904z M147.904,45.384c-0.234,0.037-0.353,0.056-0.587,0.093c0,0.125-0.13,0.146-0.13,0.146
			c0,0.062,0.13,0.041,0.13,0.041C147.513,45.694,147.708,45.663,147.904,45.384z M147.447,43.961
			c-0.002,0.007,0.063,0.052,0.194,0.032c0.064-0.01,0.132,0.104,0.263-0.04c0.025-0.029,0.038-0.042,0.063-0.071
			c-0.025-0.021-0.038-0.032-0.063-0.053c-0.104,0.016-0.158,0.024-0.263,0.04C147.511,43.889,147.447,43.961,147.447,43.961z
			 M148.293,45.138c-0.036-0.031-0.428,0.213-0.389,0.246C147.929,45.404,148.332,45.171,148.293,45.138z M148.359,43.637
			c0.052-0.008,0.077-0.012,0.129-0.02c0-0.025,0-0.037,0-0.062C148.437,43.588,148.411,43.604,148.359,43.637z M148.943,44.915
			c0-0.062-0.01-0.051-0.064-0.052c-0.167-0.001-0.525,0.256-0.52,0.264c0.019,0.022,0.323-0.049,0.52-0.202
			C148.904,44.921,148.918,44.919,148.943,44.915z M149.074,43.904c0.004,0.002,0.388-0.179,0.583-0.207
			c0,0,0.067-0.009,0.067-0.071c0,0-0.06-0.046-0.067-0.053C149.608,43.532,149.074,43.904,149.074,43.904z M149.725,44.43
			c0,0-0.081,0.049-0.195,0.09c-0.049,0.018-0.131,0.019-0.131,0.081c0,0,0,0.123,0.065,0.113s0.169-0.124,0.193-0.152
			C149.672,44.545,149.725,44.492,149.725,44.43z M150.439,44.27c0,0-0.073-0.105-0.128-0.106c-0.168-0.003-0.457,0.001-0.522,0.257
			c0.208-0.029,0.314-0.043,0.522-0.072C150.376,44.34,150.439,44.27,150.439,44.27z M150.05,43.336
			c-0.002,0.007,0.194,0.158,0.194,0.158c0.004,0.001,0.132-0.141,0.132-0.141c0-0.062-0.066-0.115-0.132-0.106L150.05,43.336z
			 M150.699,43.803c0-0.123-0.127-0.106-0.323-0.08c0,0,0,0.062-0.064,0.07c0.025,0.021,0.039,0.032,0.064,0.054
			C150.506,43.829,150.569,43.82,150.699,43.803z M151.415,43.893c-0.052-0.042-0.078-0.065-0.13-0.107
			c-0.234,0.03-0.352,0.047-0.586,0.078c0.131,0.229,0.326,0.143,0.586,0.108C151.337,43.94,151.363,43.924,151.415,43.893z
			 M151.285,43.049c0.052-0.056,0.078-0.083,0.13-0.138c-0.156,0.02-0.233,0.029-0.39,0.049
			C151.155,43.067,151.22,43.058,151.285,43.049z M151.609,43.375c-0.002-0.003-0.065-0.052-0.065-0.052
			c-0.065,0.008-0.194,0.087-0.194,0.087c-0.002,0.007,0.065,0.053,0.131,0.045L151.609,43.375z M151.544,42.463
			c-0.026,0.028-0.037,0.043-0.063,0.071c0.052-0.006,0.077-0.011,0.129-0.018C151.584,42.495,151.569,42.485,151.544,42.463z"/>
		<path fill="#FFFFFF" d="M165.523,59.479c0.136-0.343,0.345-0.978,0.519-1.091c0.028-0.019,0.067-0.121,0.197-0.188
			c0.26-0.135,0.459-0.415,0.65-0.567c0.166-0.132,0.52-0.205,0.715-0.331c0.391-0.254,0.662-0.095,0.976,0.067
			c0.579,0.3,1.166,1.041,1.173,1.508c0.003,0.173,0.129,0.579-0.064,0.751c-0.146,0.129-0.235,0.298-0.395,0.479
			c-0.132,0.15-0.155,0.323-0.128,0.469c0.034,0.186-0.326,0.453-0.39,0.6c-0.027,0.064-0.065,0.177-0.065,0.177
			c-0.716,0.331-1.384,0.498-2.019,0.428c-0.354-0.04-0.767-0.274-0.974-0.622c-0.159-0.267-0.26-0.621-0.26-0.973
			C165.459,59.893,165.441,59.684,165.523,59.479z"/>
	</g>
</g>
</svg>
