<?xml version="1.0" encoding="utf-8"?>
<!-- Generator: Adobe Illustrator 16.0.0, SVG Export Plug-In . SVG Version: 6.00 Build 0)  -->
<!DOCTYPE svg PUBLIC "-//W3C//DTD SVG 1.1//EN" "http://www.w3.org/Graphics/SVG/1.1/DTD/svg11.dtd">
<svg version="1.1" xmlns="http://www.w3.org/2000/svg" xmlns:xlink="http://www.w3.org/1999/xlink" x="0px" y="0px" width="960px"
	 height="560px" viewBox="0 0 960 560" enable-background="new 0 0 960 560" xml:space="preserve">
<g id="圖層_1" display="none">
	<g display="inline">
		<text transform="matrix(1 0 0 1 326.791 282.2588)" fill="#231815" font-family="'Quentin'" font-size="72" letter-spacing="-5">PierreStone</text>
		<g>
			<rect x="344.082" y="318.122" fill="#231815" width="270.418" height="22.166"/>
			<g>
				
					<text transform="matrix(1 0 0 1 360.019 333.2969)" fill="#FFFFFF" font-family="'CutiveMono-Regular'" font-size="12.4126" letter-spacing="12">FRENCH</text>
				
					<text transform="matrix(1 0 0 1 492.0742 333.2979)" fill="#FFFFFF" font-family="'CutiveMono-Regular'" font-size="12.4126" letter-spacing="12">BISTRO</text>
			</g>
			<rect x="467" y="318" display="none" fill="#FFFFFF" width="26" height="23"/>
		</g>
	</g>
	<g display="inline">
		<rect x="895" y="-303" fill="#231815" width="200" height="140"/>
		<g>
			<g>
				<path fill="#FFFFFF" d="M959-218.739c0-0.224,0-0.333,0-0.557c0,0.05,0,0.074,0,0.124c0-0.16,0-0.239,0-0.399
					c-1,0.05-1,0.074-1,0.123c0-0.128,0-0.193,0-0.321c0,0.046-0.455,0.026-0.455,0.428c0.182-0.042,0.455-0.063,0.455-0.106
					c0,0.16,0,0.241,0,0.401c0-0.049,0.382-0.075,0.59-0.125c-0.131,0.352-0.229,0.541-0.486,0.766
					c-0.15,0.131-0.373,0.333-0.438,0.429c-0.194,0.287-0.577,0.378-0.577,0.7c0.521-0.123,0.785-0.184,1.306-0.31
					c-0.91,1.102-2.479,2.167-2.535,2.13c-0.023-0.016,0.197-0.61,0.197-0.61c-0.013-0.016-0.405,0.254-0.586,0.377
					c-0.035,0.024-0.127,0.272-0.127,0.272c0.003,0.004,0.127,0.051,0.258,0.021c0.078-0.018,0.117-0.026,0.195-0.044
					c-0.195,0.448-0.351,0.739-0.455,0.992c-0.212,0.512-1.04,0.573-1.105,0.415c-0.041-0.1,0.23-0.395,0.26-0.626
					c0.009-0.071-0.017-0.225-0.063-0.229c-0.098-0.008-0.099-0.037-0.099-0.037c-0.456,0.668-1.334,1.175-1.334,1.614
					c0,0.065,0,0.097,0,0.162c0-0.014,0.096,0.039,0.161,0.024c0.196-0.043,0.334-0.196,0.474-0.438
					c0.16-0.278,0.626-0.471,0.626-0.471c0.071,0.088-0.558,1.091-1.378,1.441c-0.051,0.021-0.182,0.032-0.267,0.139
					c-0.356,0.45-0.783,1.066-1.434,1.287c-0.208,0.24-0.314,0.359-0.522,0.599c-0.39,0.328-0.651,0.711-1.171,0.818
					c-0.26,0.053-0.629,0.355-0.847,0.5c-0.754,0.5-1.67,1.123-2.537,1.56c-0.725,0.366-1.755,0.487-2.73,0.65
					c-0.988,0.166-1.483,0.245-2.472,0.392c-0.196,0.029-0.325-0.288-0.325-0.288c-0.077-0.016-0.543,1.243-0.715,1.865
					c-0.276,1.002-0.733,2.32-1.107,3.441c-0.219,0.655-0.427,1.464-0.651,2.199c-0.21,0.686-0.571,1.458-0.715,2.13
					c-0.086,0.401-0.248,0.813-0.323,1.145c-0.213,0.938-0.825,1.792-0.913,2.669c-0.038,0.379-0.245,0.784-0.388,0.904
					c-0.32,0.268-0.253,1.172-0.457,1.508c-0.224,0.368-0.455,0.828-0.455,1.338c0,0.255-0.126,0.361-0.257,0.631
					c-0.442,0.91-0.689,2.073-1.172,2.888c-0.054,0.091-0.043,0.36-0.066,0.437c-0.054,0.171-0.119,0.584-0.194,0.624
					c-0.227,0.12-0.251,0.567-0.327,0.9c-0.157,0.687-0.195,1.393-0.65,2.054c-0.196,0.283-0.296,0.905-0.453,1.26
					c-0.216,0.489-0.468,1.177-0.719,1.637c-0.197,0.362-0.468,0.412-0.646,0.343c-0.563-0.217-1.041-0.819-1.496-1.459
					c-0.156-0.328-0.234-0.494-0.391-0.824c0-0.864-0.43-1.738-0.281-2.392c0.26-1.143,0.8-2.623,1.8-4.059c0,1.204,0,1.805,0,3.009
					c0,0.066,0.062,0.099,0.088,0.165c0.078-0.009,0.125-0.013,0.203-0.021c0.195-0.366,0.46-0.739,0.655-1.276
					c0,0-0.053-0.252,0.002-0.342c0.12-0.196,0.128-0.868,0.264-0.975c0.122-0.096,0.452-0.571,0.521-0.917
					c0.242-1.218,0.845-2.496,1.104-3.637c0.052-0.451,0.077-0.677,0.129-1.127c0-0.256,0.364-0.661,0.393-0.897
					c0.045-0.373,0.258-0.714,0.453-1.078c0-0.034,0.002-0.052,0.002-0.086c0.064-0.86,0.533-1.691,0.65-2.207
					c0.155-0.684,0.508-1.615,0.716-2.381c0.117-0.433,0.392-0.83,0.521-1.166c0.085-0.221,0.193-0.532,0.193-0.616
					c0.572-2.037,0.86-3.055,1.433-5.084c0.325-1.392,0.117-1.374-0.459-1.977c-0.065-0.069-0.192-0.061-0.257-0.054
					c-0.547-0.651-0.819-0.981-1.366-1.644c0-0.17-0.001-0.254,0.063-0.346c0,0,0.129-0.182,0.194-0.188
					c0.26-0.025,1.368,0.71,1.693,1.012c-0.286,0.032-0.43,0.047-0.716,0.077c0,0.254,0.13,0.326,0.324,0.305
					c0.156-0.017,0.235-0.027,0.392-0.044c0.13,0.324,0.194,0.318,0.39,0.295c0.064-0.007,0.32-0.037,0.391-0.132
					c0.161-0.219,0.409-0.733,0.521-1.242c0.219-0.998,0.589-2.105,0.781-3.125c0.31-1.641,0.856-3.954,1.364-5.365
					c0.2-0.556,0.391-1.47,0.65-2.17s0.357-1.561,0.521-2.233c0.297-1.225,0.724-2.677,0.976-3.951
					c0.2-1.015,0.449-1.891,0.65-2.819c0.313-1.442,0.449-2.726,0.78-3.995c0.377-1.446,0.828-2.849,1.039-4.338
					c0.118-0.833,0.326-1.436,1.433-1.475c0.13-0.014,0.196-0.021,0.326-0.036c1.105,0.29,1.364,0.632,1.302,1.822
					c-0.004,0.078,0.073,0.341,0,0.493c-0.204,0.425-0.263,0.938-0.263,1.349c0,0.247-0.137,0.512-0.192,0.601
					c-0.203,0.323-0.317,0.641-0.393,0.956c-0.12,0.502-0.364,1.225-0.454,1.872c-0.099,0.708-0.476,1.379-0.586,2.058
					c-0.033,0.205-0.168,0.452-0.195,0.602c-0.133,0.734-0.209,1.806-0.521,2.551c-0.141,0.336-0.378,0.893-0.39,1.212
					c-0.031,0.889-0.526,1.933-0.653,2.74c-0.109,0.697-0.429,1.582-0.453,2.22c-0.031,0.809-0.455,1.475-0.521,2.232
					c-0.208,0.694-0.311,1.042-0.519,1.738c-0.26,0.952-0.499,1.943-0.716,2.852c-0.223,0.932-0.449,1.915-0.847,2.876
					c-0.138,0.333-0.186,0.887-0.262,1.209c-0.12,0.511,0.202,0.675,0.522,0.509c0.429-0.223,0.91-0.387,1.365-0.293
					c0,0,0.147,0.042,0.131,0.062c-0.03,0.035-0.194,0.114-0.194,0.114c-0.104,0.15-0.157,0.224-0.261,0.374
					c0.845,0.034,1.691-0.446,2.406-0.896c1.097-0.69,2.097-1.688,3.121-2.301c0.582-0.348,1.042-0.542,1.496-0.946
					c1.199-1.065,3.368-2.277,3.774-3.387c0.036-0.1,0.063-0.256,0.128-0.27c0.65-0.14,1.063-0.87,1.496-1.215
					c0.517-0.412,0.958-0.964,1.301-1.419c0.301-0.4,0.63-0.165,0.65-0.148c0.014,0.011,0.057,0.302,0.064,0.308
					c0.068,0.054,0.607-0.572,0.781-0.742c0.184-0.18,0.78-0.584,1.04-1.205c-0.104,0.024-0.157,0.037-0.262,0.062
					c-0.065-0.145-0.193-0.116-0.193-0.195c0,0,0.128-0.11,0.193-0.125c0.104-0.024,0.159-0.036,0.264-0.061
					c0,0.128-0.002,0.191-0.002,0.319c0.13-0.031,0.188-0.316,0.261-0.38c0.08-0.07,0.45-0.305,0.65-0.554
					c0.164-0.203,0.65-0.476,0.65-0.476c0.019,0.022-0.328,0.552-0.391,0.653c-0.098,0.155-0.195,0.524-0.195,0.524
					c0.005,0.007,0.128,0.171,0.118,0.192c-0.007,0.014-0.272,0.016-0.272,0.127c0-0.127,0-0.192,0-0.319
					c0,0.078-0.507,0.379-0.703,0.745c0.026-0.006-0.111-0.009-0.085-0.016c-0.026,0.038-0.212,0.058-0.212,0.096
					c0-0.032,0-0.048,0-0.08c0,0.096-0.01,0.208-0.01,0.367c0,0.032,0.095,0.047,0.095,0.079c0.078-0.019,0.164-0.028,0.242-0.047
					c0,0,0.087,0.144,0.087,0.224c0.182-0.044,0.285-0.064,0.467-0.108c-0.065,0.255-0.187,0.525-0.316,0.716
					c-0.156,0.325-0.232,0.49-0.389,0.815c0.26-0.223,0.678-0.502,0.912-0.623c0.045-0.023,0.268,0.02,0.261,0.097
					c-0.005,0.059-0.096,0.255-0.194,0.367c-0.066,0.075-0.219,0.112-0.415,0.161C959.479-219.071,959-218.962,959-218.739z
					 M975.309-247.966c0.079-0.297,0.064-0.781,0.064-1.163c-0.025-0.055-0.039-0.083-0.064-0.138c0,0-0.173,0.177-0.195,0.199
					c-0.089,0.086-0.207,0.595-0.194,0.812c0.062,1.059-0.136,2.639-0.324,3.298c-0.124,0.434-0.476,1.715-0.459,1.726
					c0.047,0.029,0.252-0.654,0.459-0.805c0.315-0.23,0.194-0.585,0.063-0.937c0.156-0.039,0.233-0.058,0.39-0.097
					c0.131-0.032,0.491-0.161,0.521,0.102c0.015,0.135-0.182,0.414-0.26,0.523c-0.074,0.104-0.217,0.189-0.252,0.277
					c-0.065,0.163-0.057,0.323-0.057,0.46c0,0.092,0,0.139,0,0.23c-1,0.471-1,1.469-1,1.848c0-0.185,0-0.277,0-0.462
					c0-0.373,0.227-1.118,0.195-1.141c-0.033-0.026-0.548,0.36-0.548,0.36c-0.026-0.012-0.038-0.843,0.115-1.108
					c0.261-0.452,0.435-1.667,0.381-1.709c-0.022-0.018-0.177,0.072-0.196,0.202c-0.225,1.537-1.627,3.45-2.081,4.979
					c-0.086,0.29-0.23,0.68-0.331,0.933c-0.261,0.659-0.908,1.389-1.168,2.229c-0.26,0.841-0.602,1.312-1.107,1.908
					c-0.325,0.383-0.612,0.992-0.976,1.414c-0.067,0.078-0.089,0.545-0.066,0.563c0.011,0.009,0.132,0.045,0.132,0.045
					c0.018,0.021-0.132,0.033-0.132-0.045c-0.26,0.315-0.391,0.474-0.65,0.789c-0.195,0.283,0.1,0.258,0.197,0.262
					c0.048,0.002,0.13,0.185,0.13,0.202c-0.001,0.044-0.285,0.36-0.263,0.377c0.033,0.026,0.212-0.313,0.263-0.377
					c0.031-0.041,0.195-0.127,0.195-0.127c0.846-0.996,1.432-2.156,2.017-3.159c0.738-1.266,1.445-2.697,1.951-4.133
					c0.265-0.753,0.578-1.533,0.975-2.173c0.203-0.328,0.585-1.069,0.585-1.069c0.06,0.023-0.169,1.119-0.388,1.482
					c-0.479,0.796-0.812,1.826-1.172,2.609c-0.537,1.168-1.104,2.457-1.691,3.45c-1.729,2.925-3.447,5.711-5.333,8.393
					c-1.067,1.435-1.601,2.155-2.668,3.594c-0.39,0.573-0.912,1.019-1.302,1.591c-0.065,0.096-0.259,0.064-0.323,0.08
					c0.104-0.249,0.155-0.373,0.26-0.621c-0.131-0.127-0.195-0.111-0.195-0.19c0,0,0.064-0.095,0.195-0.126c0,0.127,0,0.189,0,0.316
					c0.065-0.016,0.195-0.205,0.195-0.364c-0.078,0.019-0.117,0.029-0.195,0.048c0.065-0.175-0.056-0.316-0.032-0.445
					c0.027-0.151,0.032-0.351,0.032-0.382c0-0.127,0-0.191,0-0.318c0,0.044,0.098,0.065-0.084,0.109
					c0.064-0.413,0.084-0.632,1.084-0.728c0,0.095,0,0.143,0,0.238c0-0.095,0.055-0.128,0.119-0.303
					c-0.104,0.025-0.218,0.039-0.322,0.064c0.104-0.152,0.203-0.229,0.203-0.381c0,0.127,0,0.19,0,0.317c0-0.051,0-0.076,0-0.127
					c0,0.095,0,0.142,0,0.237c1-0.048,0.195-0.126,0.26-0.301c-0.104,0.026,0.74,0.038-0.26,0.063c0-0.127,0-0.189,0-0.316
					c0,0.051-0.063,0.076-0.271,0.126c0.104-0.279,0.281-0.417,0.385-0.696c-0.194,0.047-0.27,0.204-0.461,0.363
					c-0.316,0.262-0.943,0.869-0.943,0.869c-0.01-0.003-0.009-0.376,0.08-0.573c0.117-0.26,0.401-0.586,0.528-0.678
					c0.742-0.538,1.174-1.411,1.825-2.183c0.253-0.3,0.449-0.694,0.652-1.027c0.227-0.371,1.302-1.658,1.692-1.99
					c0.025-0.006,0.04-0.009,0.065-0.016c0-0.393,0.191-0.767,0.391-0.96c0.135-0.131,0.457,0.021,0.455,0.123
					c-0.002,0.103-0.246,0.254-0.195,0.283c0.018,0.01,0.064-0.094,0.195-0.283c0.13-0.158,0.193-0.236,0.323-0.394
					c0.455-1.053,1.116-2.342,1.628-2.984c0.355-0.446,0.932-1.458,1.041-1.816c0.119-0.39,0.392-1.261,0.716-1.884
					c0.325-0.624,0.583-1.081,0.845-1.682c0.83-1.905,1.594-3.791,2.278-5.725c0.59-1.667,1.169-3.505,1.169-5.424
					c0-0.153,0.018-0.466,0.064-0.553c0.225-0.417,0.117-0.886,0.132-1.407c0.031-1.134-0.031-2.567-0.196-3.564
					c-0.147-0.887-0.261-2.017-0.781-2.834c-0.131-0.204-0.252-0.432-0.324-0.55c-0.425-0.69-0.967-1.7-1.496-2.488
					c-1.086-1.619-3.057-1.848-4.618-2.692c-0.182,0.029-0.275,0.044-0.457,0.073c-0.26,0.041-0.474-0.152-0.583-0.538
					c-0.076-0.266-0.562-0.203-0.586-0.224c-0.015-0.012-0.128-0.059-0.128-0.059c0.004,0.006,0.128,0.059,0.128,0.059
					c0.004,0.007-0.128,0.334-0.128,0.334c-0.586-0.304-1.173-0.14-1.823-0.047c-0.442,0.063-0.663,0.095-1.105,0.156
					c-0.065,0.009-0.182-0.283-0.259-0.28c-0.121,0.003-0.472,0.123-0.603,0.299c-0.598-0.015-0.635-0.022-1.635-0.042
					c0-0.064,0-0.097,0-0.161c0-0.344,0.141-0.397-0.053-0.373c-0.678,0.084-0.943,0.123-1.62,0.201
					c-0.13,0.015-0.225,0.27-0.225,0.27c0,0.001,1.059-0.042,1.709-0.122c0.026,0.092,0.048,0.14,0.074,0.232
					c0,0.08-0.11,0.363-0.191,0.343c-0.297-0.073-0.882,0.146-1.426,0.172c-0.427,0.021-0.808,0.167-1.172,0.455
					c-0.323,0.255-1.013,0.376-1.374,0.451c-0.115,0.024,0.277-0.048-0.723-0.27c0-0.097,0-0.146,0-0.242
					c1-0.026,0.683-0.096,0.854-0.147c0.051-0.015,0.296-0.263,0.296-0.263c-0.006-0.015-0.859,0.012-1.25,0.132l-0.17,0.262
					c0.005,0.022,0.298,0.359,0.208,0.547c-0.114,0.239-0.356,0.295-0.513,0.295c-0.117,0-0.296,0.406-0.453,0.449
					c-0.574,0.158-1.281,0.345-1.82,0.653c-0.573,0.327-1.169,0.752-1.884,0.807c-0.026,0.002-0.038,0.004-0.064,0.006
					c-0.455,0.607-1.104,0.737-1.625,1.019c-0.208,0.146-0.314,0.219-0.522,0.364c-0.91,0.964-1.988,1.595-2.798,2.146
					c-0.303,0.206-0.821,0.554-1.104,0.965c-0.287,0.418-0.803,0.777-1.234,1.051c-1.158,0.734-2.06,2.073-2.992,2.855
					c-0.195,0.164-0.332,0.433-0.39,0.514c-0.098,0.137-0.128,0.359-0.26,0.509c-0.45,0.513-1.225,1.16-1.627,1.883
					c-0.151,0.272-0.456,0.682-0.716,0.938c-0.26,0.257-0.45,0.434-0.521,0.935c-0.06,0.42-0.386,0.977-0.649,1.276
					c-0.225,0.255-0.328,0.822-0.586,0.937c-0.357,0.16-0.194,0.954-0.583,1.275c-0.311,0.257-0.394,0.981-0.522,1.363
					c-0.023,0.069-0.28,0.354-0.325,0.341c-0.32-0.096-0.425,0.066-0.324,0.339c0.114,0.309,0.134,0.614,0,0.854
					c-0.151,0.272-0.326,0.511-0.326,0.938c0,0.342-0.201,0.591-0.39,0.767c-0.131,0.122-0.326,0.513-0.326,0.855
					c0,0.599-0.378,1.24-0.26,1.538c0.11,0.277-0.042,0.774,0.129,1.199c0.127,0.316-0.21,0.755-0.129,1.197
					c0.025,0.138-0.272,0.476-0.326,0.771c-0.025,0.138,0.049,0.513,0.13,0.6c0.207,0.22-0.06,0.528-0.193,0.771
					c-0.076,0.138-0.066,0.344,0.063,0.515s0.232,0.3,0.195,0.598c-0.028,0.231,0.021,0.623,0,0.855
					c-0.029,0.315-0.115,0.699-0.259,0.946c-0.291,0.502-0.083,1.19,0,1.711c0.022,0.143,0.049,0.44,0,0.773
					c-0.085,0.575,0.007,1.132-0.075,1.288c-0.078,0.147-0.658,0.181-0.658,0.27c0-0.275,0-0.413,0-0.688
					c0-0.085-0.033-0.083-0.033-0.255c0,0,0.033,0.172,0.033,0.258c0,0.344,0,0.516,0,0.859c-1,0.089-0.861,0.44-0.869,0.435
					c-0.035-0.022-0.032-0.471,0.02-0.688c0.107-0.45-0.357-1.36-0.185-2.066c0.14-0.569,0.031-1.429-0.027-1.978
					c-0.024-0.229-0.05-0.543-0.078-0.776c-0.009-0.075-0.067-0.351-0.027-0.43c0.336-0.656,0.167-1.634,0.167-2.493
					c0-0.481,0-0.722,0-1.203c0-0.034,0.062-0.052,0.088-0.086c0.078,0.07,0.125,0.104,0.203,0.174c0,0.258,0.177,0.627,0.266,0.775
					c0.021,0.036,0.199,0.089,0.199,0.089c-0.006-0.012-0.195-0.089-0.195-0.089c0-0.257,0.033-0.389,0.065-0.512
					c0.075-0.283,0.133-0.854-0.13-0.949c-0.082-0.03-0.38-0.087-0.38-0.259c0-0.602-0.116-1.032-0.116-1.632
					c0-0.034,0-0.052,0-0.086c0-0.169,0.377-0.254,0.443-0.253c0,0,0.201,0.104,0.216,0.259c0.029,0.316,0.341,0.775,0.341,1.292
					c0-0.446,0-0.669,0-1.116c0-0.085,0.074-0.343,0.074-0.343c0.652-0.335,0.463-1.024,0.463-1.624
					c0-0.514,0.463-0.855,0.463-1.107c0-0.171,0-0.259,0-0.43c0-0.172-0.212-0.333-0.069-0.514c0.129-0.164,0.336-0.599,0.519-0.935
					c0.133-0.246,0.049-0.62,0.13-0.767c0.137-0.247,0.099-0.855,0.323-1.107c0.197-0.223,0.196-0.595,0.196-0.937
					c0-0.085,0.001-0.288,0.065-0.341c0.438-0.365,0.455-1.446,0.91-2.038c0.104-0.067,0.157-0.1,0.261-0.167
					c0.196-0.85,0.606-1.491,0.91-2.033c0.134-0.239,0.382-0.457,0.521-0.676c0.674-1.065,1.424-2.41,2.275-3.303
					c0.566-0.595,1.366-1.194,1.887-2.042c0.078-0.136,0.117-0.204,0.195-0.34c0.064-0.085,0.354-0.086,0.455-0.175
					c0.967-0.845,2.26-1.962,3.121-2.76c0.454-0.421,0.977-0.628,1.432-1.138c0.385-0.431,1-0.731,1.43-0.977
					c0.575-0.329,1.368-0.735,2.019-1.105c1.626-0.924,3.126-1.7,4.876-2.409c0.775-0.314,1.772-0.624,2.472-0.798
					c0.163-0.041,0.349,0.083,0.393,0.202c0.019,0.049-0.004,0.32,0.191,0.059c0,0-0.19-0.058-0.191-0.059
					c-0.017-0.021,0.203-0.335,0.258-0.349c0.468-0.118,1.248-0.251,1.693-0.424c0.091-0.035,0.345,0.079,0.389,0.195
					c0.019,0.048,0.194,0.057,0.194,0.057c-0.006-0.009-0.187-0.013-0.194-0.057c-0.016-0.085,0.192-0.422,0.258-0.43
					c1.691-0.195,2.538-0.303,4.229-0.533c0.521,0.325,1.104,0.086,1.624,0.248c0.599,0.166,0.897,0.245,1.496,0.404
					c1.041,0.155,1.983,0.763,2.799,0.96c0.612,0.148,1.203,0.512,1.563,0.896c0.463,0.495,1.065,1.228,1.493,1.818
					c0.091,0.125,0.309-0.198,0.457-0.24c0.156-0.045,0.559,0.88,0.715,1.096c0.149,0.208,0.843,0.525,0.843,1.293
					c0,0.845,0.659,1.387,0.783,1.835c0.03,0.108,0.194,0.113,0.194,0.113c0.521-0.262,0.262,0.35,0.455,0.517
					c0.352,0.303,0.513,0.977,0.716,1.45c0.059,0.137,0.29,0.373,0.228,0.596c-0.184,0.665-0.512,1.452,0.488,2.141
					c0,0.305,0,0.458,0,0.764c0,0.595-0.131,1.249-0.1,1.89c0.018,0.363-0.274,0.732-0.34,1.206l0.153,0.03
					c0.005,0.009-0.207-0.024-0.215-0.03c-0.045-0.036-0.294,0.578-0.271,0.596c0.012,0.009,0.117,0.039,0.125,0.045
					c0.022,0.018,0.322,0.075,0.322,0.075c0.065,0.137-0.058,0.36-0.196,0.43c-0.116,0.058-0.194,0.273-0.26,0.365
					c-0.131,0.184-0.26,0.293-0.26,0.293c0.065,0.596-0.433,1.562-0.326,1.685c0.045,0.052,0.345,0.206,0.193,0.334
					c-0.257,0.219-0.519,0.663-0.259,1.058c-0.026,0.037-0.041,0.055-0.067,0.092c-0.13,0.032-0.177,0.024-0.192-0.028
					c-0.097-0.323,0.063-0.8,0.192-1.12c0.018-0.044,0.137-0.326,0.133-0.337C975.617-247.332,975.16-247.409,975.309-247.966z
					 M930.496-181.473c-0.052-0.063-0.076-0.093-0.128-0.155c0,0.103,0,0.154,0,0.257
					C930.368-181.457,930.496-181.473,930.496-181.473z M930.627-233.375c-0.026,0-0.039-0.001-0.065-0.001
					c0.026,0.069,0.039,0.103,0.065,0.172C930.627-233.273,930.627-233.306,930.627-233.375z M930.951-240.67
					c-0.011,0.003-0.129-0.261-0.129-0.347l0.129-0.17c0.003,0,0.063,0.26,0.063,0.26
					C931.015-240.841,930.951-240.67,930.951-240.67z M930.951-182.816c0-0.069,0-0.104,0-0.172
					c-0.052,0.075-0.077,0.112-0.129,0.187C930.874-182.808,930.899-182.81,930.951-182.816z M931.277-184.057
					c-0.195,0.024-0.224,0.144-0.195,0.366c0.01,0.075,0,0.086,0.131,0.07c0,0,0.064-0.008,0.064-0.094
					C931.277-183.852,931.277-183.92,931.277-184.057z M931.213-241.868l0.064,0.089l-0.064,0.169
					C931.082-241.784,931.082-241.871,931.213-241.868z M938.954-207.046c-0.016-0.014-0.045-0.219-0.135-0.235
					c-0.101-0.018-0.503,0.08-0.516,0.319c-0.031,0.568-0.357,1.235-0.523,1.669c-0.283,0.742-0.704,1.767-0.714,2.033
					c-0.008,0.227-0.016,1.021-0.198,1.38c-0.266,0.522-0.453,0.988-0.453,1.75c0,0.339-0.062,0.733-0.262,0.965
					c-0.419,0.485-0.519,1.339-0.714,2.042c-0.234,0.743-0.352,1.115-0.586,1.859c-0.779,2.225-1.495,4.274-2.145,6.491
					c-0.026,0.003-0.037,0.004-0.063,0.007c0,0.342-0.102,0.61-0.263,0.803c-0.266,0.317,0.001,0.856,0,1.025
					c-0.004,0.519-0.91,1.912-1.105,2.707c0.052-0.006,0.077-0.009,0.129-0.015c0.521-0.75,0.916-1.708,0.977-2.692
					c0.005-0.08,0.064-0.092,0.064-0.092c0.455-1.255,1.004-2.533,1.366-3.761c0.204-0.691,0.475-1.345,0.716-1.966
					c0.27-0.694,0.63-1.423,0.716-2.133c0.045-0.371,0.243-0.982,0.391-1.41c0.466-1.346,0.999-2.938,1.431-4.423
					c0.603-2.074,1.108-5.602,1.886-6.241C938.977-206.982,938.963-207.039,938.954-207.046z M931.668-243.401
					c0-0.068,0-0.102,0-0.17c0.026,0,0.039,0,0.065,0c0,0.068,0,0.103,0,0.171C931.707-243.4,931.694-243.4,931.668-243.401z
					 M932.123-245.191c-0.072-0.074,0.129-0.681,0.324-0.678c0.131,0.002,0.131,0.002,0.131,0.088c0,0.256-0.197,0.68-0.392,0.677
					C932.187-245.104,932.135-245.18,932.123-245.191z M932.447-188.826c0.052,0.028,0.079,0.042,0.131,0.07
					C932.578-188.841,932.578-189.013,932.447-188.826z M932.709-246.377l-0.063-0.087c0-0.171,0.063-0.17,0.063-0.17
					s0.128,0.003,0.128,0.174L932.709-246.377z M933.164-247.908c0-0.085,0.084-0.204,0.13-0.339
					c0.019-0.055,0.065-0.083,0.131-0.083c0.052,0.035,0.075,0.052,0.127,0.086c-0.104,0.203-0.153,0.307-0.258,0.51
					C933.164-247.735,933.164-247.908,933.164-247.908z M934.011-249.428c0-0.068,0-0.103,0-0.171
					c0.065,0.001,0.063,0.085,0.063,0.085S934.011-249.513,934.011-249.428z M934.335-190.516c0-0.085-0.067-0.077-0.197,0.025
					c0.052,0.062,0.081,0.092,0.133,0.153C934.271-190.338,934.335-190.346,934.335-190.516z M934.597-248.572
					c-0.005-0.008-0.133-0.087-0.133-0.087S934.601-248.566,934.597-248.572z M934.597-191.147c0-0.085-0.067-0.077-0.067-0.077
					c-0.065,0.009-0.065,0.094,0,0.085C934.556-191.143,934.57-191.144,934.597-191.147z M934.789-250.782c0,0-0.064,0-0.064-0.17
					c0.052,0,0.077,0.001,0.129,0.002C934.854-250.78,934.789-250.782,934.789-250.782z M935.309-193.71
					c-0.025,0.003-0.038,0.005-0.063,0.009c0,0.068,0,0.102,0,0.17C935.271-193.603,935.283-193.639,935.309-193.71z
					 M936.025-252.81c0,0,0.002-0.085-0.063-0.085c0.078,0,0.113,0,0.191,0.001C936.153-252.809,936.025-252.81,936.025-252.81z
					 M936.611-253.485c-0.195-0.254,0.064-0.254,0.064-0.254C936.68-253.738,936.611-253.485,936.611-253.485z M936.805-253.739
					c-0.053-0.053,0.131-0.339,0.131-0.339C936.948-254.074,936.815-253.729,936.805-253.739z M936.936-254.078
					c-0.002-0.006,0.239-0.275,0.261-0.253C937.231-254.296,936.936-254.078,936.936-254.078z M937.196-199.218l-0.065-0.077
					c0,0-0.064,0.18-0.064,0.349c0,0.085,0.064,0.075,0.064,0.075C937.131-198.957,937.196-199.133,937.196-199.218z
					 M937.196-254.416c-0.035-0.035,0.293-0.285,0.325-0.253C937.539-254.651,937.229-254.384,937.196-254.416z M937.196-209.193
					c0-0.135,0-0.202,0-0.337c0.13-0.015,0.195-0.022,0.325-0.037c0.052,0.095,0.078,0.144,0.13,0.239
					c-0.064,0.007-0.064,0.091-0.13,0.099C937.392-209.214,937.326-209.208,937.196-209.193z M937.521-200.193
					c-0.052-0.027-0.08-0.041-0.132-0.067c-0.065,0.094-0.063,0.18-0.063,0.349c0.026-0.003,0.036-0.008,0.063-0.011
					C937.39-200.092,937.391-200.091,937.521-200.193z M938.041-254.758c-0.208,0.001-0.312,0.003-0.52,0.003
					c0.065-0.422,0.259-0.507,0.52-0.592C938.041-255.11,938.041-254.994,938.041-254.758z M937.651-201.056
					c-0.025,0.003-0.04,0.006-0.065,0.01c0,0.067,0,0.101,0,0.168C937.65-200.886,937.651-200.887,937.651-201.056z
					 M938.041-255.347c-0.003,0,0.063-0.254,0.063-0.254C938.3-255.348,938.041-255.347,938.041-255.347z M938.691-255.858
					c0-0.084-0.128-0.081-0.128-0.25c0-0.084,0.171-0.155,0.192-0.17c0.065-0.045,0.196-0.002,0.196,0.082c0,0.034,0,0.051,0,0.085
					C938.848-256.009,938.796-255.96,938.691-255.858z M938.691-204.233c-0.052,0.007-0.076,0.013-0.128,0.02
					c0,0.168,0.128,0.15,0.128,0.15C938.691-204.131,938.691-204.166,938.691-204.233z M939.473-208.881
					c0.019-0.021-0.035-0.063-0.066-0.075c-0.098-0.037-0.259-0.135-0.454,0.058c-0.052,0.007-0.081,0.01-0.133,0.017
					c0.131,0.067,0.197,0.228,0.392,0.203C939.276-208.687,939.46-208.866,939.473-208.881z M939.278-206.081
					c-0.006-0.007-0.067,0.262-0.067,0.262C939.216-205.821,939.28-206.079,939.278-206.081z M941.098-214.967
					c0.202-0.936,0.516-1.83,0.65-2.927c0.125-1.015,0.522-1.975,0.821-2.938c0.104-0.337,0.431-0.857,0.431-1.215
					c0-0.133,0-0.201,0-0.334c0-0.167-0.171-0.234-0.171-0.317c-0.052,0.073-0.099,0.11-0.151,0.184
					c-0.324,1.208-0.737,2.459-1.052,3.635c-0.151,0.565-0.48,1.244-0.523,1.654c-0.109,1.042-0.543,2.008-0.651,2.931
					c-0.077,0.663-0.327,1.298-0.522,1.911c-0.313,1.047-0.469,1.571-0.781,2.621c0,0.336,0.065,0.328,0.131,0.319
					c0.261-0.034,0.495-0.081,0.585-0.412C940.303-211.472,940.727-213.254,941.098-214.967z M939.342-206.09
					c0.005,0.001,0.13-0.018,0.064-0.177L939.342-206.09z M939.991-257.051c0-0.034,0-0.049,0-0.083l-0.128-0.083
					c-0.01-0.019,0.128-0.001,0.128,0.083c0.052-0.001,0.08-0.002,0.132-0.003C940.071-257.103,940.043-257.085,939.991-257.051z
					 M940.317-255.964c-0.078,0.001-0.116,0.002-0.194,0.003c0,0.083,0.064,0.082,0.064,0.082S940.317-255.881,940.317-255.964z
					 M940.317-209.667c-0.052-0.026-0.078-0.038-0.13-0.064c0,0.067,0,0.1,0,0.167C940.239-209.606,940.266-209.626,940.317-209.667
					z M940.643-211.136c0,0-0.001,0.168,0.063,0.159c0-0.101,0-0.151,0-0.252C940.706-211.145,940.643-211.136,940.643-211.136z
					 M942.918-207.383c-0.182-0.104-0.271-0.155-0.453-0.26c-0.131,0.021-0.182-0.077-0.262,0.041
					c-0.26,0.382-1.053,0.156-1.365,0.291c-0.113,0.049-0.206,0.355-0.195,0.364C940.775-206.831,942.072-206.995,942.918-207.383z
					 M941.033-255.981c-0.052,0.001-0.078,0-0.13,0.002c0.052,0.032,0.078,0.048,0.13,0.08
					C941.033-255.933,941.033-255.948,941.033-255.981z M940.903-208.157c0,0.067,0,0.101,0,0.168
					c0.052-0.075,0.078-0.112,0.13-0.187C940.981-208.168,940.955-208.165,940.903-208.157z M941.293-213.068
					c0-0.033,0-0.05,0-0.083c0.065-0.26,0.085-0.492,0.063-0.511c-0.036-0.032-0.258,0.287-0.192,0.529
					C941.216-213.106,941.241-213.094,941.293-213.068z M941.293-209.219c-0.052,0.008-0.077,0.012-0.129,0.02
					c0,0.083,0.129,0.065,0.129,0.065c0.521,0.091,1.041,0.012,1.627-0.331c0-0.067,0-0.1,0-0.167
					C942.334-209.54,941.813-209.462,941.293-209.219z M941.424-213.671c0.005,0.001,0.13-0.018,0.065-0.176L941.424-213.671z
					 M941.553-256.417c-0.005-0.002-0.166,0.123-0.063,0.17C941.521-256.232,941.553-256.417,941.553-256.417z M941.748-256.757
					c-0.006-0.002-0.13,0.256-0.13,0.256C941.623-256.499,941.748-256.757,941.748-256.757z M942.01-257.1
					c-0.009,0.003-0.145,0.243-0.131,0.255C941.905-256.818,942.01-257.1,942.01-257.1z M942.01-208.405c0,0,0,0.083-0.131,0.103
					c0.052,0.059,0.079,0.088,0.131,0.147c0.025-0.071,0.039-0.106,0.064-0.177C942.049-208.362,942.035-208.376,942.01-208.405z
					 M942.658-257.454c-0.13,0.004-0.129,0.171-0.193,0.174l0.064,0.081L942.658-257.454z M943.181-257.806
					c-0.019-0.026-0.539,0.249-0.522,0.27C942.69-257.496,943.191-257.791,943.181-257.806z M943.375-208.873
					c-0.006-0.009-0.194-0.051-0.194-0.051c-0.156,0.025-0.235,0.038-0.392,0.063c0,0-0.002,0.082-0.067,0.092
					c0.026,0.063,0.041,0.094,0.067,0.157c0.131-0.021,0.203-0.005,0.261-0.042C943.117-208.696,943.375-208.873,943.375-208.873z
					 M942.984-258.715c0,0.033,0,0.05,0,0.083c0.025-0.034,0.04-0.052,0.065-0.086C943.024-258.717,943.01-258.716,942.984-258.715z
					 M942.984-223.473c0,0,0.001,0.167,0.065,0.242c0-0.167,0-0.251,0-0.417C942.985-223.64,942.984-223.556,942.984-223.473z
					 M943.439-258.148c-0.039-0.038-0.267,0.337-0.259,0.343C943.209-257.788,943.479-258.111,943.439-258.148z M943.244-224.586
					c0.052-0.006,0.079-0.011,0.131-0.017c0-0.167,0-0.249,0-0.416c0-0.083-0.119-0.051-0.131,0.016
					C943.217-224.853,943.244-224.753,943.244-224.586z M943.895-258.5c-0.039-0.038-0.484,0.318-0.455,0.352
					C943.467-258.117,943.946-258.451,943.895-258.5z M943.765-259.327c0.052-0.002,0.078-0.002,0.13-0.004
					c-0.052-0.031-0.078-0.048-0.13-0.08C943.765-259.377,943.765-259.36,943.765-259.327z M944.154-258.843
					c-0.013-0.012-0.232,0.303-0.193,0.34C943.987-258.478,944.18-258.819,944.154-258.843z M944.154-209.25
					c0.261-0.044,0.809-0.271,0.782-0.298c-0.031-0.033-0.521,0.087-0.782,0.213c-0.078,0.013-0.115,0.019-0.193,0.032
					C944.091-209.241,944.09-209.239,944.154-209.25z M944.673-259.282c-0.006-0.002-0.518,0.375-0.453,0.436
					C944.259-258.809,944.673-259.282,944.673-259.282z M945.521-208.41c-0.023-0.024-0.651,0.199-0.912,0.245
					c0,0-0.065,0.012-0.065,0.177c0.025,0.029,0.04,0.042,0.065,0.071C944.87-207.963,945.521-208.41,945.521-208.41z
					 M945.259-259.642c-0.024-0.029-0.596,0.345-0.586,0.359C944.697-259.248,945.29-259.603,945.259-259.642z M944.806-260.034
					c0,0.033,0,0.05,0,0.083c0.065-0.003,0.131-0.089,0.131-0.089l-0.065-0.164C944.806-260.201,944.806-260.034,944.806-260.034z
					 M944.937-209.548c0.021,0.023,0.455-0.08,0.649-0.28c0.052-0.042,0.08-0.063,0.132-0.106c-0.052,0.009-0.08,0.014-0.132,0.023
					C945.326-210.031,944.92-209.566,944.937-209.548z M945.391-259.731l-0.064-0.161l-0.067,0.251
					C945.324-259.645,945.325-259.645,945.391-259.731z M947.406-209.338c-0.052,0.01-0.077,0.015-0.129,0.024
					c-0.586,0.029-1.171,0.3-1.756,0.737c0,0.066,0,0.1,0,0.167c0.391-0.07,0.584-0.106,0.975-0.179
					c0.26-0.214,0.544-0.398,0.781-0.479C947.385-209.105,947.406-209.256,947.406-209.338z M946.757-260.63
					c-0.021-0.033-0.652-0.047-0.912,0.38c0,0.099,0,0.149,0,0.248c0.052-0.003,0.081-0.004,0.133-0.007
					C946.237-260.105,946.757-260.63,946.757-260.63z M946.041-210.24c0.156-0.028,0.234-0.042,0.391-0.07
					c0,0,0.064-0.095,0.064-0.26c-0.104,0.019-0.155,0.029-0.26,0.047C946.236-210.358,946.105-210.334,946.041-210.24z
					 M946.301-209.71c0,0,0.001,0.083,0.131,0.06c0.026-0.038,0.038-0.059,0.064-0.097
					C946.418-209.733,946.379-209.724,946.301-209.71z M946.496-210.571c0.182-0.033,0.274-0.05,0.456-0.083
					c0.195-0.036,0.26-0.131,0.325-0.39c-0.156,0.029-0.234,0.044-0.391,0.073C946.691-210.936,946.561-210.748,946.496-210.571z
					 M946.757-261.29c0.131-0.089,0.131-0.09,0.195-0.258c-0.156,0.009-0.235,0.013-0.392,0.021
					C946.639-261.432,946.679-261.384,946.757-261.29z M947.277-260.99c-0.036-0.041-0.54,0.334-0.521,0.36
					C946.778-260.603,947.304-260.959,947.277-260.99z M947.146-210.195c-0.13,0.024-0.13,0.106,0,0.082
					c0.065-0.012,0.063-0.013,0.063-0.095C947.184-210.203,947.173-210.2,947.146-210.195z M947.732-261.347
					c-0.025-0.024-0.464,0.345-0.455,0.357C947.296-260.965,947.782-261.301,947.732-261.347z M950.204-212.846
					c0.066-0.067,0.194-0.366,0.194-0.366c-0.004-0.009-0.527,0.074-0.782,0.238c-0.682,0.44-1.514,1.366-2.145,1.646
					c-0.047,0.021-0.194,0.284-0.194,0.284c0.003,0.006,0.457,0.051,0.65-0.122C948.55-211.721,949.612-212.254,950.204-212.846z
					 M949.098-262.095c-0.035-0.054-1.241,0.727-1.233,0.738C947.902-261.302,949.098-262.095,949.098-262.095z M948.902-262.901
					c0.13-0.008,0.195,0.069,0.326,0.061l0.065-0.085c0,0-0.196-0.07-0.262-0.066C948.98-262.956,948.954-262.938,948.902-262.901z
					 M949.748-210.706c-0.094-0.029-0.35-0.229-0.389-0.249c-0.054-0.028-0.131,0.027-0.131,0.027
					c-0.195,0.121-0.334,0.36-0.324,0.393c0.009,0.031,0.193,0.207,0.324,0.181s0.318-0.182,0.39-0.243
					C949.696-210.665,949.78-210.696,949.748-210.706z M950.398-262.762c-0.01-0.015-0.318-0.037-0.391,0.029
					c-0.166,0.151-0.922,0.621-0.91,0.638s0.263,0.054,0.391-0.027C949.79-262.315,950.4-262.759,950.398-262.762z M949.294-211.517
					c-0.026-0.061-0.039-0.09-0.065-0.151c0,0.065,0,0.099,0,0.164C949.255-211.509,949.268-211.511,949.294-211.517z
					 M949.748-263.205c0.026-0.035,0.04-0.05,0.066-0.085c-0.026,0.002-0.04,0.002-0.066,0.004
					C949.748-263.253,949.748-263.238,949.748-263.205z M949.814-211.948c-0.026-0.06-0.04-0.09-0.066-0.15c0,0.065,0,0.099,0,0.164
					C949.774-211.94,949.788-211.943,949.814-211.948z M950.398-211.086c-0.052-0.022-0.077-0.033-0.129-0.055
					c-0.065,0.014-0.065,0.095,0,0.081C950.321-211.07,950.347-211.075,950.398-211.086z M950.465-212.572
					c-0.065,0.095-0.195,0.122-0.195,0.122c0,0.164-0.001,0.164,0.129,0.138c0,0,0.067-0.013,0.132-0.19
					C950.505-212.53,950.49-212.544,950.465-212.572z M951.18-263.149c-0.182,0.015-0.273,0.021-0.455,0.036
					c-0.195,0.015-0.327,0.152-0.326,0.189c0.002,0.076,0.325,0.138,0.391,0.133C950.983-262.807,951.114-262.981,951.18-263.149z
					 M950.398-213.212c0.032,0.032,0.524-0.429,0.521-0.434C950.899-213.667,950.384-213.226,950.398-213.212z M950.465-263.666
					c0.025,0.031,0.04,0.046,0.065,0.077c0-0.033,0-0.049,0-0.082C950.505-263.669,950.49-263.667,950.465-263.666z
					 M951.568-211.987c-0.052-0.054-0.077-0.082-0.129-0.136c-0.364,0.078-0.545,0.117-0.909,0.192c0,0-0.001,0.164-0.065,0.177
					c0.025,0.027,0.04,0.041,0.065,0.068c0.196-0.041,0.387,0.246,0.582,0.123C951.294-211.731,951.387-211.817,951.568-211.987z
					 M950.919-213.646c0.024,0.024,0.543-0.413,0.521-0.435C951.405-214.113,950.904-213.66,950.919-213.646z M950.984-213.006
					c-0.06,0.04-0.064,0.096,0,0.246c0,0,0.128-0.029,0.128-0.192C951.112-212.952,951.053-213.052,950.984-213.006z
					 M951.895-263.615c-0.182,0.015-0.273,0.022-0.455,0.037c-0.195,0.016-0.26,0.184-0.26,0.429
					c0.182-0.015,0.273-0.022,0.455-0.037C951.83-263.203,951.895-263.371,951.895-263.615z M952.74-215.329
					c-0.027-0.036-0.881,0.804-1.172,0.979c-0.076,0.046-0.132,0.269-0.129,0.27C951.512-214.036,952.74-215.329,952.74-215.329z
					 M951.568-213.372c-0.052,0.011-0.077,0.016-0.129,0.026c0.052,0.054,0.077,0.083,0.129,0.137
					C951.568-213.274,951.568-213.307,951.568-213.372z M951.895-212.871c-0.012-0.009-0.064,0.258-0.064,0.258
					C951.841-212.617,951.903-212.864,951.895-212.871z M952.74-264.014c-0.182,0.016-0.273,0.025-0.455,0.041
					c-0.195,0.017-0.326,0.19-0.391,0.358c0.182-0.015,0.273-0.023,0.455-0.039C952.545-263.67,952.609-263.759,952.74-264.014z
					 M952.35-213.214c-0.025-0.027-0.039-0.041-0.064-0.067c-0.195,0.042-0.326,0.396-0.326,0.396
					c0.015,0.007,0.195-0.123,0.326-0.151C952.35-213.05,952.35-213.051,952.35-213.214z M952.09-213.727l0.064-0.177
					C952.149-213.905,951.959-213.862,952.09-213.727z M952.35-214.19c-0.011-0.002-0.082,0.245-0.064,0.259
					C952.297-213.922,952.35-214.19,952.35-214.19z M953.718-264.426c-0.339,0.031-0.509,0.046-0.848,0.076
					c0,0.081-0.065,0.249-0.13,0.336c0.286-0.025,0.429-0.036,0.715-0.063C953.586-264.088,953.718-264.183,953.718-264.426z
					 M955.015-217.445c-0.035-0.035-0.983,0.587-1.429,0.88c-0.41,0.27-0.846,1.236-0.846,1.236
					c0.007,0.004,0.409-0.081,0.583-0.208c0.512-0.375,1.135-1.021,1.563-1.475C954.953-217.084,955.015-217.445,955.015-217.445z
					 M952.807-214.368c0.026-0.071,0.037-0.105,0.063-0.176c-0.026,0.006-0.039,0.007-0.065,0.013
					C952.805-214.466,952.807-214.433,952.807-214.368z M953.325-214.887c0.026-0.038,0.039-0.058,0.065-0.096
					c-0.026-0.027-0.039-0.04-0.065-0.067l-0.064,0.096C953.261-214.955,953.325-214.969,953.325-214.887z M953.782-265.241
					c0.026,0.063,0.037,0.094,0.063,0.156c0.052-0.07,0.078-0.104,0.13-0.174C953.897-265.252,953.86-265.248,953.782-265.241z
					 M954.756-264.849c-0.03-0.036-0.547,0.101-0.78,0.158c-0.108,0.026-0.193,0.178-0.193,0.26c0.26-0.024,0.391-0.037,0.65-0.063
					C954.629-264.512,954.769-264.834,954.756-264.849z M954.433-215.779c0-0.065,0-0.097,0-0.162c0,0.081-0.066,0.094-0.132,0.189
					C954.353-215.763,954.381-215.768,954.433-215.779z M954.562-216.052c0.005,0.001,0.131-0.028,0.065-0.176L954.562-216.052z
					 M954.951-215.654c0,0,0.002-0.161-0.063-0.146c0,0.097-0.002,0.146-0.002,0.242
					C954.951-215.573,954.951-215.654,954.951-215.654z M957.504-219.312c-0.182,0.042-0.249,0.064-0.431,0.106
					c0.13-0.19,0.292-0.675,0.272-0.703c-0.043-0.056-0.601,0.295-0.774,0.499c-0.526,0.617-1.56,1.964-1.56,1.964
					c0.014,0.017,0.378-0.167,0.458-0.265c0.1-0.123,0.604-0.229,0.669-0.292c0.181-0.177-0.139-0.796,0.861-0.74
					c0,0.064,0,0.096,0,0.16c0-0.045,0.18-0.061,0.18-0.221c-0.105,0.024-0.246,0.037-0.351,0.061c0-0.241,0.171-0.432,0.171-0.462
					c0,0.161,0,0.24,0,0.401C957-218.849,957.504-218.91,957.504-219.312z M955.212-216.843c-0.005-0.001-0.155,0.219-0.065,0.256
					C955.172-216.576,955.212-216.843,955.212-216.843z M955.406-265.72c-0.025-0.03-0.039-0.044-0.064-0.074
					c-0.13,0.013-0.195,0.099-0.195,0.099c0.065,0.155,0.065,0.156,0.195,0.144C955.406-265.558,955.406-265.559,955.406-265.72z
					 M955.406-217.13c-0.012,0.004-0.071,0.251-0.063,0.258C955.355-216.863,955.406-217.13,955.406-217.13z M955.669-216.463
					c-0.026,0.006-0.041,0.009-0.067,0.015c0.026,0.026,0.041,0.04,0.067,0.066C955.669-216.414,955.669-216.431,955.669-216.463z
					 M955.992-217.583c-0.022-0.018-0.065,0.255-0.065,0.255C955.93-217.329,956.001-217.577,955.992-217.583z M956.058-217.68
					c0.065-0.015,0.13-0.03,0.13-0.191c0,0-0.064-0.065-0.13-0.05C956.058-217.825,956.058-217.777,956.058-217.68z
					 M956.319-216.773c-0.104,0.282-0.157,0.422-0.262,0.705c0.521,0.041,0.78-0.342,0.976-0.952c0,0-0.001-0.162,0.064-0.258
					c-0.208,0.049-0.313,0.073-0.521,0.122C956.473-217.003,956.424-216.926,956.319-216.773c0-0.129,0-0.193,0-0.322
					c-0.13,0.11-0.197,0.287-0.197,0.287C956.127-216.802,956.189-216.743,956.319-216.773z M957.293-265.596l-0.065-0.074
					c-0.26,0.029-0.679,0.097-0.844,0.172c-0.04,0.019-0.064,0.168-0.064,0.168c0.364-0.039,0.544-0.058,0.908-0.098
					L957.293-265.596z M956.577-217.156c-0.065-0.065-0.066-0.064-0.066-0.225c-0.078,0.115-0.113,0.172-0.191,0.287
					C956.424-217.119,956.473-217.132,956.577-217.156z M956.772-218.407c0,0.08-0.13,0.109-0.13,0.109
					c0.052,0.052,0.078,0.08,0.13,0.132C956.772-218.263,956.772-218.311,956.772-218.407z M957.357-220.23
					c-0.014-0.011,0.131-0.27,0.131-0.27C957.49-220.5,957.371-220.219,957.357-220.23z M958.074-265.765
					c-0.025-0.022-0.066,0.25-0.066,0.25C958.013-265.517,958.085-265.755,958.074-265.765z M958.01-220.94
					c0,0.08,0.129,0.209,0.129,0.209c-0.013,0.005-0.195-0.115-0.195-0.115L958.01-220.94z M958.074-218.953
					c-0.052,0.012-0.079,0.021-0.131,0.033c0.026,0.026,0.038,0.038,0.064,0.063C958.008-218.856,958.009-218.937,958.074-218.953z
					 M958.917-219.954c-0.104,0.025-0.154,0.038-0.258,0.063c0-0.128,0-0.193,0-0.321c0-0.08-0.115-0.207-0.261-0.018
					c-0.082,0.107-0.195,0.286-0.26,0.461c0.208-0.049,0.313-0.072,0.521-0.122c0,0.128,0,0.192,0,0.32
					C958.854-219.618,958.852-219.699,958.917-219.954z M958.917-218.354c0.031,0.025-0.519,0.767-0.519,0.767
					C958.345-217.624,958.917-218.354,958.917-218.354z M959.115-220.32c-0.01-0.003-0.214,0.354-0.198,0.366
					C958.929-219.945,959.115-220.32,959.115-220.32z M959.179-218.658c0.005,0.006-0.242,0.319-0.262,0.304
					C958.877-218.386,959.179-218.658,959.179-218.658z M959.179-220.896c-0.025,0.006-0.038,0.009-0.063,0.016
					c-0.052,0.012-0.079,0.019-0.131,0.031c0,0.16,0.13,0.208,0.194,0.193c0,0.128,0,0.191,0,0.319
					c0.13-0.031,0.195-0.127,0.195-0.367c-0.078,0.019-0.117,0.029-0.195,0.048C959.179-220.751,959.179-220.8,959.179-220.896z
					 M959.374-222.221c-0.078,0.019-0.115,0.029-0.193,0.047c0-0.24,0.126-0.431,0.191-0.446
					C959.372-222.46,959.374-222.38,959.374-222.221z M959.57-221.229c0,0.16-0.133,0.191-0.133,0.191
					c0-0.096,0.002-0.145,0.002-0.24c-0.026,0.006-0.039,0.009-0.065,0.016c0.026-0.038,0.037-0.058,0.063-0.096
					c0,0.032,0.002,0.048,0.002,0.08C959.491-221.258,959.519-221.248,959.57-221.229z M959.439-220.958
					c-0.026,0.006-0.039,0.009-0.065,0.016c0-0.032-0.002-0.048-0.002-0.08c0.026-0.006,0.039-0.008,0.065-0.015
					C959.438-221.005,959.439-220.99,959.439-220.958z M959.439-222.634c-0.014-0.011,0.084-0.194,0.131-0.192
					C959.63-222.823,959.453-222.623,959.439-222.634z M960.023-221.657c-0.004-0.006,0.066-0.095,0.131-0.11
					c0,0.096,0,0.143,0,0.238c0.195,0.033,0.586-0.063,0.586-0.063c0.043,0.049-0.393,0.734-0.848,0.765
					c0.104-0.281,0.157-0.422,0.262-0.702C960.09-221.514,960.023-221.657,960.023-221.657z M960.35-223.809
					c-0.065,0.016-0.063-0.063-0.063-0.063c0.065-0.016,0.063-0.176,0.194-0.207c0.078-0.019,0.116-0.028,0.194-0.046
					c-0.052,0.108-0.078,0.163-0.13,0.271C960.467-223.835,960.428-223.827,960.35-223.809z M961-223.646
					c0.016,0.006-0.253,0.388-0.26,0.382C960.727-223.274,961-223.646,961-223.646z M961.195-220.909l-0.13,0.113L961-220.86
					c0.026-0.07,0.039-0.104,0.065-0.175C961.065-221.035,961.195-221.068,961.195-220.909z M961.455-223.119
					c-0.078,0.019-0.117,0.03-0.195,0.049c0,0.159,0,0.238,0,0.397C961.325-222.689,961.455-222.881,961.455-223.119z
					 M961.91-266.479c-0.005-0.009-0.132-0.06-0.196-0.052c-0.104,0.014-0.154,0.019-0.259,0.033
					c-0.052,0.039-0.078,0.058-0.13,0.097c0,0.159,0.132,0.142,0.197,0.133c0.052-0.007,0.076-0.01,0.128-0.017
					C961.716-266.294,961.91-266.479,961.91-266.479z M961.714-224.056c-0.012-0.009-0.199,0.28-0.191,0.286
					C961.545-223.752,961.729-224.043,961.714-224.056z M961.586-223.23c0,0-0.063-0.064-0.063-0.223c0,0.127,0,0.192,0,0.319
					C961.549-223.172,961.56-223.192,961.586-223.23z M961.977-221.899l-0.066,0.255
					C961.891-221.636,961.911-221.882,961.977-221.899z M962.887-223.316c0.267-0.333,0.91-0.863,0.91-0.863
					c0.013,0.006,0.005,0.432-0.195,0.681c-0.329,0.41-0.81,0.979-1.172,1.405c-0.067,0.079-0.453,0.115-0.453,0.115
					C961.922-222.036,962.559-222.906,962.887-223.316z M962.237-223.789c0,0-0.26,0.065-0.064,0.097L962.237-223.789z
					 M963.537-266.543c-0.001-0.002-0.195-0.209-0.326-0.191c-0.234,0.033-0.352,0.048-0.585,0.08
					c-0.26,0.036-0.417,0.577-0.389,0.608c0.031,0.035,0.582,0.007,0.844-0.275C963.147-266.393,963.537-266.543,963.537-266.543z
					 M963.081-225.025c0.143-0.15,0.456-0.431,0.456-0.747c-0.416,0.104-0.625,0.154-1.041,0.256c0-0.127,0-0.19,0-0.317
					c-0.131,0.032-0.259,0.145-0.259,0.382c0.104-0.025,0.154-0.04,0.259-0.065c0,0.253,0,0.381,0,0.635
					c0.104-0.025,0.156-0.039,0.26-0.064c0,0.126,0,0.19,0,0.317C962.887-224.741,962.938-224.875,963.081-225.025z
					 M962.496-224.248c-0.022-0.018-0.267,0.297-0.259,0.303C962.271-223.919,962.512-224.236,962.496-224.248z M962.496-225.833
					c0.034,0.026,0.26-0.458,0.26-0.458C962.753-226.292,962.473-225.852,962.496-225.833z M962.756-226.291
					c0.022,0.018,0.203-0.201,0.195-0.207C962.939-226.507,962.74-226.303,962.756-226.291z M962.756-224.946
					c0-0.08,0-0.237,0.131-0.269c0,0,0.064,0.142,0.194,0.189C962.951-224.993,962.886-224.978,962.756-224.946z M963.083-226.687
					c0.012,0.009,0.136-0.184,0.128-0.19C963.2-226.886,963.075-226.693,963.083-226.687z M963.537-227.352
					c-0.022-0.018-0.203,0.277-0.195,0.283C963.354-227.06,963.561-227.333,963.537-227.352z M963.797-226.153
					c-0.104,0.026-0.156,0.039-0.26,0.065c0-0.158-0.195-0.111-0.195-0.111c0.003,0.003,0.064-0.014,0.195,0.111
					c0,0.126,0,0.19,0,0.316C963.667-225.804,963.797-225.995,963.797-226.153z M963.797-227.732c-0.022-0.018-0.26,0.38-0.26,0.38
					C963.542-227.349,963.82-227.714,963.797-227.732z M964.252-266.487c-0.052-0.024-0.076-0.037-0.128-0.061
					c-0.208,0.03-0.314,0.044-0.522,0.074c0.065,0.307,0.327,0.192,0.522,0.164C964.176-266.382,964.2-266.417,964.252-266.487z
					 M963.797-227.732c0.011,0.012,0.283-0.361,0.26-0.379C964.034-228.129,963.797-227.732,963.797-227.732z M964.057-226.612
					c-0.019-0.007-0.283,0.441-0.26,0.459C963.819-226.136,964.057-226.612,964.057-226.612z M964.057-224.64
					c0.026,0.021-0.247,0.313-0.26,0.303S964.037-224.655,964.057-224.64z M964.057-228.112c0.195-0.048,0.26-0.142,0.26-0.379
					C964.212-228.339,964.161-228.264,964.057-228.112z M964.316-226.836c-0.033-0.026-0.268,0.218-0.26,0.224
					C964.09-226.586,964.324-226.83,964.316-226.836z M964.057-224.721l0.067-0.251
					C964.133-224.975,964.057-224.721,964.057-224.721z M964.838-229.171c-0.027-0.019-0.531,0.671-0.521,0.68
					C964.369-228.44,964.838-229.171,964.838-229.171z M964.771-227.265c-0.033-0.026-0.463,0.263-0.454,0.271
					C964.339-226.972,964.801-227.241,964.771-227.265z M964.838-229.25c0.131-0.032,0.13-0.268,0.13-0.268
					C964.967-229.518,964.838-229.25,964.838-229.25z M965.033-227.724c-0.005-0.006-0.195,0.286-0.195,0.286
					C964.853-227.431,965.033-227.724,965.033-227.724z M965.293-228.104c-0.012-0.009-0.195,0.365-0.195,0.365
					C965.111-227.733,965.308-228.093,965.293-228.104z M965.878-227.074c-0.182,0.424-0.271,0.636-0.453,1.06
					c0,0.078-0.197,0.05-0.197,0.05c-0.13-0.124-0.13-0.203-0.13-0.203C965.228-226.672,965.488-226.973,965.878-227.074z
					 M965.488-228.311c-0.033-0.009-0.063,0.175-0.063,0.175C965.43-228.135,965.531-228.299,965.488-228.311z M965.748-230.575
					l-0.067-0.143C965.681-230.718,965.683-230.481,965.748-230.575z M967.632-229.644c0.049,0.058-0.892,1.417-1.168,2.025
					c-0.089,0.196-0.584,0.545-0.586,0.544c-0.009-0.005,0-0.314,0.065-0.41c0.546-0.8,0.819-1.199,1.365-1.997
					C967.374-229.575,967.632-229.644,967.632-229.644z M966.398-229.562c-0.002-0.004-0.39,0.099-0.455,0.193
					c0,0.094,0,0.142,0,0.236c0,0,0.065,0.141,0.195-0.049C966.203-229.276,966.398-229.562,966.398-229.562z M966.594-229.846
					c-0.052,0.013-0.078,0.02-0.13,0.033c0,0.078-0.065,0.173-0.065,0.173C966.464-229.657,966.464-229.657,966.594-229.846z
					 M966.594-230.708c0,0-0.082-0.2-0.13-0.046C966.447-230.701,966.594-230.708,966.594-230.708z M967.114-265.902
					c0.016-0.029-0.197-0.126-0.197-0.126c-0.065,0.01-0.259,0.197-0.259,0.197c0.006,0.007,0.259,0.038,0.259,0.038
					C966.922-265.794,967.11-265.896,967.114-265.902z M966.854-230.539c-0.001-0.001-0.181-0.047-0.195-0.028
					C966.64-230.543,966.854-230.539,966.854-230.539z M967.114-231.387c0-0.094,0-0.141,0-0.235
					c-0.078,0.082-0.119,0.122-0.197,0.204C966.982-231.435,967.049-231.449,967.114-231.387z M967.632-231.833
					c-0.104,0.026-0.152,0.041-0.256,0.067c0-0.078-0.067-0.218-0.067-0.218c-0.004,0.001-0.13,0.189-0.13,0.267
					c0.078-0.02,0.119-0.029,0.197-0.049c0,0.125,0,0.188,0,0.313C967.571-231.502,967.632-231.598,967.632-231.833z
					 M967.376-231.453c-0.078,0.02-0.119,0.029-0.197,0.049c0,0.157,0.13,0.202,0.13,0.202
					C967.313-231.201,967.376-231.297,967.376-231.453z M967.895-230.257c0.039,0.03-0.263,0.613-0.263,0.613
					C967.607-229.657,967.869-230.276,967.895-230.257z M967.829-265.783c-0.026,0.004-0.038,0.007-0.064,0.011
					c0.026,0.027,0.038,0.041,0.064,0.067C967.829-265.736,967.829-265.752,967.829-265.783z M968.35-230.609
					c-0.026,0.069-0.039,0.104-0.065,0.173c-0.156,0.041-0.233,0.061-0.39,0.101c0.13-0.268,0.194-0.285,0.39-0.335
					C968.311-230.646,968.323-230.634,968.35-230.609z M968.35-265.556c-0.026,0.004-0.039,0.006-0.065,0.01
					c0,0.031,0,0.047,0,0.079C968.311-265.502,968.323-265.52,968.35-265.556z M968.545-231.285
					c0.025-0.069,0.039-0.103,0.064-0.172c0,0.093,0,0.142,0,0.235C968.545-231.205,968.545-231.285,968.545-231.285z
					 M968.936-231.852c0.039,0.03-0.188,0.366-0.194,0.361C968.716-231.511,968.923-231.862,968.936-231.852z M969.194-232.231
					c0.01,0.003-0.188,0.368-0.194,0.363C968.975-231.888,969.194-232.231,969.194-232.231z M969.391-232.516
					c0.021,0.003-0.118,0.277-0.131,0.267S969.391-232.516,969.391-232.516z M970.431-233.796c-0.016,0.021-0.195,0.186-0.194,0.207
					c0.004,0.083,0.132,0.549-0.13,0.811c-0.112,0.112-0.363-0.019-0.392-0.209c-0.039-0.262,0.195-0.671,0.455-0.972
					c0,0,0.065-0.018,0.196,0.026C970.366-233.934,970.464-233.84,970.431-233.796z M970.628-234.622c0,0,0.063-0.017,0.063,0.061
					c-0.052,0.014-0.079,0.019-0.131,0.033C970.561-234.605,970.628-234.622,970.628-234.622z M971.081-235.591
					c-0.014-0.015,0.197-0.205,0.197-0.205l-0.132,0.264C971.14-235.535,971.081-235.591,971.081-235.591z M971.797-236.859
					c0.052,0.033-0.497,0.998-0.519,0.984C971.214-235.917,971.782-236.869,971.797-236.859z M972.706-237.943
					c0,0.031,0,0.047,0,0.078c-0.364,0.402-0.545,0.604-0.909,1.006c0.195-0.823,0.73-1.245,0.781-1.206
					C972.604-238.044,972.706-237.943,972.706-237.943z M972.511-263.732c0,0-0.192-0.035-0.193-0.042
					C972.309-263.818,972.511-263.809,972.511-263.732c0,0,0.083,0.044,0.067,0.063C972.563-263.65,972.511-263.654,972.511-263.732
					z M972.578-239.066c0.195-0.05,0.26-0.067,0.454-0.271c-0.104,0.211-0.158,0.317-0.262,0.528
					c-0.078,0.02-0.114,0.031-0.192,0.051C972.578-238.881,972.578-238.942,972.578-239.066z M973.032-262.522
					c0.003-0.001-0.194-0.117-0.194-0.117C972.843-262.632,973.032-262.522,973.032-262.522z M973.293-262.572
					c-0.052,0.01-0.079,0.015-0.131,0.025c0,0.077,0.002,0.155,0.067,0.142C973.229-262.405,973.293-262.495,973.293-262.572z
					 M973.229-239.926c0.025,0.02,0.063,0.214,0.063,0.214c-0.065,0.094-0.131,0.187-0.131,0.264c0-0.123,0-0.184,0-0.307
					C973.162-239.909,973.223-239.931,973.229-239.926z M973.617-240.41c0.021,0.049,0.124,0.037,0.131,0.042
					c0.025,0.02-0.065,0.171-0.065,0.171S973.661-240.398,973.617-240.41c-0.068-0.017-0.196-0.105-0.196-0.105
					C973.415-240.524,973.581-240.493,973.617-240.41z M973.683-241.504c0.065-0.017,0.197-0.125,0.197-0.125
					c0.002,0.004-0.132,0.108-0.132,0.185C973.722-241.468,973.709-241.48,973.683-241.504z M974.334-246.428
					c-0.015-0.136,0-0.152-0.131-0.121c0,0.062,0,0.091,0,0.153c-0.065,0.169-0.07,0.629-0.067,0.63
					C974.172-245.744,974.363-246.163,974.334-246.428z M975.113-260.02c-0.078,0.016-0.116,0.023-0.194,0.04
					C975.114-260.174,975.113-260.02,975.113-260.02z M976-253.552c0,0.153-0.055,0.201-0.055,0.43
					c0.104-0.024,0.066-0.035,0.17-0.059c0,0,0.044-0.052,0.018-0.168c-0.104-0.465-0.07-1.893-0.15-1.957
					c-0.022-0.018-0.307-0.07-0.337-0.159c-0.154-0.447-0.193-1.576-0.388-2.224c0,0-0.258-0.125-0.258-0.111
					c0-0.153,0-0.23,0-0.383s-0.009-0.139-0.009-0.139s-0.101,0.026-0.101,0.18c0,0.23,0.168,0.295,0.209,0.343
					c0.193,0.231,0.449,1.551,0.645,2.273c0.026,0.025,0.256,0.036,0.256,0.061C976-254.699,976-254.316,976-253.552z
					 M975.181-259.88c0.052,0.02,0.076,0.029,0.128,0.048C975.113-259.561,975.181-259.804,975.181-259.88z M975.96-251.104
					c0.042-0.023,0.127-0.107,0.127-0.107c0-0.229,0.132-0.565,0.132-0.871c0-0.229-0.13-0.427-0.195-0.718
					c-0.078,0.018-0.118,0.025-0.196,0.043c-0.064,0.015-0.064,0.168-0.064,0.168c0.259,0.323-0.046,0.899-0.129,1.406
					C975.623-251.118,975.786-251.006,975.96-251.104z M976.219-250.172c-0.063-0.026-0.285,0.329-0.259,0.445
					c0.026,0.116,0.259,0.091,0.324,0.152c0.025-0.006,0.039-0.009,0.064-0.016C976.349-249.82,976.249-250.159,976.219-250.172z
					 M976.349-248.524c-0.025,0.037-0.039,0.055-0.064,0.092c-0.065-0.061-0.065-0.061,0-0.152
					C976.31-248.56,976.323-248.548,976.349-248.524z"/>
				<path fill="#FFFFFF" d="M988.438-220.19c0.141-0.484,0.297-1.295,0.521-1.513c0.028-0.028,0.063-0.169,0.193-0.288
					c0.261-0.239,0.451-0.636,0.651-0.892c0.167-0.213,0.52-0.404,0.715-0.619c0.391-0.431,0.663-0.307,0.974-0.195
					c0.572,0.206,1.155,0.973,1.172,1.555c0.007,0.248,0.144,0.675-0.065,0.971c-0.147,0.209-0.229,0.443-0.392,0.726
					c-0.139,0.239-0.155,0.46-0.128,0.632c0.039,0.243-0.318,0.636-0.391,0.872c-0.03,0.099-0.064,0.244-0.064,0.244
					c-0.714,0.627-1.379,1.027-2.015,1.106c-0.335,0.042-0.765-0.135-0.978-0.528c-0.155-0.288-0.259-0.718-0.259-1.161
					C988.372-219.65,988.354-219.903,988.438-220.19z"/>
				<path fill="#FFFFFF" d="M1039.285-251.935c-0.021-0.023-0.455,0.023-0.455,0.339c-0.026,0.005-0.039,0.008-0.065,0.013
					c-0.13,0.025-0.327,0.093-0.39,0.14c-0.178,0.132-0.619,0.415-0.911,0.499c-0.675,0.195-1.04,0.66-1.301,1.289
					c0.078,0.035,0.034,0.051,0.112,0.086c-0.064,0.014-0.275,0.013-0.275,0.169c0-0.102,0-0.153,0-0.255
					c0,0.028-0.309,0.083-0.373,0.353c0.182-0.04,0.313-0.059,0.495-0.098c-0.065,0.333-0.61,0.498-0.694,0.602
					c-0.06,0.074-0.424,0.309-0.445,0.292c-0.045-0.035,0.321-0.242,0.461-0.356c0.064-0.053,0.461-0.44,0.461-0.44
					c-0.013-0.022-0.904,0.362-0.904,0.691c0,0.051,0,0.077,0,0.128c0-0.015-0.134,0.05-0.068,0.035
					c0.104-0.023,0.056-0.035,0.16-0.058c-0.131,0.157-0.339,0.375-0.44,0.471c-0.195,0.182-0.394,0.057-0.544,0.054
					c-0.104-0.002-0.362,0.187-0.336,0.269c0.011,0.033,0.253,0.067,0.253,0.132c0,0.128-0.197,0.238-0.263,0.317
					c-0.078,0.018-0.119,0.026-0.197,0.044c0-0.129,0.195-0.493,0.195-0.493c-0.018-0.021-0.525,0.189-0.588,0.328
					c-0.031,0.069-0.064,0.143-0.064,0.143c-0.002,0.007,0.187-0.012,0.26,0.004c0.045,0.01,0.195,0.018,0.195,0.018
					c0.01,0.013-0.209,0.284-0.326,0.4c-0.136,0.134-0.544,0.49-0.748,0.685c-0.195,0.187-0.488,0.144-0.488-0.148
					c0-0.026,0-0.039,0-0.065c0,0.127-0.62,0.547-0.62,0.547c0.006,0.006,0.214,0.082,0.344,0.05c0.026,0.02,0.05,0.028,0.075,0.048
					c-0.195,0.307-0.388,0.744-0.907,0.809c0.104-0.182,0.158-0.272,0.263-0.454c0.064-0.146,0.258-0.454,0.258-0.454
					c-0.042-0.037-0.648,0.356-0.777,0.974c0.104-0.026,0.156-0.041,0.261-0.066c-0.065,0.081-0.065,0.212-0.065,0.212
					c-0.004,0.001-0.065-0.113-0.195-0.146c-0.13,0.033-0.195,0.048-0.325,0.082c-0.065,0.082-0.058,0.284-0.064,0.341
					c-0.028,0.25-0.001,0.455,0.064,0.633c0.286,0.447,0.43,0.67,0.716,1.115c0.455,0.921,0.967,1.937,1.235,2.982
					c0.149,0.581,0.261,1.288,0.586,1.847c0,0.567-0.002,0.852-0.002,1.419c0,0.322-0.075,0.688,0.002,0.903
					c0.099,0.273,0.138,0.763,0.13,0.931c-0.007,0.144,0.046,0.383,0,0.516c-0.057,0.164-0.072,0.473-0.13,0.617
					c-0.274,0.687-0.456,1.549-0.651,2.252c0.026-0.008,0.039-0.011,0.065-0.019c0.065-0.019,0.343-0.063,0.261,0.183
					c-0.187,0.557-0.322,1.14-0.586,1.658c-0.311,0.609-0.51,1.309-0.91,1.894c-0.344,0.5-0.641,1.093-1.041,1.559
					c-0.264,0.307-0.392,0.709-0.587,1.033c-0.13,0.172-0.193,0.258-0.323,0.43c-0.195,0.259-0.325,0.314-0.391,0.39
					c-0.168,0.193,0.13,0.217,0,0.39c-0.234,0.286-0.353,0.429-0.587,0.716c-0.39,0.391-0.719,0.631-1.039,1.003
					c-0.391,0.454-0.65,0.813-1.171,0.991c-0.26,0.089-0.512,0.417-0.715,0.71c-0.436,0.63-1.131,1.304-1.884,1.66
					c-0.449,0.212-0.997,0.787-1.304,1.069c-0.324,0.298-1.055,0.958-1.365,1.104c-0.23,0.108-0.521,0.2-0.587,0.286
					c-0.596,0.773-1.691,0.836-2.079,1.391c-0.076,0.109-0.276,0.094-0.327,0.124c-0.427,0.249-0.722,0.037-1.104,0.355
					c-0.32,0.268-0.866,0.479-1.172,0.656c-0.562,0.325-1.329,0.283-2.015,0.446c-0.607,0.145-1.314-0.021-1.82-0.18
					c-0.845-0.266-1.349-0.955-1.95-1.728c-0.275-0.354-0.196-1.035-0.455-1.352c-0.131-0.158-0.059-0.488-0.13-0.575
					c-0.381-0.468,0.118-1.774,0.52-2.559c0.072-0.142,0.183-0.371,0.325-0.538c0.12-0.141,0.047-0.351,0-0.416
					c-0.033-0.047,0.066-0.22,0.13-0.326c0.199-0.333,0.483-1.036,0.586-1.462c0.024-0.103,0.195-0.277,0.195-0.277
					c0.009,0.003-0.041,0.369-0.067,0.507c-0.011,0.055-0.063,0.161-0.063,0.229c0,0.138,0.065,0.184,0.131,0.229
					c0,0,0.183-0.084,0.192-0.14c0.109-0.622,0.746-1.338,0.978-1.873c0.142-0.327,0.447-0.594,0.585-0.968
					c0.174-0.473,0.554-0.816,0.78-1.308c0.207-0.449,0.57-0.953,0.779-1.37c0.071-0.143,0.405-0.274,0.508-0.387
					c0.066-0.073-0.559-0.295,0.441-0.363c0,0.109,0,0.164,0,0.273c0-0.045,0.014-0.137,0.014-0.341
					c-0.078,0.027-0.208,0.041-0.286,0.068c0-0.068,0.108-0.25,0.149-0.341c0.018-0.036,0.109-0.182,0.239-0.362
					c0-0.136-0.013-0.205-0.013-0.341c0.455-0.564,0.942-1.268,1.402-1.935c0.062-0.089,0.494-0.133,0.494-0.198
					c0,0.082,0,0.122,0,0.203c0-0.021,0.084-0.201,0.084-0.201l-0.246-0.002c-0.029-0.026,0.193-0.731,0.297-0.921
					c0.097-0.178,0.482-0.296,0.572-0.395c0.102-0.111,0.318-0.579,0.253-0.828c-0.13,0.042-0.201,0.063-0.331,0.104
					c-0.182,0.249-0.271,0.373-0.453,0.622c-0.325,0.446-0.647,0.854-0.913,1.252c-0.294,0.442-0.584,0.953-0.912,1.461
					c-0.565,0.875-1.216,1.641-1.689,2.561c-0.402,0.782-1.117,1.632-1.495,2.589c-0.143,0.361-0.91,1.224-0.91,1.224
					c-0.004-0.003,0.094-0.311,0.195-0.554c0.147-0.352,0.479-0.86,0.715-1.29c0.605-1.107,1.301-2.314,2.016-3.381
					c0.546-0.817,0.819-1.223,1.365-2.032c0.391-0.744,0.978-1.346,1.496-2.125c0.976-1.467,2.272-2.866,3.318-4.22
					c0.752-0.974,1.742-1.853,2.532-2.698c0.392-0.419,0.773-0.936,1.109-1.249c1.232-1.148,2.542-2.813,3.835-3.951
					c0.114-0.101,0.263-0.33,0.067-0.542c-0.677-0.899-1.016-1.351-1.692-2.257c-0.651-0.755-1.324-1.515-2.019-2.259
					c-0.391-0.418-0.942-0.793-0.974-1.411c-0.003-0.063-0.182-0.131-0.262-0.266c-0.24-0.403-0.91-0.776-1.302-1.271
					c-0.701-0.886-1.12-2.303-1.689-2.993c-0.124-0.15-0.225-0.753-0.326-0.861c-0.044-0.047-0.18-0.235-0.191-0.355
					c-0.029-0.293-0.247-0.922-0.262-1.014c-0.025-0.154,0-0.674,0-1.011c0-0.539,0.258-2.148,0.453-2.597
					c0.156-0.466,0.234-0.699,0.391-1.165c0.195-0.447,0.311-0.817,0.456-1.176c0.154-0.38,0.393-0.824,0.717-1.229
					c0.26-0.324,0.375-0.67,0.779-1.036c0.324-0.294,0.505-0.767,0.845-1.176c0.463-0.557,0.978-1.261,1.497-1.826
					c0.416-0.452,0.626-0.678,1.042-1.126c1.69-1.705,3.719-3.225,5.462-4.471c0.383-0.274,0.975-0.571,1.365-0.787
					c0.686-0.377,1.574-0.927,2.342-1.353c0.582-0.323,1.041-0.646,1.757-0.732c0.195-0.023,0.481-0.17,0.716-0.274
					c0.438-0.194,0.975-0.323,1.235-0.518c0.499-0.374,1.389-0.319,1.886-0.759c0.064-0.058,0.266-0.067,0.327-0.03
					c0.396,0.24,0.974,0.101,1.559,0.052c0.131-0.011,0.18,0.022,0.194,0.047c0.146,0.241,1.141,0.017,1.692,0.179
					c1.007,0.296,2.077,0.84,2.731,1.611c0.543,0.639,1.216,1.388,1.561,2.18c0.229,0.524,0.455,1.138,0.455,1.811
					c0,0.306,0.141,0.679,0.065,1.097c-0.055,0.303,0.036,0.701,0.065,0.975c0.07,0.652-0.414,2.142-0.651,2.804
					c-0.159,0.443-0.32,1.015-0.39,1.444c-0.12,0.741-0.142,0.725-0.846,0.508c-0.63-0.194-1.29-0.87-1.365-1.16
					c-0.057-0.219-0.138-0.833,0.17-1.416c0.066-0.126,0.301-0.377,0.301-0.625c0-1.905,0-2.858,0-4.763
					c0-0.68-0.408-1.244-0.626-1.765c-0.07-0.167-0.345-0.392-0.378-0.599c-0.084-0.53-0.766-0.848-1.295-0.963
					c-0.306-0.066-0.81-0.178-1.069-0.227c-0.095-0.018-0.341,0.029-0.406,0.222c-0.104,0.159-0.163,0.238-0.267,0.397
					c-0.26,0.274-0.566,0.429-0.851,0.392c-0.765-0.098-1.759,0.435-2.472,0.824c-1.03,0.563-2.069,0.916-3.058,1.392
					c-0.64,0.308-1.253,0.858-1.888,1.16c-0.662,0.315-1.237,0.793-1.884,1.123c-0.567,0.289-1.057,0.795-1.563,1.226
					c-0.386,0.329-0.978,0.853-1.497,1.17c-0.821,0.501-1.882,1.416-2.275,1.992c-0.189,0.278-0.613,0.836-0.978,1.178
					c-0.325,0.306-0.7,0.86-0.909,1.175c-0.563,0.848-1.429,1.693-1.951,2.604c-0.403,0.703-0.852,1.525-1.17,2.399
					c-0.263,0.723-0.461,1.62-0.521,2.331c-0.025,0.306,0.041,0.991,0.131,1.174c0.256,0.521,0.45,2.049,0.91,2.853
					c0.563,0.984,1.301,1.745,1.886,2.66c0.521,0.586,0.781,0.879,1.302,1.462c0.325,0.314,0.525,0.724,0.91,0.958
					c0.063,0.038,0.118,0.053,0.131,0.1c0.272,0.993,1.722,2.182,2.341,3.215c0.162,0.27,0.455,0.21,0.78-0.132
					c0.442-0.398,0.663-0.596,1.105-0.99c0.416-0.362,0.625-0.542,1.041-0.899c0.13-0.031,0.197-0.046,0.327-0.077
					c0.13-0.16,0.185-0.354,0.259-0.448c0.35-0.446,1.479-0.985,1.884-1.46c0.074-0.087,0.313-0.083,0.327-0.071
					c0.011,0.009-0.131,0.157-0.195,0.299c-0.469,0.386-0.702,0.582-1.171,0.973c-0.324,0.268-0.585,0.585-0.976,0.677
					c-0.104,0.102-0.155,0.153-0.26,0.255c-1.015,0.914-1.522,1.377-2.537,2.313c-0.131,0.099-0.244,0.244-0.23,0.262
					c0.031,0.041,0.092,0.129,0.092,0.113c0,0.078,0,0.117,0,0.195c0,0.13,0.363,0.162,0.363,0.162
					c0.326-0.278,0.961-0.798,0.961-0.798c-0.018-0.019-0.217,0.104-0.397,0.177c-0.106,0.043-0.474,0.278-0.493,0.263
					c-0.021-0.017,0.146-0.229,0.212-0.31c0.26-0.326,0.593-0.603,0.918-0.943c0.13-0.032,0.198-0.047,0.328-0.079
					c-0.065,0.21-0.259,0.583-0.259,0.583c0.012,0.018,0.715-0.308,0.779-0.711c-0.208,0.05-0.309,0.077-0.518,0.128
					c0.52-0.711,1.952-1.63,1.952-1.63c0.007,0.007-0.199,0.451-0.325,0.529c-0.401,0.249-1.108,0.973-1.108,0.973
					c0.008,0.012,0.654-0.136,0.782-0.315c0.088-0.123,0.228-0.34,0.391-0.351c0.278-0.019,0.581-0.422,0.781-0.697
					c0.114-0.156,0.326-0.396,0.651-0.47c0.065-0.015,0.171-0.093,0.259-0.187c0.338-0.36,1.122-0.792,1.235-1.104
					c0.028-0.079,0.195-0.234,0.261-0.248c0.521-0.11,0.91-0.827,0.91-0.827c-0.023-0.035-0.912,0.507-1.433,0.875
					c-0.131,0.092-0.481,0.219-0.519,0.177c-0.028-0.032,0.213-0.358,0.391-0.469c0.383-0.238,0.963-0.495,1.234-0.835
					c0.074-0.092,0.326-0.513,0.326-0.513c-0.006-0.009-0.318,0.132-0.39,0.208c-0.31,0.328-1.218,0.668-1.625,1.045
					c-0.065,0.061-0.392,0.278-0.392,0.278c-0.015-0.005,0.166-0.468,0.392-0.598c1.629-0.941,3.435-2.344,5.007-3.344
					c1.42-0.903,2.896-1.657,4.292-2.273c0.244-0.108,0.763-0.233,0.847-0.187c0.111,0.062,0.324,0.203,0.584,0.104
					c0.026-0.004,0.039-0.006,0.065-0.01c0-0.124-0.065-0.114-0.065-0.114c-0.195,0.027-0.584,0.02-0.584,0.02
					c-0.017-0.028,0.746-0.426,0.975-0.507c0.394-0.14,0.978-0.324,1.431-0.433c0.479-0.115,1.142-0.218,1.689-0.203
					c0.788,0.021,1.636-0.036,2.474,0.288c0.255,0.098,0.483,0.345,0.586,0.548c0.101,0.199,0.324,0.454,0.455,0.683
					c0,0,0.029,0.102,0,0.121c-0.176,0.11-0.326,0.574-0.586,0.904c-0.104,0.011-0.154,0.015-0.259,0.026
					c-0.521-0.249-1.236,0.005-1.627-0.429c-0.132-0.146-0.453-0.117-0.651-0.229c-0.303-0.17-0.929-0.179-1.235-0.035
					c-0.298,0.141-0.675,0.363-1.107,0.45c-0.301,0.061-0.648,0.212-0.974,0.382s-0.949,0.333-1.105,0.471
					c-0.068,0.061-0.261,0.181-0.325,0.235c-0.51,0.427-1.729,0.819-2.296,1.081c-0.22,0.102-0.258,0.185-1.258,0.367
					c0-0.05,0-0.075,0-0.125c0-0.188,0.204-0.254,0.085-0.167c-0.192,0.142-0.403,0.354-0.476,0.419
					c-0.121,0.105-0.546,0.374-0.792,0.532c-0.198,0.127-0.529,0.261-0.56,0.235c-0.012-0.009-0.324-0.026-0.324-0.026
					c0.004,0.006,0.066-0.025,0.066,0.026c0,0.101,0,0.152,0,0.253c0-0.02,0.46-0.03,0.564-0.05
					c0.065-0.012,0.436,0.039,0.436,0.039c0,0.05,0,0.075,0,0.125c-1,0.376-0.813,0.566-1.203,0.643
					c0.078-0.167,0.036-0.251,0.114-0.417C1039.106-251.696,1039.293-251.926,1039.285-251.935z M1010.736-222.573
					c-0.042-0.025,0.489-0.895,0.52-0.881C1011.313-223.428,1010.74-222.57,1010.736-222.573z M1029.334-243.323
					c-0.041-0.047-0.194-0.209-0.325-0.24c-0.078,0.021-0.115,0.03-0.193,0.05c0,0.065-0.069,0.184,0,0.261
					c0.043,0.048,0.14,0.215,0,0.393c-0.139,0.176-0.327,0.412-0.522,0.661c-0.13,0.166-0.379,0.203-0.455,0.254
					c-0.12,0.08-0.129,0.232-0.129,0.232c-0.195,0.119-0.524,0.299-0.651,0.44c-0.31,0.346-0.774,1.119-1.235,1.596
					c-0.522,0.542-1.193,1.119-1.628,1.662c-0.4,0.5-0.785,1.093-1.301,1.583c-0.91,0.866-1.689,1.988-2.534,2.928
					c-0.234,0.29-0.352,0.433-0.586,0.723c-0.715,0.768-1.3,1.635-1.885,2.641c-0.313,0.401-0.469,0.602-0.781,1.006
					c-0.13,0.152-0.193,0.229-0.323,0.382c-0.91,1.531-1.927,3.146-2.733,4.563c-0.641,1.125-1.42,2.366-1.885,3.499
					c-0.146,0.355-0.268,1.043-0.39,1.385c-0.114,0.321-0.34,0.934-0.585,1.256c-0.262,0.344-0.384,1.401-0.326,1.919
					c0.041,0.366,0.26,0.798,0.65,0.785c0.585-0.02,1.121,0.013,1.691-0.239c0.121-0.053,0.395-0.154,0.584-0.155
					c0.823-0.005,1.748-0.753,2.602-0.921c0.16-0.032,0.598-0.23,0.715-0.203c0.183,0.042,0.346,0.152,0.519,0.009
					c0.579-0.481,1.31-0.802,1.889-1.307c0.815-0.709,1.885-1.493,2.86-2.239c0.026,0.018,0.038,0.026,0.064,0.044
					c0.131-0.046,0.041,0.11,0,0.2c-0.017,0.035-0.13,0.375-0.129,0.378c0.008,0.018,0.322-0.114,0.519-0.383
					c0.963-0.9,1.445-1.348,2.408-2.231c0.052-0.176,0.079-0.263,0.131-0.439c-0.13,0.176-0.554,0.267-0.62,0.33
					c-0.142,0.136,0.252,0.177-0.748,0.244c0-0.026,0-0.04,0-0.066c1-0.576,1.333-1.302,1.984-1.716
					c0.052-0.017,0.192-0.026,0.244-0.043c0,0.198-0.141,0.592-0.141,0.592c0.006,0.005,0.291-0.086,0.356-0.174
					c0.325-0.436,1.119-1.547,1.119-1.547c-0.011-0.013-0.317-0.092-0.188-0.265c0.26-0.347,0.752-0.934,0.849-1.124
					c0.113-0.222,0.383-0.821,0.589-1.034c1.12-1.16,1.964-3.204,2.081-4.343c0.028-0.272,0.262-0.789,0.262-1.243
					c0-0.389-0.146-0.863-0.015-1.288c0.13-0.426-0.142-0.861-0.142-1.25c0-0.467,0-0.7,0-1.167c0-0.194,0.17-0.348,0.143-0.5
					c-0.029-0.158-0.068-0.359-0.025-0.481c0.047-0.134-0.013-0.372-0.013-0.566c0-0.13-0.013-0.414-0.04-0.567
					c-0.02-0.105-0.113-0.246-0.182-0.337c-0.081-0.107-0.077-0.445-0.123-0.551c-0.156-0.357-0.243-0.797-0.323-1.146
					C1030.236-241.944,1029.758-242.831,1029.334-243.323z M1013.336-214.534c0-0.027,0-0.042,0-0.069
					c-0.025,0.037-0.039,0.057-0.064,0.094C1013.297-214.519,1013.311-214.524,1013.336-214.534z M1014.442-227.674
					c0,0.068-0.001,0.136,0.064,0.113c0,0,0.13-0.113,0.13-0.181C1014.559-227.715,1014.521-227.701,1014.442-227.674z M1015-214.88
					c0,0.025,0,0.092,0,0.067C1015-214.84,1015-214.853,1015-214.88z M1014.832-228.288c0,0.082,0,0.123,0,0.205
					c0.195-0.067,0.26-0.157,0.26-0.293C1014.987-228.34,1014.937-228.323,1014.832-228.288z M1015.092-228.445
					c0.065-0.022,0.131-0.044,0.131-0.112c0,0-0.063-0.047-0.129-0.024C1015.094-228.527,1015.092-228.5,1015.092-228.445z
					 M1017.953-216.567c0,0-0.203,0.002-0.26,0.029c-0.312,0.148-0.677,0.437-0.974,0.571c-0.44,0.199-0.782,0.365-1.173,0.514
					c-0.13,0.049-0.173,0.272-0.196,0.348c-0.015,0.045,0.211,0.066,0.26,0.036c0.365-0.225,0.881-0.594,1.365-0.726
					c0.288-0.078,0.588-0.424,0.913-0.614L1017.953-216.567z M1015.61-229.236c0.026,0.018,0.041,0.028,0.067,0.046
					c0-0.027,0-0.041,0-0.068C1015.651-229.249,1015.637-229.245,1015.61-229.236z M1016.133-229.957
					c0,0.136,0.035,0.141,0.063,0.114c0.072-0.068,0-0.135,0-0.135C1016.17-229.969,1016.159-229.966,1016.133-229.957z
					 M1016.46-230.405c0.01-0.007,0.064-0.159,0.064-0.159C1016.46-230.542,1016.446-230.396,1016.46-230.405z M1016.522-230.699
					c0.031,0.022,0.267-0.219,0.262-0.222C1016.753-230.944,1016.518-230.703,1016.522-230.699z M1017.758-232.461
					c0,0,0.195,0.021,0.195,0.003C1017.953-232.472,1017.758-232.461,1017.758-232.461z M1025.237-241.423
					c0.147-0.525,0.859-1.129,1.444-1.748c0.572-0.549,1.318-0.824,1.318-1.366c0-0.105,0-0.156,0-0.261
					c0-0.065,0.048-0.036-0.018,0.034c-0.874,0.926-1.961,2.021-3,2.933c-0.563,0.496-1.008,1.154-1.594,1.856
					c-0.286,0.27-0.415,0.404-0.701,0.675c-1.171,1.344-2.38,2.66-3.376,3.977c-0.343,0.454-0.655,0.854-1.039,1.207
					c-0.259,0.238-0.321,0.781-0.321,0.781c0.02,0.008,0.416-0.376,0.521-0.504c0.076-0.093,0.438-0.294,0.454-0.283
					c0.011,0.008,0.196,0.005,0.196,0.005c-0.001-0.001-0.188,0.011-0.196-0.005c-0.071-0.135,0.839-1.126,1.105-1.56
					c0.074-0.121,0.357-0.193,0.388-0.235c0.097-0.132-0.42-0.403,0.58-0.563c0,0.054,0,0.081,0,0.135
					c0-0.02,0.135-0.128,0.135-0.128c-0.001-0.002-0.121-0.007-0.121-0.007c-0.039-0.042-0.014-0.924,0.986-1.082
					c0,0.107,0,0.161,0,0.268c0-0.059,0.156-0.145,0.156-0.345c-0.104,0.031-0.235,0.046-0.34,0.077
					c0-0.134,0.184-0.153,0.184-0.345c0,0.107,0,0.161,0,0.268c0-0.059,0.414,0.015,0.545-0.424
					c-0.209,0.062-0.298,0.093-0.506,0.156c0.195-0.459,0.523-0.757,0.848-1.186c0.13-0.039,0.201-0.057,0.331-0.095
					c-0.065,0.219-0.194,0.523-0.194,0.523c0.016,0.027,0.586-0.305,0.717-0.676c-0.208,0.061-0.312,0.091-0.52,0.152
					c0.195-0.456,0.613-0.837,0.91-1.193c0.066-0.079,0.274-0.111,0.326-0.16c0.153-0.145,0.715-0.666,0.715-0.666
					c0.017,0.025-0.225,0.49-0.195,0.517c0.063,0.059,0.585-0.23,0.65-0.645c-0.182,0.051-0.273,0.077-0.455,0.128
					C1025.237-241.291,1025.225-241.377,1025.237-241.423z M1018.603-217.013c0,0-0.063-0.11-0.129-0.086
					c-0.13,0.048-0.197,0.208-0.197,0.208c-0.001,0.008,0.067,0.042,0.197-0.006
					C1018.539-216.922,1018.603-216.946,1018.603-217.013z M1018.276-216.418c0,0,0.196,0.061,0.262,0.036l0.064-0.159
					c0,0-0.063-0.043-0.129-0.019L1018.276-216.418z M1018.538-233.324c0.026-0.035,0.038-0.053,0.064-0.088
					c-0.026,0.008-0.038,0.012-0.064,0.021C1018.538-233.364,1018.538-233.351,1018.538-233.324z M1018.603-215.731
					c0-0.027,0-0.042,0-0.068c-0.026,0.037-0.038,0.054-0.064,0.091C1018.564-215.718,1018.576-215.721,1018.603-215.731z
					 M1019.642-217.669c-0.001-0.002-0.191-0.063-0.256-0.039l-0.197,0.208c0,0.004,0.197-0.005,0.197-0.005
					C1019.45-217.529,1019.642-217.669,1019.642-217.669z M1019.773-234.795l0.131-0.176
					C1019.89-234.978,1019.644-234.889,1019.773-234.795z M1019.904-234.971c0.012,0.011,0.196-0.33,0.196-0.33
					C1020.086-235.308,1019.904-234.971,1019.904-234.971z M1020.359-218.267c-0.004-0.004-0.262,0.095-0.327,0.186
					c-0.026,0.01-0.038,0.015-0.064,0.025c0,0.067,0.008,0.054,0.064,0.043C1020.192-218.043,1020.359-218.267,1020.359-218.267z
					 M1020.101-235.301c0.032,0.023,0.27-0.274,0.259-0.282C1020.338-235.598,1020.096-235.305,1020.101-235.301z M1020.361-235.649
					c0.195-0.061,0.258-0.148,0.258-0.216c-0.104,0.032-0.155,0.048-0.26,0.08C1020.359-235.731,1020.361-235.703,1020.361-235.649z
					 M1021.529-219.227c-0.13,0.047-0.194,0.07-0.324,0.117c-0.324,0.184-0.846,0.843-0.846,0.843
					C1020.392-218.233,1021.27-218.731,1021.529-219.227z M1020.814-264.074c-0.052-0.015-0.079-0.023-0.131-0.039
					c0,0.067-0.051,0.064-0.064,0.081c-0.031,0.039,0.064,0.121,0.064,0.121S1020.814-263.939,1020.814-264.074z M1020.619-235.999
					c0.032,0.023,0.26-0.214,0.26-0.214C1020.873-236.221,1020.614-236.002,1020.619-235.999z M1021.27-217.527l-0.064-0.043
					c-0.104,0.038-0.157,0.058-0.262,0.096c0,0.067,0.131,0.153,0.131,0.153C1021.077-217.322,1021.27-217.527,1021.27-217.527z
					 M1021.205-264.83c0.026-0.033,0.038-0.047,0.064-0.08C1021.204-264.896,1021.14-264.883,1021.205-264.83z M1021.4-265.005
					c0.012,0.009,0.136-0.224,0.129-0.23C1021.518-265.244,1021.386-265.017,1021.4-265.005z M1021.465-236.729
					c0.002,0,0.07-0.215,0.064-0.219C1021.519-236.956,1021.465-236.729,1021.465-236.729z M1022.311-219.775
					c-0.017-0.016-0.352,0.22-0.455,0.229c-0.1,0.009-0.196,0.072-0.326,0.319c0.182-0.065,0.273-0.099,0.455-0.165
					C1022.114-219.438,1022.311-219.775,1022.311-219.775z M1021.725-265.543c-0.065,0.014-0.067,0.08-0.132,0.161
					C1021.645-265.447,1021.673-265.479,1021.725-265.543z M1021.657-236.987c0.005,0.002,0.133-0.308,0.133-0.308
					C1021.785-237.297,1021.657-236.987,1021.657-236.987z M1021.855-265.638c0.052-0.038,0.077-0.057,0.129-0.094
					c-0.052-0.042-0.077-0.064-0.129-0.107C1021.855-265.759,1021.855-265.718,1021.855-265.638z M1021.855-236.045
					c0,0.053,0,0.081,0,0.134c0.052-0.016,0.077-0.023,0.129-0.039C1021.933-235.988,1021.907-236.007,1021.855-236.045z
					 M1022.57-238.063c0.011,0.008,0.138-0.169,0.132-0.173C1022.691-238.245,1022.564-238.067,1022.57-238.063z M1022.635-266.87
					c0.037,0.009,0.067-0.081,0.067-0.081C1022.637-266.937,1022.59-266.881,1022.635-266.87z M1022.829-267.044
					c0.012,0.009,0.064-0.214,0.064-0.214C1022.892-267.258,1022.821-267.05,1022.829-267.044z M1022.829-238.34
					c0.011,0.008,0.136-0.234,0.13-0.239C1022.948-238.587,1022.818-238.349,1022.829-238.34z M1022.959-218.874
					c-0.026,0.009-0.039,0.014-0.065,0.023c0,0.026,0,0.04,0,0.066C1022.92-218.82,1022.933-218.838,1022.959-218.874z
					 M1023.48-219.325c-0.026,0.009-0.037,0.015-0.063,0.024c-0.052,0.045-0.077,0.068-0.129,0.113
					C1023.366-219.243,1023.402-219.271,1023.48-219.325z M1023.417-267.696c0.006-0.003,0.071-0.14,0.063-0.146
					C1023.469-267.852,1023.417-267.696,1023.417-267.696z M1023.417-237.583l0.063-0.219
					C1023.475-237.804,1023.287-237.744,1023.417-237.583z M1023.48-237.802c0.009,0.01,0.261-0.342,0.261-0.342
					C1023.722-238.152,1023.48-237.802,1023.48-237.802z M1023.741-221.477c0.001,0.002-0.133,0.245-0.133,0.245
					C1023.479-221.385,1023.741-221.477,1023.741-221.477z M1023.741-268.293c-0.002,0.008,0.195,0.093,0.065-0.081
					L1023.741-268.293z M1023.741-239.34c0.021,0.016,0.278-0.327,0.262-0.339C1023.971-239.704,1023.73-239.349,1023.741-239.34z
					 M1023.807-238.297c-0.01,0.006-0.065,0.153-0.065,0.153C1023.743-238.141,1023.818-238.306,1023.807-238.297z M1024.194-221.9
					c0.027,0.025-0.453,0.423-0.453,0.423C1023.714-221.501,1024.194-221.9,1024.194-221.9z M1024.131-219.82
					c-0.002-0.002-0.064-0.044-0.064-0.044c-0.065,0.089-0.26,0.159-0.26,0.159c-0.001,0.008,0.065,0.042,0.196-0.003
					L1024.131-219.82z M1024.003-239.68c0.455-0.132,0.906-0.991,0.906-0.991c-0.013-0.015-0.257,0.14-0.452,0.195
					c-0.104,0.162-0.158,0.244-0.263,0.407C1024.116-239.914,1024.081-239.835,1024.003-239.68z M1024.457-222.255
					c0.003,0.001-0.253,0.362-0.263,0.355C1024.174-221.914,1024.457-222.255,1024.457-222.255z M1024.326-269.006
					c0,0.053,0,0.079,0,0.132c0.026-0.058,0.039-0.087,0.065-0.145C1024.365-269.014,1024.353-269.011,1024.326-269.006z
					 M1024.586-220.511c-0.052,0.071-0.077,0.107-0.129,0.178c0.052-0.018,0.077-0.027,0.129-0.045
					C1024.586-220.431,1024.586-220.458,1024.586-220.511z M1024.586-238.856c0.023-0.003,0.073-0.213,0.067-0.218
					C1024.643-239.082,1024.582-238.855,1024.586-238.856z M1024.78-239.378c-0.004,0.001-0.063,0.219-0.063,0.219
					C1024.782-239.178,1024.78-239.378,1024.78-239.378z M1025.302-239.591c0.004-0.001,0.066-0.217,0.066-0.217
					C1025.364-239.813,1025.302-239.591,1025.302-239.591z M1025.368-239.809c0.025,0.014,0.276-0.325,0.259-0.338
					C1025.605-240.163,1025.368-239.809,1025.368-239.809z M1026.146-223.489c-0.043-0.037-0.796,0.633-0.777,0.66
					C1025.41-222.771,1026.147-223.487,1026.146-223.489z M1025.627-241.335c0.025,0.014,0.271-0.261,0.26-0.27
					C1025.865-241.621,1025.627-241.335,1025.627-241.335z M1025.758-240.315l-0.131,0.169
					C1025.628-240.144,1025.888-240.22,1025.758-240.315z M1025.758-270.338c0.025-0.005,0.039-0.007,0.064-0.012
					c0-0.053,0-0.081,0-0.134C1025.797-270.427,1025.783-270.396,1025.758-270.338z M1025.887-241.604
					c0.021,0.02,0.481-0.373,0.458-0.391C1026.312-242.02,1025.885-241.607,1025.887-241.604z M1026.407-242.013
					c0.011,0.008,0.142-0.289,0.13-0.298C1026.526-242.319,1026.39-242.026,1026.407-242.013z M1026.407-224.104
					c-0.01-0.007,0.065-0.151,0.065-0.151C1026.537-224.145,1026.412-224.1,1026.407-224.104z M1026.668-242.348
					c0.011,0.008,0.146-0.286,0.128-0.299C1026.785-242.655,1026.65-242.361,1026.668-242.348z M1026.796-242.647
					c0.018,0.02,0.526-0.4,0.523-0.403C1027.299-243.07,1026.796-242.647,1026.796-242.647z M1027.058-223.529
					c0,0-0.079,0.164-0.064,0.153C1027.003-223.383,1027.058-223.529,1027.058-223.529z M1026.928-241.301
					c0.002,0.003,0.115,0.049,0.13,0.03C1027.073-241.292,1026.928-241.301,1026.928-241.301z M1027.319-223.878
					c-0.031-0.023-0.262,0.283-0.262,0.283C1027.07-223.581,1027.324-223.875,1027.319-223.878z M1027.255-271.665l0.064-0.078
					C1027.319-271.742,1027.124-271.707,1027.255-271.665z M1027.319-271.809l0.063-0.208
					C1027.377-272.014,1027.319-271.809,1027.319-271.809z M1027.319-243.05c0.033,0.025,0.265-0.197,0.259-0.202
					C1027.545-243.277,1027.313-243.054,1027.319-243.05z M1028.229-225.158c-0.039-0.031-0.909,1.215-0.909,1.215
					C1027.336-223.933,1028.229-225.158,1028.229-225.158z M1027.578-243.381c0.053,0.073,0.659-0.558,0.65-0.566
					C1028.19-243.982,1027.535-243.441,1027.578-243.381z M1027.838-225.49c-0.002-0.003-0.27,0.273-0.26,0.28
					C1027.6-225.194,1027.838-225.49,1027.838-225.49z M1027.838-242.139c-0.13,0.035-0.194,0.116-0.194,0.116
					c0,0.066,0.064,0.05,0.194,0.015C1027.838-242.061,1027.838-242.087,1027.838-242.139z M1028-223.743c0,0,0,0.043,0,0.131
					C1028-223.665,1028-223.691,1028-223.743z M1027.838-272.227c0.026,0.021,0.041,0.033,0.067,0.054
					c0.026-0.031,0.037-0.045,0.063-0.076C1027.916-272.24,1027.891-272.236,1027.838-272.227z M1027.905-242.355l-0.067,0.216
					C1027.842-242.139,1027.971-242.307,1027.905-242.355z M1028.097-225.835c-0.006-0.008-0.264,0.274-0.259,0.278
					C1027.859-225.542,1028.097-225.835,1028.097-225.835z M1028.097-224.134c-0.002-0.003-0.269,0.275-0.259,0.282
					C1027.849-223.844,1028.097-224.134,1028.097-224.134z M1028.229-226.141c-0.011-0.008-0.132,0.306-0.132,0.306
					C1028.102-225.833,1028.238-226.133,1028.229-226.141z M1028.164-224.352c-0.026,0.061-0.041,0.091-0.067,0.152
					C1028.162-224.221,1028.294-224.198,1028.164-224.352z M1028.295-243.965c0.022,0.017,0.212-0.299,0.193-0.313
					C1028.478-244.287,1028.276-243.979,1028.295-243.965z M1028.293-242.982c0.053,0.039,0.076,0.057,0.129,0.096
					c0-0.052,0.002-0.079,0.002-0.131C1028.371-243.004,1028.346-242.996,1028.293-242.982z M1028.293-226.161
					c0.195-0.127,0.195-0.389,0.195-0.52c-0.078,0.025-0.117,0.038-0.195,0.063C1028.293-226.436,1028.293-226.344,1028.293-226.161
					z M1028.488-225.504c-0.005-0.002-0.21,0.314-0.195,0.325C1028.314-225.164,1028.488-225.504,1028.488-225.504z
					 M1028.748-225.784c-0.032-0.023-0.27,0.272-0.26,0.279C1028.521-225.481,1028.753-225.78,1028.748-225.784z M1028.554-272.873
					c0.052,0.017,0.077,0.024,0.13,0.042c0-0.026,0-0.038,0-0.064C1028.631-272.887,1028.605-272.882,1028.554-272.873z
					 M1028.554-244.295c0.016,0.008,0.177-0.206,0.13-0.23C1028.645-244.546,1028.554-244.295,1028.554-244.295z M1028.748-227.024
					c-0.005-0.002-0.209,0.312-0.194,0.323C1028.575-226.686,1028.748-227.024,1028.748-227.024z M1028.748-225.13
					c-0.003,0-0.26,0.085-0.064,0.218L1028.748-225.13z M1030.635-229.692c-0.011-0.008-0.15,0.11-0.195,0.19
					c-0.301,0.533-0.685,1.378-0.978,1.991c-0.082,0.171-0.153,0.748-0.192,0.844c-0.053,0.131-0.527,0.814-0.521,0.818
					c0.046,0.028,0.659-0.492,0.659-0.818c0.182-0.057,0.593-0.085,0.593-0.143c0,0.078,0,0.116,0,0.194
					c0-0.106,0.058-0.124,0.058-0.254c-0.078,0.024-0.187,0.036-0.265,0.06c0-0.457,0.317-0.883,0.422-1.119
					c0.078-0.177,0.188-0.645,0.308-0.878C1030.691-229.134,1030.656-229.676,1030.635-229.692z M1029.009-225.41
					c-0.024-0.013-0.261,0.279-0.261,0.279C1028.752-225.125,1029.009-225.41,1029.009-225.41z M1028.879-227.263
					c-0.024,0.003-0.068,0.213-0.063,0.217C1028.826-227.038,1028.884-227.264,1028.879-227.263z M1029.27-225.753
					c-0.024-0.013-0.275,0.333-0.261,0.343C1029.03-225.394,1029.27-225.753,1029.27-225.753z M1029.074-273.223
					c0.026,0.021,0.038,0.034,0.064,0.056c0-0.026,0-0.04,0-0.066C1029.112-273.229,1029.101-273.228,1029.074-273.223z
					 M1029.397-225.991c-0.052,0.095-0.075,0.144-0.128,0.238c0.065-0.021,0.063-0.021,0.128-0.172
					C1029.397-225.951,1029.397-225.965,1029.397-225.991z M1029.66-226.594c-0.011-0.008-0.093,0.218-0.065,0.217
					C1029.618-226.377,1029.67-226.587,1029.66-226.594z M1029.856-273.741c0.026-0.004,0.037-0.006,0.063-0.01
					c-0.026-0.048-0.037-0.074-0.063-0.122C1029.856-273.821,1029.856-273.793,1029.856-273.741z M1030.048-227.105
					c0,0-0.063,0.085-0.063,0.216c0.026-0.06,0.037-0.091,0.063-0.151C1030.179-227.082,1030.048-227.105,1030.048-227.105z
					 M1030.439-228.007c-0.078,0.024-0.116,0.035-0.194,0.059c0,0-0.019,0.159,0,0.196c0.017,0.031-0.001,0.194,0.064,0.174
					c0,0,0.13-0.169,0.13-0.234C1030.439-227.891,1030.439-227.929,1030.439-228.007z M1030.635-246.256
					c-0.022-0.018-0.208,0.233-0.195,0.243C1030.462-245.996,1030.641-246.251,1030.635-246.256z M1030.57-228.241
					c-0.019-0.001-0.065,0.149-0.065,0.149C1030.57-228.112,1030.578-228.241,1030.57-228.241z M1031-231.915
					c0-0.078,0-0.117,0-0.194c0,0.067,0.1,0.101,0.047,0.167c-0.131,0.362-0.094,0.703-0.238,1.004
					c-0.15,0.312-0.218,1.116-0.218,1.116c0.025,0.014,0.478-0.33,0.478-0.459c0-0.455,0.13-0.949,0.159-1.328
					C1031.241-231.788,1031-231.85,1031-231.915z M1030.83-228.711c0-0.026,0-0.04,0-0.065c-0.026,0.034-0.037,0.051-0.063,0.085
					C1030.793-228.699,1030.804-228.703,1030.83-228.711z M1031.349-229.905c-0.052,0.042-0.075,0.063-0.128,0.104
					c0.053-0.016,0.076-0.024,0.128-0.04C1031.349-229.867,1031.349-229.879,1031.349-229.905z M1031.413-233.164
					c0,0.156,0,0.233,0,0.389c0,0.195,0.002,0.259,0.067,0.24c0,0,0.109-0.13,0.131-0.231c0.026-0.126,0-0.325,0-0.455
					c-0.053-0.037-0.078-0.055-0.131-0.091C1031.48-233.183,1031.413-233.164,1031.413-233.164z M1031.74-230.473
					c0-0.065,0.001-0.065-0.064-0.046c0,0-0.165,0.082-0.195,0.122c-0.031,0.042,0,0.13,0.131,0.092
					C1031.676-230.325,1031.74-230.473,1031.74-230.473z M1031.808-234.247c0.13-0.037,0.177-0.079,0.191-0.12
					c0.023-0.067-0.063-0.499-0.259-0.444c-0.026,0.059-0.038,0.088-0.064,0.147C1031.611-234.516,1031.677-234.21,1031.808-234.247
					z M1031.676-235.245c0.026,0.019,0.038,0.028,0.064,0.046c0-0.064,0.002-0.196,0.067-0.278
					c-0.026,0.007-0.041,0.012-0.067,0.019C1031.74-235.458,1031.676-235.375,1031.676-235.245z M1031.74-231.444
					c-0.026,0.033-0.038,0.05-0.064,0.083c0.053-0.015,0.08-0.024,0.132-0.039C1031.808-231.464,1031.74-231.444,1031.74-231.444z
					 M1031.74-238.306c0.026-0.007,0.041-0.011,0.067-0.018c-0.026-0.019-0.041-0.028-0.067-0.047
					C1031.74-238.345,1031.74-238.332,1031.74-238.306z M1032.066-231.15c-0.011-0.008-0.263,0.075-0.067,0.212
					C1031.999-230.938,1032.077-231.142,1032.066-231.15z M1031.936-237.389c0,0.064,0.063,0.177,0.063,0.177
					c0.006,0.002,0.067-0.147,0.067-0.147c0-0.181,0-0.272,0-0.454l-0.067-0.11c0,0-0.063,0.082-0.063,0.146
					C1031.936-237.622,1031.936-237.544,1031.936-237.389z M1032.066-233.608c-0.026-0.044-0.041-0.066-0.067-0.11
					c-0.026,0.059-0.037,0.088-0.063,0.147c0,0,0.063-0.02,0.063,0.045C1032.025-233.559,1032.04-233.575,1032.066-233.608z
					 M1031.999-232.296c-0.026,0.059-0.037,0.089-0.063,0.148c0.026-0.007,0.037-0.012,0.063-0.019
					C1031.999-232.219,1031.999-232.244,1031.999-232.296z M1032.259-246.652c-0.014-0.002-0.063,0.21-0.063,0.21
					C1032.261-246.458,1032.259-246.652,1032.259-246.652z M1032.195-236.295c0.026,0.019,0.039,0.028,0.065,0.047
					c0-0.026,0-0.04,0-0.065C1032.234-236.306,1032.222-236.302,1032.195-236.295z M1032.781-246.906
					c0-0.128-0.131-0.098-0.131,0.031c0,0.026,0,0.039,0,0.064C1032.781-246.842,1032.781-246.906,1032.781-246.906z
					 M1034.019-249.443c0.042,0.043-1.172,0.973-1.172,0.973C1032.824-248.497,1034.019-249.443,1034.019-249.443z
					 M1034.732-250.114c0.029,0.034-0.714,0.671-0.714,0.671C1033.988-249.477,1034.732-250.114,1034.732-250.114z
					 M1041.172-254.166c-0.01-0.025-0.605,0.274-0.781,0.388c-0.068,0.044-0.194-0.028-0.26-0.016c-0.131,0.023,0-0.189,0.065-0.264
					c0.208-0.087,0.313-0.131,0.521-0.218c0.064-0.137,0.145-0.188,0.259-0.233c0.049-0.02,0.129-0.212,0.129-0.274
					c-0.104,0.018-0.153,0.027-0.258,0.045c-0.325,0.119-0.656,0.4-0.976,0.612c-0.997,0.664-2.082,1.335-3.122,2.055
					c0,0-0.078,0.125-0.065,0.14c0.076,0.092,0.66-0.246,0.976-0.449c0.336-0.217,0.976-0.519,1.171-0.669
					c0.132-0.103,0.455-0.339,0.715-0.576c0.053,0.041,0.078,0.063,0.131,0.104c0,0.063-0.043,0.078-0.065,0.138
					c-0.015,0.039-0.065,0.201-0.065,0.201L1041.172-254.166z M1036.684-251.166c0.006,0.011,0.486-0.063,0.65-0.196
					c0.319-0.258,0.9-0.705,1.172-0.992c0.085-0.09,0.134-0.212,0.129-0.216C1038.519-252.646,1036.684-251.166,1036.684-251.166z
					 M1037.594-250.461c0.04,0.04-0.325,0.574-0.65,0.642c-0.065,0.014-0.194-0.087-0.194-0.087c0-0.063,0.117-0.175,0.13-0.218
					C1036.951-250.365,1037.583-250.472,1037.594-250.461z M1038.049-250.619c0,0,0.001,0.064-0.129,0.091
					c-0.104,0.021-0.156,0.031-0.261,0.052c0-0.063,0.181-0.212,0.194-0.229C1037.868-250.723,1038.049-250.746,1038.049-250.619z
					 M1038.57-251.037c-0.052,0.061-0.079,0.09-0.131,0.151C1038.374-250.936,1038.44-251.012,1038.57-251.037z M1039.545-253.12
					c-0.286,0.053-0.429,0.08-0.715,0.134c-0.078,0.167-0.117,0.249-0.195,0.416C1038.96-252.633,1039.285-252.756,1039.545-253.12z
					 M1040.196-252.169c-0.026,0.005-0.039,0.006-0.065,0.011c-0.053-0.041-0.078-0.06-0.131-0.101
					c0.053-0.01,0.078-0.014,0.131-0.023C1040.196-252.294,1040.196-252.295,1040.196-252.169z M1040.781-252.967
					c0.261-0.046,0.39-0.07,0.65-0.115c-0.065,0.388-0.508,0.536-0.585,0.543c-0.025,0.002-0.035-0.115-0.065-0.177
					C1040.761-252.758,1040.781-252.841,1040.781-252.967z M1042.797-255.063c-0.011-0.014-0.39,0.028-0.52,0.147
					c-0.269,0.246-1.105,0.751-1.105,0.751c0.013,0.02,0.563-0.08,0.715-0.185C1042.198-254.566,1042.797-255.063,1042.797-255.063z
					 M1041.562-254.985c0.052,0.017,0.077,0.025,0.13,0.042c0.078-0.088,0.117-0.134,0.195-0.222
					c-0.104,0.017-0.155,0.025-0.26,0.043C1041.562-255.111,1041.562-254.985,1041.562-254.985z M1041.951-255.237
					c0.156-0.026,0.234-0.039,0.391-0.064c0.195-0.032,0.261-0.104,0.261-0.229c-0.156,0.025-0.235,0.037-0.392,0.063
					C1042.146-255.458,1041.951-255.3,1041.951-255.237z M1042.342-253.864c-0.13,0.022-0.195,0.032-0.325,0.054
					c0,0-0.063,0.07-0.065,0.075c-0.01,0.021,0.195,0.091,0.26,0.081C1042.276-253.667,1042.276-253.791,1042.342-253.864z
					 M1042.863-254.075l-0.066-0.114c-0.26,0.042-0.323,0.302-0.323,0.302c0.006,0.002,0.128-0.083,0.323-0.115L1042.863-254.075z
					 M1042.732-255.615c0.078-0.012,0.116-0.019,0.194-0.031c0.131-0.021,0.129-0.084,0.129-0.084c0-0.062-0.129-0.041-0.129-0.041
					C1042.797-255.75,1042.732-255.677,1042.732-255.615z M1045-256.095c0,0.022-0.197,0.034-0.354,0.057
					c-0.585,0.21-1.208,0.663-1.738,0.829c-0.054,0.017-0.092,0.073-0.092,0.073c0.846-0.073,1.184-0.484,2.184-0.897
					C1045-256.058,1045-256.07,1045-256.095z M1043.903-254.615c-0.234,0.037-0.351,0.054-0.585,0.092
					c0,0.125-0.131,0.146-0.131,0.146c0,0.062,0.131,0.04,0.131,0.04C1043.514-254.306,1043.707-254.336,1043.903-254.615z
					 M1043.447-256.039c-0.002,0.007,0.064,0.054,0.195,0.034c0.064-0.01,0.13,0.104,0.261-0.04
					c0.025-0.029,0.039-0.044,0.064-0.073c-0.025-0.021-0.039-0.03-0.064-0.051c-0.104,0.016-0.156,0.023-0.261,0.039
					C1043.512-256.111,1043.447-256.039,1043.447-256.039z M1044.293-254.863c-0.036-0.031-0.429,0.214-0.39,0.248
					C1043.928-254.595,1044.332-254.829,1044.293-254.863z M1044.36-256.362c0.052-0.008,0.076-0.012,0.128-0.02
					c0-0.025,0-0.037,0-0.062C1044.437-256.411,1044.412-256.395,1044.36-256.362z M1044.943-255.085
					c0-0.062-0.01-0.051-0.064-0.052c-0.167-0.001-0.524,0.256-0.519,0.263c0.019,0.022,0.323-0.048,0.519-0.202
					C1044.904-255.079,1044.918-255.081,1044.943-255.085z M1045.074-256.095c0.004,0.002,0.389-0.179,0.584-0.207
					c0,0,0.066-0.01,0.066-0.072c0,0-0.059-0.045-0.066-0.052C1045.609-256.468,1045.074-256.095,1045.074-256.095z
					 M1045.725-255.568c0,0-0.082,0.047-0.195,0.089c-0.049,0.018-0.131,0.019-0.131,0.081c0,0,0,0.124,0.065,0.115
					s0.17-0.124,0.194-0.152C1045.673-255.453,1045.725-255.507,1045.725-255.568z M1046.439-255.731c0,0-0.073-0.104-0.128-0.104
					c-0.168-0.003-0.457,0.002-0.522,0.258c0.208-0.029,0.314-0.043,0.522-0.072
					C1046.376-255.658,1046.439-255.731,1046.439-255.731z M1046.05-256.664c-0.002,0.007,0.194,0.158,0.194,0.158
					c0.004,0.001,0.132-0.14,0.132-0.14c0-0.062-0.066-0.116-0.132-0.107L1046.05-256.664z M1046.699-256.196
					c0-0.123-0.127-0.106-0.323-0.08c0,0,0,0.061-0.064,0.07c0.025,0.021,0.039,0.032,0.064,0.053
					C1046.506-256.171,1046.569-256.179,1046.699-256.196z M1047.415-256.108c-0.052-0.042-0.078-0.063-0.13-0.105
					c-0.234,0.03-0.352,0.046-0.586,0.078c0.131,0.229,0.326,0.142,0.586,0.107C1047.337-256.059,1047.363-256.077,1047.415-256.108
					z M1047.285-256.951c0.052-0.056,0.078-0.083,0.13-0.139c-0.156,0.02-0.233,0.029-0.39,0.049
					C1047.155-256.934,1047.22-256.942,1047.285-256.951z M1047.609-256.624c-0.002-0.003-0.064-0.052-0.064-0.052
					c-0.065,0.008-0.195,0.086-0.195,0.086c-0.002,0.006,0.065,0.054,0.131,0.045L1047.609-256.624z M1047.545-257.536
					c-0.026,0.028-0.038,0.042-0.064,0.069c0.052-0.006,0.077-0.01,0.129-0.016C1047.584-257.504,1047.57-257.515,1047.545-257.536z
					"/>
				<path fill="#FFFFFF" d="M1061.523-240.52c0.137-0.343,0.346-0.979,0.52-1.092c0.028-0.019,0.064-0.122,0.194-0.188
					c0.261-0.135,0.46-0.414,0.652-0.566c0.167-0.132,0.52-0.206,0.715-0.332c0.391-0.253,0.662-0.094,0.976,0.068
					c0.579,0.3,1.165,1.042,1.172,1.509c0.003,0.173,0.129,0.58-0.064,0.752c-0.145,0.129-0.232,0.296-0.393,0.478
					c-0.132,0.15-0.156,0.324-0.129,0.47c0.034,0.186-0.327,0.451-0.391,0.598c-0.027,0.064-0.064,0.177-0.064,0.177
					c-0.715,0.331-1.384,0.5-2.019,0.43c-0.354-0.04-0.767-0.275-0.974-0.623c-0.16-0.268-0.261-0.623-0.261-0.974
					C1061.458-240.107,1061.442-240.315,1061.523-240.52z"/>
			</g>
		</g>
	</g>
</g>
<g id="圖層_2">
	<rect x="1095" fill="#231815" width="960" height="560"/>
	<g>
		<text transform="matrix(1 0 0 1 1421.791 282.2588)" fill="#FFFFFF" font-family="'Quentin'" font-size="72" letter-spacing="-5">PierreStone</text>
		<g>
			<rect x="1439.082" y="318.122" fill="#FFFFFF" width="270.418" height="22.166"/>
			<g>
				
					<text transform="matrix(1 0 0 1 1455.0195 333.2969)" font-family="'CutiveMono-Regular'" font-size="12.4126" letter-spacing="12">FRENCH</text>
				
					<text transform="matrix(1 0 0 1 1587.0742 333.2979)" font-family="'CutiveMono-Regular'" font-size="12.4126" letter-spacing="12">BISTRO</text>
			</g>
			<rect x="1562" y="318" display="none" fill="#FFFFFF" width="26" height="23"/>
		</g>
	</g>
</g>
</svg>
